<?xml version="1.0" encoding="UTF-8" standalone="no"?>
<svg
   xmlns:dc="http://purl.org/dc/elements/1.1/"
   xmlns:cc="http://creativecommons.org/ns#"
   xmlns:rdf="http://www.w3.org/1999/02/22-rdf-syntax-ns#"
   xmlns:svg="http://www.w3.org/2000/svg"
   xmlns="http://www.w3.org/2000/svg"
   xmlns:sodipodi="http://sodipodi.sourceforge.net/DTD/sodipodi-0.dtd"
   xmlns:inkscape="http://www.inkscape.org/namespaces/inkscape"
   version="1.1"
   id="svg2142"
   xml:space="preserve"
   width="500"
   height="500"
   viewBox="0 0 500 500"
   sodipodi:docname="bit logo-ai.svg"
   inkscape:version="1.0.1 (3bc2e813f5, 2020-09-07)"><metadata
     id="metadata2148"><rdf:RDF><cc:Work
         rdf:about=""><dc:format>image/svg+xml</dc:format><dc:type
           rdf:resource="http://purl.org/dc/dcmitype/StillImage" /><dc:title /></cc:Work></rdf:RDF></metadata><defs
     id="defs2146"><clipPath
       clipPathUnits="userSpaceOnUse"
       id="clipPath2160"><path
         d="M 0,566.93 H 566.93 V 0 H 0 Z"
         id="path2158" /></clipPath><clipPath
       clipPathUnits="userSpaceOnUse"
       id="clipPath2168"><path
         d="M 45,311.564 H 562 V -54.0703 H 45 Z"
         id="path2166" /></clipPath><clipPath
       clipPathUnits="userSpaceOnUse"
       id="clipPath2182"><path
         d="M 0,566.93 H 566.93 V 0 H 0 Z"
         id="path2180" /></clipPath></defs><sodipodi:namedview
     pagecolor="#1c1c1c"
     bordercolor="#666666"
     borderopacity="1"
     objecttolerance="10"
     gridtolerance="10"
     guidetolerance="10"
     inkscape:pageopacity="0"
     inkscape:pageshadow="2"
     inkscape:window-width="1920"
     inkscape:window-height="983"
     id="namedview2144"
     showgrid="false"
     inkscape:showpageshadow="false"
     inkscape:zoom="0.38820839"
     inkscape:cx="263.68676"
     inkscape:cy="582.56889"
     inkscape:window-x="1920"
     inkscape:window-y="27"
     inkscape:window-maximized="1"
     inkscape:current-layer="g2150"
     inkscape:document-rotation="0" /><g
     id="g2150"
     inkscape:groupmode="layer"
     inkscape:label="bit-ai-logo"
     transform="matrix(1.3333333,0,0,-1.3333333,0,755.90667)"><g
       id="g2184"
       transform="matrix(0.58379945,0,0,0.58379945,187.31698,493.95374)"><path
         d="m 0,0 c -1.352,0 -2.62,-0.523 -3.57,-1.474 -1.968,-1.966 -1.968,-5.169 0,-7.136 0.95,-0.95 2.218,-1.473 3.57,-1.473 1.352,0 2.618,0.523 3.569,1.473 1.969,1.967 1.969,5.17 0,7.137 C 2.618,-0.523 1.352,0 0,0 m 64.839,-13.633 c -2.781,0 -5.045,-2.265 -5.045,-5.049 0,-2.782 2.264,-5.047 5.045,-5.047 2.785,0 5.049,2.265 5.049,5.047 0,2.784 -2.264,5.049 -5.049,5.049 m 0,-22.241 c -4.391,0 -8.57,1.664 -11.77,4.685 -3.191,3.013 -7.369,4.673 -11.761,4.673 H 15.147 c -3.046,0 -5.912,1.186 -8.068,3.341 -0.848,0.849 -1.975,1.316 -3.172,1.316 -0.271,0 -0.543,-0.025 -0.808,-0.074 -1.028,-0.188 -2.078,-0.283 -3.122,-0.283 -4.59,0 -8.899,1.781 -12.135,5.017 -3.243,3.243 -5.029,7.56 -5.029,12.157 0,4.597 1.786,8.915 5.029,12.158 3.243,3.242 7.561,5.028 12.158,5.028 4.597,0 8.915,-1.786 12.157,-5.028 4.506,-4.506 6.135,-11.104 4.256,-17.22 -0.037,-0.115 -0.006,-0.239 0.078,-0.323 0.268,-0.267 0.637,-0.42 1.014,-0.42 h 23.803 c 4.392,0 8.568,1.659 11.761,4.673 3.2,3.022 7.379,4.686 11.77,4.686 9.48,0 17.195,-7.713 17.195,-17.194 0,-9.48 -7.715,-17.192 -17.195,-17.192 M -39.045,-93.277 c -1.352,0 -2.621,-0.523 -3.571,-1.473 -1.967,-1.968 -1.967,-5.171 10e-4,-7.139 0.949,-0.95 2.217,-1.474 3.568,-1.474 1.351,0 2.62,0.524 3.57,1.474 1.968,1.968 1.968,5.171 0,7.139 -0.95,0.95 -2.218,1.473 -3.568,1.473 m 49.218,0.001 c -1.352,0 -2.619,-0.525 -3.569,-1.475 -1.97,-1.968 -1.97,-5.171 0,-7.139 0.95,-0.95 2.217,-1.474 3.569,-1.474 1.351,0 2.619,0.524 3.57,1.474 1.967,1.968 1.967,5.171 -0.002,7.139 -0.949,0.95 -2.217,1.475 -3.568,1.475 m 0,-22.232 c -4.598,0 -8.915,1.786 -12.159,5.029 -4.49,4.492 -6.126,11.072 -4.269,17.173 0.034,0.112 0.002,0.239 -0.082,0.322 -1.213,1.213 -2.826,1.881 -4.542,1.881 l -7.539,-0.036 c -1.57,-0.007 -3.046,-0.623 -4.156,-1.733 -0.085,-0.086 -0.116,-0.21 -0.08,-0.325 1.912,-6.134 0.29,-12.756 -4.235,-17.282 -3.243,-3.243 -7.561,-5.029 -12.157,-5.029 -4.597,0 -8.915,1.786 -12.158,5.029 -6.703,6.705 -6.703,17.613 0,24.316 3.236,3.236 7.546,5.018 12.136,5.018 1.027,0 2.061,-0.092 3.072,-0.274 0.262,-0.048 0.529,-0.071 0.794,-0.071 1.176,0 2.326,0.475 3.155,1.304 3.017,3.018 7.014,4.685 11.266,4.705 l 12.209,0.059 c 4.433,0 8.528,-1.696 11.608,-4.776 0.842,-0.84 1.992,-1.316 3.172,-1.316 0.273,0 0.547,0.026 0.814,0.076 1.043,0.194 2.112,0.292 3.174,0.292 4.59,0 8.899,-1.781 12.133,-5.017 6.703,-6.703 6.703,-17.611 0.002,-24.316 -3.244,-3.243 -7.562,-5.029 -12.158,-5.029 M -83.771,-11.54 c -2.783,0 -5.048,-2.265 -5.048,-5.047 0,-2.784 2.265,-5.049 5.048,-5.049 2.783,0 5.048,2.265 5.048,5.049 0,2.782 -2.265,5.047 -5.048,5.047 m -7.58,-124.702 c -1.352,0 -2.62,-0.524 -3.571,-1.475 -1.968,-1.967 -1.967,-5.172 10e-4,-7.14 0.95,-0.95 2.218,-1.473 3.568,-1.473 1.353,0 2.621,0.523 3.572,1.475 1.968,1.966 1.968,5.169 -10e-4,7.14 -0.95,0.949 -2.218,1.473 -3.569,1.473 m -0.001,-22.232 c -4.596,0 -8.914,1.787 -12.157,5.029 -2.973,2.973 -4.747,6.926 -4.995,11.132 -0.247,4.194 -2.017,8.138 -4.984,11.104 l -2.541,2.541 c -6.647,6.647 -10.45,15.853 -10.431,25.255 l 0.039,20.224 c 0.019,9.486 3.723,18.404 10.43,25.111 l 23.237,23.236 c 0.74,0.741 1.149,1.726 1.149,2.774 0,0.121 -0.067,0.231 -0.174,0.287 -5.665,2.992 -9.185,8.813 -9.185,15.194 0,9.48 7.713,17.192 17.193,17.192 9.48,0 17.193,-7.712 17.193,-17.192 0,-5.626 -2.774,-10.906 -7.422,-14.123 -1.212,-0.84 -1.937,-2.22 -1.937,-3.692 0,-3.729 -1.451,-7.234 -4.087,-9.87 l -24.298,-24.298 c -4.136,-4.135 -6.42,-9.634 -6.431,-15.482 l -0.041,-20.609 c -0.009,-4.49 1.808,-8.888 4.983,-12.063 l 2.356,-2.357 c 3.234,-3.234 7.535,-5.018 12.111,-5.019 4.594,-0.002 8.909,-1.787 12.15,-5.027 6.703,-6.706 6.703,-17.614 0,-24.318 -3.244,-3.242 -7.561,-5.029 -12.158,-5.029 m 67.382,-10.219 c -2.783,0 -5.048,-2.264 -5.048,-5.047 0,-2.783 2.265,-5.047 5.048,-5.047 2.783,0 5.048,2.264 5.048,5.047 0,2.783 -2.265,5.047 -5.048,5.047 m 160.162,-37.29 c -2.783,0 -5.046,-2.264 -5.046,-5.047 0,-2.783 2.263,-5.047 5.046,-5.047 2.784,0 5.047,2.264 5.047,5.047 0,2.783 -2.263,5.047 -5.047,5.047 m 0,-22.24 c -9.48,0 -17.193,7.713 -17.193,17.193 0,3.414 2.111,8.219 5.137,11.684 2.72,3.115 4.222,7.105 4.228,11.236 l 0.002,0.592 c 0.006,3.631 -1.465,7.188 -4.033,9.756 l -32.168,32.167 c -2.703,2.703 -6.295,4.192 -10.115,4.192 l -2.26,-0.003 c -3.83,-0.004 -7.432,-1.499 -10.143,-4.21 L 44.45,-170.812 c -6.724,-6.725 -15.668,-10.429 -25.179,-10.429 H -0.687 c -4.23,0 -8.291,-1.552 -11.436,-4.373 -3.491,-3.133 -8.363,-5.32 -11.847,-5.32 -9.48,0 -17.193,7.713 -17.193,17.194 0,9.48 7.713,17.193 17.193,17.193 3.349,0 8.087,-2.038 11.522,-4.957 3.089,-2.623 7.026,-4.067 11.085,-4.067 h 19.798 c 5.865,0 11.38,2.284 15.527,6.431 l 22.976,22.977 c 6.715,6.714 15.641,10.419 25.133,10.432 8.008,0 15.496,-3.103 21.127,-8.737 l 32.254,-32.252 c 5.467,-5.467 8.596,-13.036 8.584,-20.765 l -0.002,-0.596 c -0.006,-4.144 1.492,-8.148 4.221,-11.277 3.019,-3.463 5.131,-8.264 5.131,-11.672 0,-9.48 -7.713,-17.193 -17.194,-17.193 M -9.328,-39.791 c -1.351,0 -2.619,-0.523 -3.569,-1.473 -1.968,-1.967 -1.968,-5.171 10e-4,-7.14 0.949,-0.949 2.217,-1.472 3.568,-1.472 1.352,0 2.62,0.523 3.57,1.473 1.966,1.968 1.967,5.172 -0.001,7.14 -0.949,0.949 -2.217,1.472 -3.569,1.472 m -67.689,-53.481 c -2.783,0 -5.047,-2.265 -5.047,-5.048 0,-2.783 2.264,-5.048 5.047,-5.048 2.784,0 5.048,2.265 5.048,5.048 0,2.783 -2.264,5.048 -5.048,5.048 m 174.961,0 c -2.783,0 -5.047,-2.265 -5.047,-5.048 0,-2.783 2.264,-5.048 5.047,-5.048 2.784,0 5.047,2.265 5.047,5.048 0,2.783 -2.263,5.048 -5.047,5.048 m 43.461,0 c -2.783,0 -5.047,-2.265 -5.047,-5.048 0,-2.783 2.264,-5.048 5.047,-5.048 2.783,0 5.047,2.265 5.047,5.048 0,2.783 -2.264,5.048 -5.047,5.048 m -301.372,-0.462 c -2.783,0 -5.048,-2.265 -5.048,-5.048 0,-2.783 2.265,-5.048 5.048,-5.048 2.783,0 5.048,2.265 5.048,5.048 0,2.783 -2.265,5.048 -5.048,5.048 m 23.826,-42.504 c -2.783,0 -5.047,-2.264 -5.047,-5.047 0,-2.785 2.264,-5.049 5.047,-5.049 2.784,0 5.048,2.264 5.048,5.049 0,2.783 -2.264,5.047 -5.048,5.047 m 301.865,-14.916 c -1.352,0 -2.62,-0.524 -3.569,-1.475 -1.968,-1.967 -1.968,-5.17 0,-7.137 0.949,-0.951 2.217,-1.474 3.569,-1.474 1.351,0 2.619,0.523 3.568,1.474 0.951,0.95 1.475,2.217 1.475,3.569 0,1.351 -0.524,2.619 -1.475,3.568 -0.949,0.951 -2.217,1.475 -3.568,1.475 m -76.633,-54.833 c -1.352,0 -2.619,-0.523 -3.57,-1.474 -1.967,-1.967 -1.967,-5.172 0.001,-7.139 0.95,-0.951 2.217,-1.475 3.569,-1.475 1.351,0 2.619,0.524 3.568,1.475 0.951,0.949 1.475,2.217 1.475,3.568 0,1.354 -0.524,2.621 -1.475,3.571 -0.949,0.951 -2.217,1.474 -3.568,1.474 m -8.459,17.914 c -1.904,0 -3.695,-0.74 -5.043,-2.088 l -21.033,-21.033 c -1.348,-1.348 -2.088,-3.139 -2.088,-5.043 0,-1.906 0.74,-3.695 2.088,-5.043 l 11.078,-11.078 c 4.146,-4.146 9.662,-6.432 15.527,-6.432 h 55.797 c 5.865,0 11.381,2.286 15.527,6.432 l 31.596,31.598 c 4.148,4.146 6.432,9.66 6.432,15.525 v 44.234 c 0,5.867 -2.284,11.383 -6.432,15.529 l -3.891,3.894 c -1.347,1.347 -3.136,2.089 -5.043,2.089 -1.904,0 -3.695,-0.742 -5.041,-2.089 l -12.8,-12.803 c -0.284,-0.283 -0.44,-0.66 -0.44,-1.059 0,-0.401 0.156,-0.778 0.44,-1.06 l 1.507,-1.511 c 0.924,-0.925 2.209,-1.456 3.524,-1.456 0.174,0 0.348,0.009 0.521,0.028 0.588,0.061 1.202,0.092 1.821,0.092 4.929,0 10.482,-1.973 13.203,-4.692 6.703,-6.704 6.703,-17.612 0,-24.315 -3.244,-3.244 -7.561,-5.03 -12.158,-5.03 -4.596,0 -8.914,1.786 -12.157,5.029 -1.81,1.812 -4.029,7.125 -4.449,12.148 -0.336,4.033 -2.096,7.828 -4.951,10.684 l -1.975,1.973 c -2.166,2.167 -3.357,5.047 -3.357,8.109 0,3.063 1.191,5.942 3.357,8.107 l 35.391,35.396 c 4.146,4.147 6.432,9.662 6.432,15.526 v 3.629 c 0,5.865 -2.286,11.379 -6.432,15.527 l -26.824,26.823 c -4.147,4.147 -9.66,6.432 -15.526,6.432 h -6.552 c -5.866,0 -11.381,-2.285 -15.528,-6.432 l -8.588,-8.588 c -1.347,-1.347 -2.087,-3.137 -2.087,-5.042 0,-1.905 0.74,-3.695 2.087,-5.042 l 2.944,-2.944 c 3.371,-3.371 7.851,-5.227 12.619,-5.226 l 11.471,0.13 c 4.672,0 9.076,-1.809 12.4,-5.095 3.33,-3.292 5.24,-7.866 5.24,-12.548 v -0.879 c 0,-4.005 1.418,-7.907 3.994,-10.985 3.209,-3.834 5.366,-9.128 5.366,-11.668 0,-9.481 -7.713,-17.195 -17.194,-17.195 -9.48,0 -17.193,7.714 -17.193,17.195 0,2.54 2.156,7.834 5.365,11.669 2.574,3.078 3.992,6.979 3.992,10.984 v 0.875 c 0,0.525 -0.213,1.038 -0.586,1.407 -0.373,0.368 -0.867,0.571 -1.39,0.571 l -10.61,-0.121 c -9.509,0 -18.451,3.705 -25.177,10.431 l -2.319,2.319 c -1.347,1.347 -3.138,2.089 -5.043,2.089 -1.904,0 -3.695,-0.742 -5.043,-2.09 l -2.148,-2.147 C 74.579,-69.006 65.708,-72.71 56.272,-72.763 l -40.15,-0.226 c -5.455,0 -10.584,2.124 -14.441,5.982 l -0.616,0.615 c -2.822,2.822 -6.569,4.576 -10.551,4.94 -4.961,0.452 -10.209,2.672 -11.999,4.461 -3.243,3.243 -5.029,7.561 -5.029,12.158 0,4.596 1.786,8.913 5.029,12.156 3.243,3.243 7.561,5.03 12.157,5.03 4.597,0 8.915,-1.787 12.157,-5.03 1.803,-1.8 4.022,-7.088 4.455,-12.088 0.346,-4.013 2.104,-7.789 4.947,-10.632 l 0.622,-0.623 c 0.839,-0.838 1.957,-1.301 3.144,-1.301 l 39.359,0.222 c 5.819,0.033 11.29,2.317 15.403,6.431 l 29.457,29.459 c 1.347,1.347 2.09,3.138 2.09,5.042 0,1.905 -0.743,3.696 -2.09,5.042 L 72.253,16.84 c -4.106,4.106 -9.565,6.389 -15.369,6.431 L 0.876,23.672 c -5.865,0 -11.38,-2.284 -15.527,-6.431 L -26.85,5.04 c -4.102,-4.102 -6.361,-9.556 -6.361,-15.356 v -20.488 c 0,-9.513 -3.705,-18.456 -10.431,-25.181 l -24.611,-24.611 c -0.599,-0.599 -0.929,-1.396 -0.929,-2.243 0,-0.151 0.066,-0.263 0.167,-0.32 5.24,-2.946 9.191,-9.464 9.191,-15.161 0,-9.481 -7.712,-17.195 -17.193,-17.195 -9.48,0 -17.192,7.714 -17.192,17.195 0,3.921 2.912,10.413 7.618,14.065 1.106,0.858 1.74,2.151 1.74,3.547 v 0.203 c 0,3.527 1.373,6.844 3.868,9.339 l 25.671,25.67 c 4.147,4.148 6.432,9.663 6.432,15.527 v 22.225 c 0,4.126 -1.607,8.005 -4.525,10.923 l -1.583,1.582 c -4.147,4.148 -9.661,6.431 -15.527,6.431 h -18.456 c -5.867,0 -11.383,-2.284 -15.53,-6.434 l -18.215,-18.223 c -3.432,-3.434 -5.322,-7.999 -5.322,-12.853 v -16.363 c 0,-9.512 -3.704,-18.455 -10.43,-25.181 l -12.408,-12.408 c -0.81,-0.809 -1.256,-1.886 -1.256,-3.031 0,-0.151 0.066,-0.262 0.167,-0.32 5.24,-2.946 9.191,-9.464 9.191,-15.161 0,-9.481 -7.712,-17.195 -17.193,-17.195 -9.48,0 -17.193,7.714 -17.193,17.195 0,3.921 2.913,10.413 7.618,14.065 1.106,0.858 1.741,2.151 1.741,3.547 v 0.203 c 0,3.825 1.489,7.423 4.195,10.128 l 15.658,15.658 c 2.735,2.735 4.241,6.37 4.241,10.237 0,3.932 -3.199,7.131 -7.131,7.131 -3.798,0 -7.369,-1.479 -10.054,-4.164 l -22.563,-22.563 c -4.148,-4.148 -6.432,-9.662 -6.432,-15.527 v -18.365 c 0,-5.865 2.284,-11.381 6.432,-15.529 l 16.448,-16.45 c 1.96,-1.961 4.567,-3.04 7.339,-3.04 h 0.874 c 4.006,0 7.907,1.418 10.985,3.994 3.835,3.21 9.129,5.366 11.668,5.366 9.481,0 17.193,-7.714 17.193,-17.195 0,-9.481 -7.712,-17.194 -17.193,-17.194 -2.776,0 -8.32,2.308 -12.151,5.744 -2.599,2.331 -5.951,3.614 -9.438,3.614 h -0.723 c -0.51,0 -0.925,-0.415 -0.925,-0.925 v -2.006 c 0,-2.804 1.093,-5.441 3.078,-7.424 l 6.258,-6.251 c 4.146,-4.141 9.657,-6.421 15.517,-6.421 h 50.977 c 3.932,0 7.131,3.198 7.131,7.13 0,7.175 2.794,13.921 7.868,18.996 l 6.821,6.821 c 6.727,6.727 15.669,10.432 25.181,10.432 H 2.522 c 5.866,0 11.379,2.285 15.526,6.432 l 21.217,21.22 c 6.675,6.676 15.552,10.38 24.994,10.43 l 10.967,0.057 c 4.009,0.022 7.906,1.464 10.972,4.06 3.844,3.257 9.178,5.444 11.746,5.444 9.481,0 17.194,-7.712 17.194,-17.193 0,-9.481 -7.713,-17.195 -17.194,-17.195 -2.509,0 -7.765,2.124 -11.59,5.286 -3.066,2.534 -6.937,3.929 -10.906,3.929 l -10.279,-0.054 c -5.82,-0.031 -11.293,-2.315 -15.408,-6.431 l -21.223,-21.224 c -6.726,-6.727 -15.668,-10.432 -25.182,-10.432 h -39.067 c -5.866,0 -11.38,-2.285 -15.527,-6.432 l -4.375,-4.374 c -3.311,-3.312 -5.135,-7.714 -5.135,-12.397 0,-5.865 2.285,-11.379 6.432,-15.526 l 18.806,-18.807 c 4.148,-4.147 9.662,-6.432 15.527,-6.432 h 46.07 c 5.865,0 11.381,2.285 15.527,6.432 l 24.073,24.073 c 3.992,3.992 9.298,6.191 14.945,6.191 5.646,0 10.955,-2.199 14.947,-6.191 l 11.699,-11.7 c 1.955,-1.955 3.032,-4.555 3.032,-7.318 0,-2.766 -1.077,-5.366 -3.034,-7.319 l -0.132,-0.134 c -0.965,-0.965 -1.446,-2.342 -1.291,-3.692 0.671,-5.91 -1.813,-12.33 -4.604,-15.121 -3.244,-3.242 -7.561,-5.029 -12.158,-5.029 -4.596,0 -8.914,1.787 -12.156,5.029 -6.704,6.703 -6.704,17.611 -0.002,24.314 3.132,3.133 7.632,4.93 12.347,4.93 h 0.178 l -3.783,3.783 c -1.348,1.348 -3.137,2.088 -5.043,2.088 m -15.057,-66.386 -30.381,30.38 h -70.763 l -36.259,36.26 h -78.27 l -24.949,24.92 v 18.367 l -30.509,30.512 v 49.539 l 42.337,42.337 h 16.605 c 1.603,0 2.907,1.304 2.907,2.907 v 6.935 l 39.145,39.164 h 49.634 l 9.81,-9.811 c 1.084,-1.084 2.526,-1.68 4.059,-1.68 1.534,0 2.976,0.596 4.06,1.68 l 22.401,22.402 87.021,-0.623 47.162,-47.162 h 31.234 l 48.866,-48.865 v -34.801 l -8.414,-8.413 c -2.78,-2.781 -2.78,-7.305 0,-10.087 l 14.912,-14.914 v -75.409 l -53.639,-53.638 z"
         style="fill:#ffffff;fill-opacity:1;fill-rule:nonzero;stroke:none"
         id="path2186" /></g><text
       xml:space="preserve"
       style="font-style:normal;font-weight:normal;font-size:58.4032px;line-height:1.25;font-family:sans-serif;fill:#000000;fill-opacity:1;stroke:none;stroke-width:1.46009"
       x="111.97691"
       y="-238.95377"
       id="text896"
       transform="scale(1,-1)"><tspan
         sodipodi:role="line"
         id="tspan894"
         x="111.97691"
         y="-238.95377"
         style="font-style:normal;font-variant:normal;font-weight:normal;font-stretch:normal;font-size:58.4032px;font-family:Exo;-inkscape-font-specification:'Exo, Normal';font-variant-ligatures:normal;font-variant-caps:normal;font-variant-numeric:normal;font-variant-east-asian:normal;fill:#ffffff;fill-opacity:1;stroke-width:1.46009">BIT <tspan
   style="font-style:normal;font-variant:normal;font-weight:600;font-stretch:normal;font-size:58.4032px;font-family:Exo;-inkscape-font-specification:'Exo, Semi-Bold';font-variant-ligatures:normal;font-variant-caps:normal;font-variant-numeric:normal;font-variant-east-asian:normal;stroke-width:1.46009"
   id="tspan898">AI</tspan></tspan></text></g></svg>
