<svg xmlns="http://www.w3.org/2000/svg" xmlns:xlink="http://www.w3.org/1999/xlink" preserveAspectRatio="xMidYMid" width="1092" height="1093" viewBox="0 0 1092 1093">
  <defs>
    <style>
      .cls-1 {
        fill: #000;
      }

      .cls-1, .cls-2 {
        fill-rule: evenodd;
      }

      .cls-2 {
        fill: #fff;
      }
    </style>
  </defs>
  <g>
    <path d="M505.000,646.000 C505.000,646.000 470.000,645.667 449.000,643.000 C428.000,640.333 427.667,628.667 430.000,618.000 C432.333,607.333 443.000,597.000 443.000,597.000 C443.000,597.000 438.000,596.000 438.000,585.000 C438.000,574.000 450.000,556.000 450.000,556.000 C450.000,556.000 424.333,542.667 409.000,515.000 C393.667,487.333 395.000,457.333 398.000,438.000 C401.000,418.667 407.000,414.000 407.000,414.000 C407.000,414.000 397.000,397.667 397.000,386.000 C397.000,375.313 396.677,367.156 400.000,359.000 C403.667,350.000 407.333,343.000 407.000,334.000 C406.667,325.000 412.000,310.000 412.000,310.000 C412.000,310.000 402.000,294.333 387.000,286.000 C372.000,277.667 351.333,271.333 341.000,260.000 C330.667,248.667 321.000,230.667 317.000,216.000 C313.000,201.333 314.000,191.000 314.000,191.000 C314.000,191.000 308.333,182.000 307.000,175.000 C305.667,168.000 303.333,153.000 308.000,148.000 C312.667,143.000 320.333,142.667 326.000,151.000 C331.667,159.333 342.000,176.667 353.000,186.000 C364.000,195.333 385.000,207.333 395.000,217.000 C405.000,226.667 410.922,232.329 425.000,249.000 C437.667,264.000 445.000,271.667 454.000,273.000 C460.668,273.988 465.333,268.667 466.000,263.000 C466.667,257.333 469.667,234.333 475.000,213.000 C480.333,191.667 493.667,161.667 495.000,149.000 C496.333,136.333 497.000,114.000 504.000,114.000 C511.000,114.000 516.667,115.333 520.000,125.000 C523.333,134.667 522.000,145.000 522.000,145.000 C522.000,145.000 536.000,170.667 539.000,183.000 C543.002,199.455 544.333,214.667 540.000,225.000 C535.667,235.333 528.333,244.000 525.000,251.000 C521.008,259.384 517.000,279.000 517.000,279.000 C517.000,279.000 527.000,281.333 535.000,288.000 C543.000,294.667 549.000,312.000 549.000,312.000 C549.000,312.000 584.000,286.667 619.000,284.000 C654.000,281.333 689.000,293.333 717.000,320.000 C745.000,346.667 760.667,385.333 764.000,402.000 C767.333,418.667 767.000,430.000 767.000,430.000 C767.000,430.000 781.667,438.333 784.000,459.000 C786.333,479.667 779.333,501.333 767.000,519.000 C754.667,536.667 747.000,544.000 747.000,544.000 C747.000,544.000 747.000,561.000 742.000,576.000 C737.000,591.000 724.000,602.333 714.000,607.000 C704.000,611.667 686.000,625.000 676.000,632.000 C666.000,639.000 658.667,642.333 642.000,642.000 C625.333,641.667 605.000,642.000 605.000,642.000 C605.000,642.000 586.667,659.667 572.000,662.000 C557.333,664.333 533.000,665.000 521.000,658.000 C509.000,651.000 505.000,646.000 505.000,646.000 Z" class="cls-1"/>
    <path d="M477.000,383.000 C477.000,383.000 468.333,364.000 464.000,360.000 C459.667,356.000 457.333,357.333 455.000,354.000 C452.667,350.667 449.000,344.667 439.000,336.000 C429.000,327.333 423.333,321.667 423.000,316.000 C422.667,310.333 421.636,297.693 400.000,272.000 C389.333,259.333 363.123,246.912 345.000,227.000 C323.701,203.598 312.404,186.227 309.000,172.000 C306.816,162.871 307.582,146.831 316.000,148.000 C328.000,149.667 331.232,175.617 358.000,194.000 C385.667,213.000 396.929,221.698 412.000,238.000 C428.333,255.667 442.000,276.667 454.000,276.000 C466.000,275.333 467.667,272.000 470.000,261.000 C472.333,250.000 477.000,215.333 487.000,190.000 C497.000,164.667 502.667,156.333 504.000,143.000 C505.333,129.667 504.333,117.333 507.000,117.000 C509.667,116.667 516.667,120.000 518.000,130.000 C519.333,140.000 520.000,148.000 520.000,148.000 C520.000,148.000 536.955,176.075 539.000,203.000 C541.000,229.333 529.000,236.333 524.000,246.000 C519.000,255.667 513.000,281.000 513.000,281.000 C513.000,281.000 530.667,284.667 537.000,294.000 C543.333,303.333 545.367,309.029 546.000,314.000 C547.229,323.659 544.967,328.871 545.000,336.000 C545.041,345.022 557.333,363.690 560.000,377.000 C562.929,391.617 565.394,411.036 563.000,419.000 C561.324,424.575 554.067,439.626 538.227,442.870 C524.701,445.639 500.405,449.434 480.000,436.000 C459.768,422.680 464.667,415.000 458.000,417.000 C453.716,418.285 447.480,421.779 440.000,417.000 C431.653,411.667 420.326,389.061 415.017,371.764 C412.693,364.195 410.714,357.643 412.000,354.000 C416.000,342.667 423.000,352.333 425.000,356.000 C427.000,359.667 435.740,369.189 441.000,360.000 C445.452,352.223 434.000,349.667 433.000,345.000 C431.666,338.773 433.715,336.894 438.000,341.000 C446.000,348.667 445.333,351.667 449.000,358.000 C452.663,364.327 458.333,364.333 464.000,370.000 C466.849,372.849 471.452,379.452 474.000,382.000 C476.520,384.520 477.000,383.000 477.000,383.000 ZM532.000,426.000 C532.000,426.000 542.000,419.333 539.000,418.000 C536.000,416.667 523.735,419.882 524.000,422.000 C524.333,424.667 532.000,426.000 532.000,426.000 ZM543.000,444.000 C543.000,444.000 530.333,461.333 507.000,466.000 C483.667,470.667 469.000,461.333 460.000,455.000 C451.000,448.667 443.333,446.333 439.000,450.000 C434.667,453.667 431.667,468.000 435.000,481.000 C438.333,494.000 445.000,514.667 479.000,528.000 C513.000,541.333 551.594,541.131 562.000,540.000 C577.333,538.333 588.000,528.000 588.000,528.000 C588.000,528.000 584.333,540.333 575.000,544.000 C565.667,547.667 564.000,548.000 564.000,548.000 C564.000,548.000 572.333,557.000 571.000,567.000 C569.289,579.831 566.333,584.667 543.000,596.000 C519.667,607.333 512.542,616.332 513.000,639.000 C513.392,658.393 543.333,661.000 566.000,658.000 C578.713,656.317 600.333,642.000 602.000,637.000 C603.667,632.000 604.000,610.000 604.000,610.000 C604.000,610.000 607.333,622.333 611.000,628.000 C614.667,633.667 618.333,636.667 621.000,637.000 C623.667,637.333 656.333,638.333 677.000,625.000 C697.667,611.667 700.667,608.000 712.000,602.000 C723.333,596.000 733.667,590.667 721.000,587.000 C708.333,583.333 700.000,585.000 700.000,585.000 C700.000,585.000 718.491,581.846 729.000,570.000 C747.333,549.333 742.000,543.000 742.000,543.000 C742.000,543.000 757.667,533.000 768.000,512.000 C778.333,491.000 783.000,472.333 780.000,457.000 C777.000,441.667 765.000,432.000 765.000,432.000 C765.000,432.000 767.000,411.333 754.000,381.000 C741.000,350.667 726.000,327.000 691.000,306.000 C656.000,285.000 601.832,290.982 575.000,304.000 C549.517,316.363 549.000,317.000 549.000,317.000 C549.000,317.000 549.107,318.834 549.000,326.000 C548.919,331.424 546.616,334.749 549.000,342.000 C550.258,345.826 559.389,362.988 562.000,375.000 C565.333,390.333 569.064,412.696 565.000,422.000 C557.359,439.495 543.000,444.000 543.000,444.000 ZM684.000,567.000 C684.000,567.000 647.000,548.000 640.000,514.000 C633.000,480.000 655.333,457.667 675.000,442.000 C694.667,426.333 705.000,423.333 713.000,422.000 C721.000,420.667 728.000,423.000 728.000,423.000 C728.000,423.000 724.000,416.333 717.000,416.000 C710.000,415.667 703.000,416.000 703.000,416.000 C703.000,416.000 709.333,407.000 712.000,390.000 C714.667,373.000 709.000,355.000 709.000,355.000 C709.000,355.000 709.000,375.667 706.000,386.000 C703.000,396.333 689.000,421.000 689.000,421.000 C689.000,421.000 656.333,444.000 641.000,472.000 C625.667,500.000 625.333,528.000 627.000,537.000 C628.667,546.000 644.333,561.667 657.000,565.000 C669.667,568.333 684.000,567.000 684.000,567.000 ZM526.000,598.000 C526.000,598.000 517.723,584.462 484.000,584.000 C459.667,583.667 440.667,611.000 441.000,622.000 C441.243,630.024 447.333,638.000 459.000,639.000 C470.667,640.000 484.333,641.000 494.000,638.000 C503.667,635.000 507.859,627.568 511.000,621.000 C514.667,613.333 516.333,606.667 520.000,603.000 C523.837,599.163 526.000,598.000 526.000,598.000 Z" class="cls-2"/>
  </g>
  <path d="M1010.992,855.259 L993.210,855.259 L960.052,808.264 L960.052,799.420 C979.971,796.253 989.931,788.579 989.931,776.397 C989.931,766.749 984.392,761.926 973.315,761.926 L943.582,761.926 L943.582,855.259 L930.100,855.259 L930.100,750.743 L974.554,750.743 C994.376,750.743 1004.287,759.100 1004.287,775.812 C1004.287,789.407 994.595,799.469 975.210,805.998 L1010.992,855.259 ZM840.828,750.743 L908.966,750.743 L908.966,761.706 L854.310,761.706 L854.310,796.789 L906.416,796.789 L906.416,807.752 L854.310,807.752 L854.310,844.296 L910.060,844.296 L910.060,855.259 L840.828,855.259 L840.828,750.743 ZM773.783,855.259 L731.516,855.259 L731.516,750.743 L773.783,750.743 C806.333,750.743 822.609,767.213 822.609,800.151 C822.609,836.890 806.333,855.259 773.783,855.259 ZM770.868,761.706 L744.998,761.706 L744.998,844.296 L770.868,844.296 C796.374,844.296 809.128,829.581 809.128,800.151 C809.128,774.522 796.374,761.706 770.868,761.706 ZM690.706,822.370 L655.871,822.370 L659.588,811.406 L685.604,811.406 L666.365,764.776 L629.126,855.259 L615.134,855.259 L659.369,750.743 L674.309,750.743 L718.762,855.259 L704.552,855.259 L690.706,822.370 ZM588.899,807.752 L525.862,807.752 L525.862,855.259 L512.380,855.259 L512.380,750.743 L525.862,750.743 L525.862,796.789 L588.899,796.789 L588.899,750.743 L602.381,750.743 L602.381,855.259 L588.899,855.259 L588.899,807.752 ZM445.991,796.789 L460.858,796.789 C483.059,796.789 494.161,806.290 494.161,825.293 C494.161,845.758 480.703,855.990 453.789,855.990 C441.108,855.990 429.303,854.529 418.371,851.605 L418.371,839.180 C429.303,843.079 441.108,845.027 453.789,845.027 C471.716,845.027 480.680,838.449 480.680,825.293 C480.680,814.087 474.072,808.483 460.858,808.483 L445.991,808.483 C424.176,808.483 413.270,798.981 413.270,779.978 C413.270,760.001 427.237,750.012 455.173,750.012 C467.318,750.012 478.614,751.474 489.060,754.397 L489.060,766.822 C478.614,762.925 467.318,760.975 455.173,760.975 C436.226,760.975 426.752,767.310 426.752,779.978 C426.752,791.186 433.165,796.789 445.991,796.789 ZM280.273,759.367 L280.273,855.259 L273.350,855.259 L273.350,750.743 L283.188,750.743 L352.784,841.519 L352.784,750.743 L359.707,750.743 L359.707,855.259 L353.513,855.259 L280.273,759.367 ZM244.200,855.259 L195.884,804.244 L195.884,796.058 L241.212,750.743 L250.977,750.743 L202.807,799.493 L257.099,855.259 L244.200,855.259 ZM181.309,750.743 L188.961,750.743 L188.961,855.259 L181.309,855.259 L181.309,750.743 ZM109.090,798.981 L131.972,798.981 C151.259,798.981 160.904,807.265 160.904,823.831 C160.904,845.271 147.688,855.990 121.260,855.990 C108.093,855.990 96.045,854.529 85.114,851.605 L85.114,844.296 C96.045,847.707 108.093,849.412 121.260,849.412 C142.587,849.412 153.252,840.886 153.252,823.831 C153.252,812.137 146.158,806.290 131.972,806.290 L109.090,806.290 C89.705,806.290 80.012,797.764 80.012,780.709 C80.012,760.244 93.979,750.012 121.916,750.012 C133.576,750.012 144.871,751.474 155.802,754.397 L155.802,760.975 C144.871,758.052 133.576,756.590 121.916,756.590 C99.081,756.590 87.664,764.630 87.664,780.709 C87.664,792.891 94.806,798.981 109.090,798.981 Z" class="cls-1"/>
</svg>
