<?xml version="1.0" encoding="UTF-8" standalone="no"?>
<svg
   xmlns:dc="http://purl.org/dc/elements/1.1/"
   xmlns:cc="http://creativecommons.org/ns#"
   xmlns:rdf="http://www.w3.org/1999/02/22-rdf-syntax-ns#"
   xmlns:svg="http://www.w3.org/2000/svg"
   xmlns="http://www.w3.org/2000/svg"
   xmlns:sodipodi="http://sodipodi.sourceforge.net/DTD/sodipodi-0.dtd"
   xmlns:inkscape="http://www.inkscape.org/namespaces/inkscape"
   version="1.1"
   id="svg2142"
   xml:space="preserve"
   width="500"
   height="500"
   viewBox="0 0 500 500"
   sodipodi:docname="bit-logo-net.svg"
   inkscape:version="1.0.1 (3bc2e813f5, 2020-09-07)"><metadata
     id="metadata2148"><rdf:RDF><cc:Work
         rdf:about=""><dc:format>image/svg+xml</dc:format><dc:type
           rdf:resource="http://purl.org/dc/dcmitype/StillImage" /><dc:title></dc:title></cc:Work></rdf:RDF></metadata><defs
     id="defs2146"><clipPath
       clipPathUnits="userSpaceOnUse"
       id="clipPath2160"><path
         d="M 0,566.93 H 566.93 V 0 H 0 Z"
         id="path2158" /></clipPath><clipPath
       clipPathUnits="userSpaceOnUse"
       id="clipPath2168"><path
         d="M 45,311.564 H 562 V -54.0703 H 45 Z"
         id="path2166" /></clipPath><clipPath
       clipPathUnits="userSpaceOnUse"
       id="clipPath2182"><path
         d="M 0,566.93 H 566.93 V 0 H 0 Z"
         id="path2180" /></clipPath><clipPath
       clipPathUnits="userSpaceOnUse"
       id="clipPath1176"><path
         d="M 0,1700.787 H 1700.788 V 0 H 0 Z"
         id="path1174" /></clipPath><clipPath
       clipPathUnits="userSpaceOnUse"
       id="clipPath3294"><path
         d="M 0,1700.787 H 1700.788 V 0 H 0 Z"
         id="path3292" /></clipPath><clipPath
       clipPathUnits="userSpaceOnUse"
       id="clipPath864"><path
         d="M 0,1324.613 H 764.962 V 0 H 0 Z"
         id="path862" /></clipPath></defs><sodipodi:namedview
     pagecolor="#1c1c1c"
     bordercolor="#666666"
     borderopacity="1"
     objecttolerance="10"
     gridtolerance="10"
     guidetolerance="10"
     inkscape:pageopacity="0"
     inkscape:pageshadow="2"
     inkscape:window-width="1920"
     inkscape:window-height="983"
     id="namedview2144"
     showgrid="false"
     inkscape:showpageshadow="false"
     inkscape:zoom="0.77641678"
     inkscape:cx="432.56681"
     inkscape:cy="223.74074"
     inkscape:window-x="1920"
     inkscape:window-y="27"
     inkscape:window-maximized="1"
     inkscape:current-layer="g2150"
     inkscape:document-rotation="0" /><g
     id="g2150"
     inkscape:groupmode="layer"
     inkscape:label="bit-ai-logo"
     transform="matrix(1.3333333,0,0,-1.3333333,0,755.90667)"><text
       xml:space="preserve"
       style="font-style:normal;font-weight:normal;font-size:58.4032px;line-height:1.25;font-family:sans-serif;fill:#000000;fill-opacity:1;stroke:none;stroke-width:1.46009"
       x="76.725563"
       y="-238.95377"
       id="text896"
       transform="scale(1,-1)"><tspan
         id="tspan894"
         x="76.725563"
         y="-238.95377"
         style="font-style:normal;font-variant:normal;font-weight:normal;font-stretch:normal;font-size:58.4032px;font-family:Exo;-inkscape-font-specification:'Exo, Normal';font-variant-ligatures:normal;font-variant-caps:normal;font-variant-numeric:normal;font-variant-east-asian:normal;fill:#ffffff;fill-opacity:1;stroke-width:1.46009"
         sodipodi:role="line">BIT <tspan
   style="font-weight:bold"
   id="tspan1172">.NET</tspan></tspan></text><g
       id="g884"
       transform="matrix(2.659435,0,0,-2.659435,27.862469,549.14838)"><g
         id="g1344"
         transform="matrix(0.60954456,0,0,0.60954456,141.43444,-30.341239)"><g
           id="g966"
           transform="matrix(0.35277777,0,0,-0.35277777,-127.77533,145.39852)"><path
             d="m 0,0 v 0.214 c 5.182,0 10.363,-0.101 15.539,0.039 2.979,0.08 5.968,0.325 8.823,1.42 1.894,0.725 2.95,1.952 3.021,3.966 0.041,1.146 -0.086,2.3 -0.037,3.446 0.078,1.727 -0.607,3.283 -1.335,4.7 -2.277,4.42 -6.023,7.283 -10.534,9.217 -1.727,0.74 -3.469,1.394 -5.332,1.758 -1.893,0.37 -3.747,0.923 -5.695,0.949 -0.971,0.014 -1.942,0.043 -2.913,0.074 -2.775,0.092 -5.541,-0.123 -8.223,-0.785 -2.164,-0.534 -4.267,-1.349 -6.35,-2.161 -2.356,-0.919 -4.478,-2.282 -6.383,-3.934 -3.228,-2.798 -6.061,-5.962 -8.45,-9.512 -0.455,-0.674 -0.973,-1.336 -1.27,-2.08 -0.855,-2.155 -0.542,-3.977 1.832,-5.102 1.887,-0.896 3.895,-0.975 5.837,-1.416 1.876,-0.426 3.855,-0.489 5.792,-0.539 C -10.453,0.119 -5.227,0.078 0,0 m -48.537,-39.101 c 0,-0.506 10e-4,-1.012 0,-1.518 -0.02,-5.739 0.004,-11.479 -0.083,-17.217 -0.029,-1.935 -0.249,-3.879 -0.541,-5.795 -0.451,-2.96 -2.611,-4.767 -5.652,-4.849 -1.619,-0.044 -3.242,-0.062 -4.859,-0.002 -2.224,0.083 -4.039,0.852 -4.73,3.216 -0.45,1.54 -1.034,3.065 -1.274,4.639 -0.347,2.278 -0.313,4.613 -0.664,6.89 -0.829,5.376 -0.187,10.82 -0.885,16.196 -0.031,0.228 -0.039,0.46 -0.046,0.691 -0.226,6.516 -0.395,13.035 -0.694,19.547 -0.183,3.971 -0.56,7.933 -0.859,11.899 -0.175,2.305 -0.313,4.616 -0.571,6.913 -0.21,1.875 -0.567,3.733 -0.871,5.598 -0.228,1.405 -0.386,2.829 -0.724,4.207 -1.065,4.348 -2.412,8.574 -5.971,11.643 -1.697,1.463 -3.713,2.254 -5.893,2.75 -3.021,0.691 -6.072,0.48 -9.12,0.5 -2.87,0.02 -5.735,-0.049 -8.567,-0.555 -4.326,-0.773 -7.837,-2.819 -9.823,-6.875 -0.756,-1.545 -1.254,-3.253 -1.628,-4.941 -1.08,-4.881 -1.409,-9.848 -1.642,-14.84 -0.86,-18.459 -0.251,-36.928 -0.439,-55.391 -0.035,-3.515 -0.005,-7.035 -0.005,-10.552 v -1.33 c -1.112,-0.313 -15.661,-0.425 -18.253,-0.153 -0.019,0.463 -0.057,0.951 -0.057,1.441 -0.001,18.097 -0.002,36.194 0.004,54.291 0.003,6.758 -0.043,13.515 0.058,20.271 0.105,6.939 0.289,13.878 0.59,20.812 0.117,2.711 0.513,5.432 1.042,8.097 0.285,1.444 0.56,2.987 1.654,4.192 0.89,0.98 1.512,1.207 2.777,0.918 3.339,-0.766 5.658,-2.871 7.504,-5.608 0.743,-1.101 1.419,-2.246 2.146,-3.357 0.251,-0.383 0.53,-0.762 0.86,-1.073 0.775,-0.733 1.367,-0.884 2.224,-0.252 1.279,0.944 2.474,2.013 3.627,3.113 2.264,2.159 4.629,4.198 7.426,5.616 1.993,1.01 4.08,1.815 6.26,2.42 4.224,1.176 8.5,1.688 12.858,1.367 2.749,-0.201 5.464,-0.605 8.156,-1.316 3.304,-0.873 6.448,-2.064 9.399,-3.757 4.371,-2.505 8.049,-5.731 10.364,-10.308 1.081,-2.134 1.747,-4.4 2.253,-6.743 0.496,-2.282 1.194,-4.527 1.926,-6.748 0.395,-1.2 0.938,-2.383 1.608,-3.452 0.724,-1.154 1.87,-1.162 2.908,-0.27 2.006,1.722 3.453,3.901 4.867,6.081 2.85,4.388 5.844,8.665 9.633,12.299 3.281,3.146 6.855,5.905 10.87,8.109 2.905,1.596 5.932,2.867 9.048,3.92 1.768,0.596 3.655,0.832 5.471,1.295 3.658,0.934 7.382,1.099 11.125,0.972 2.484,-0.086 4.939,-0.431 7.396,-0.88 2.317,-0.424 4.557,-1.044 6.76,-1.803 3.113,-1.073 6.07,-2.524 8.847,-4.303 4.454,-2.853 8.248,-6.424 11.29,-10.752 1.742,-2.476 3.112,-5.172 4.297,-7.963 1.244,-2.922 1.919,-6.006 2.549,-9.093 0.303,-1.486 0.449,-3.028 0.466,-4.547 0.072,-6.293 0.068,-12.588 0.09,-18.883 0,-0.311 -0.067,-0.623 -0.12,-1.117 -0.637,0 -1.225,0.001 -1.813,0 -17.681,-0.03 -35.36,-0.034 -53.041,-0.108 -3.837,-0.015 -7.689,-0.107 -11.503,-0.488 -2.39,-0.24 -4.854,-0.427 -7.113,-1.504 -1.609,-0.766 -2.453,-2.002 -2.712,-3.707 -0.255,-1.692 0.019,-3.381 0.608,-4.906 0.987,-2.547 2.166,-5.034 3.452,-7.446 2.691,-5.042 6.183,-9.508 10.273,-13.488 2.498,-2.432 5.467,-4.16 8.815,-5.138 1.269,-0.371 2.623,-0.462 3.945,-0.633 0.918,-0.12 1.846,-0.154 2.767,-0.238 1.847,-0.167 3.686,-0.252 5.539,0.029 1,0.152 2.033,0.084 3.045,0.173 2.116,0.188 4.257,0.256 6.333,0.659 4.057,0.787 8.01,1.966 11.764,3.756 0.694,0.33 1.42,0.664 2.169,0.798 2.01,0.362 3.492,-0.635 4.576,-2.181 1.181,-1.686 2.28,-3.438 2.973,-5.408 0.443,-1.261 0.454,-2.542 0.207,-3.822 -0.074,-0.371 -0.375,-0.719 -0.626,-1.032 -1.036,-1.289 -2.499,-1.986 -3.957,-2.618 -2.218,-0.964 -4.478,-1.836 -6.751,-2.667 -2.363,-0.866 -4.752,-1.669 -7.151,-2.435 -0.96,-0.305 -1.98,-0.429 -2.966,-0.649 -0.804,-0.179 -1.596,-0.408 -2.402,-0.561 -1.714,-0.326 -3.436,-0.621 -5.157,-0.916 -0.318,-0.055 -0.642,-0.082 -0.965,-0.084 -2.915,-0.014 -5.837,-0.141 -8.744,0.008 -2.006,0.102 -3.992,0.57 -5.982,0.908 -0.992,0.168 -1.966,0.462 -2.961,0.602 -2.688,0.374 -5.114,1.504 -7.494,2.68 -4.669,2.306 -8.746,5.516 -12.689,8.865 -2.819,2.394 -5.261,5.186 -7.672,7.999 -2.708,3.16 -5.512,6.237 -8.271,9.356 -0.205,0.233 -0.363,0.506 -0.543,0.76 -0.112,-0.074 -0.224,-0.149 -0.335,-0.224"
             style="fill:#ffffff;fill-opacity:1;fill-rule:evenodd;stroke:none"
             id="path968" /></g><g
           id="g970"
           transform="matrix(0.35277777,0,0,-0.35277777,-172.6167,193.5589)"><path
             d="m 0,0 c -4.562,3.951 -8.094,8.821 -11.945,13.407 -3.297,3.925 -6.223,8.119 -9.054,12.391 -3.431,5.176 -6.596,10.511 -9.489,15.997 -1.722,3.268 -3.211,6.658 -4.808,9.99 -2.254,4.702 -4.586,9.345 -7.839,13.481 -1.347,1.712 -2.725,3.257 -4.633,4.376 -1.685,0.986 -2.523,2.745 -3.226,4.496 -0.53,1.317 -1.056,2.655 -1.067,4.122 -0.003,0.45 -0.222,0.797 -0.71,0.896 v 7.778 c 0.65,0.034 0.604,0.575 0.749,0.999 0.31,0.912 0.624,1.825 0.988,2.715 0.155,0.376 0.37,0.786 0.679,1.03 1.82,1.439 2.218,3.502 2.585,5.605 0.349,1.999 0.771,3.985 1.138,5.981 0.126,0.679 0.188,1.371 0.272,2.058 0.244,2.01 0.48,4.02 0.733,6.028 0.052,0.412 0.209,0.812 0.24,1.224 0.236,3.038 0.412,6.082 0.686,9.115 0.27,2.988 0.634,5.966 0.955,8.948 0.114,1.056 0.181,2.121 0.348,3.17 0.394,2.457 0.819,4.908 1.264,7.357 0.336,1.849 0.636,3.711 1.107,5.527 0.875,3.379 1.809,6.745 2.818,10.084 1.043,3.459 2.153,6.901 3.327,10.317 1.041,3.025 2.188,6.012 3.568,8.908 1.138,2.391 2.022,4.904 3.194,7.275 1.539,3.114 3.163,6.194 4.908,9.196 3.496,6.013 7.681,11.495 12.944,16.103 1.445,1.266 2.848,2.58 4.277,3.864 0.33,0.298 0.69,0.564 1.05,0.855 0.408,-0.588 -0.061,-0.871 -0.255,-1.172 -1.893,-2.924 -3.833,-5.817 -5.719,-8.744 -2.55,-3.958 -5.136,-7.895 -7.247,-12.116 -1.041,-2.081 -2.204,-4.101 -3.21,-6.197 -1.086,-2.263 -2.111,-4.558 -3.056,-6.883 -1.106,-2.716 -2.013,-5.513 -3.157,-8.212 -1.453,-3.428 -2.316,-7.037 -3.423,-10.571 -0.518,-1.654 -0.827,-3.373 -1.25,-5.056 -0.469,-1.868 -0.974,-3.727 -1.433,-5.596 -0.199,-0.808 -0.345,-1.629 -0.474,-2.45 -0.404,-2.55 -0.705,-5.12 -1.203,-7.651 -0.617,-3.131 -0.771,-6.301 -1.103,-9.458 -0.734,-6.95 -1.125,-13.913 -0.994,-20.898 0.038,-2.023 0.195,-4.081 0.614,-6.055 0.617,-2.914 2.13,-5.413 4.228,-7.551 2.304,-2.349 4.751,-4.557 6.682,-7.261 1.594,-2.234 2.426,-4.633 2.001,-7.361 -0.137,-0.879 -0.524,-1.737 -0.89,-2.563 -0.975,-2.208 -2.5,-4.06 -4.06,-5.856 -1.365,-1.573 -2.227,-3.368 -2.679,-5.345 -0.201,-0.876 -0.186,-1.877 0.016,-2.756 0.71,-3.079 1.496,-6.132 2.848,-9.027 1.298,-2.779 2.345,-5.672 3.582,-8.48 1.271,-2.883 2.547,-5.769 3.988,-8.569 2.3,-4.464 4.762,-8.845 7.111,-13.283 2.079,-3.926 4.492,-7.644 6.935,-11.344 C -5.65,10.657 -4.044,8.588 -2.615,6.4 -1.392,4.526 0.009,2.742 0.712,0.564 0.78,0.354 0.975,0.187 1.111,0 Z"
             style="fill:#ffffff;fill-opacity:1;fill-rule:evenodd;stroke:none"
             id="path972" /></g><g
           id="g974"
           transform="matrix(0.35277777,0,0,-0.35277777,-91.683486,70.787752)"><path
             d="m 0,0 c 0.074,-0.165 0.112,-0.357 0.223,-0.49 2.219,-2.659 3.542,-5.714 4.363,-9.076 0.845,-3.455 1.088,-6.933 0.903,-10.443 -0.116,-2.159 -0.441,-4.316 -0.807,-6.452 -0.495,-2.903 -1.055,-5.8 -1.71,-8.671 -0.427,-1.871 -1.042,-3.701 -1.624,-5.533 -0.585,-1.835 -1.173,-3.675 -1.872,-5.469 -1.529,-3.912 -3.07,-7.82 -4.716,-11.683 -1.487,-3.485 -3.076,-6.926 -4.698,-10.352 -2.501,-5.289 -5.203,-10.482 -8.137,-15.543 -2.18,-3.758 -4.557,-7.402 -7.497,-10.626 -1.33,-1.458 -2.808,-2.735 -4.763,-3.364 -1.421,-0.457 -2.613,-0.127 -3.735,0.731 -0.289,0.222 -0.587,0.439 -0.847,0.693 -1.426,1.392 -1.513,3.032 -0.884,4.815 0.636,1.807 1.238,3.626 1.864,5.435 1.309,3.763 2.87,7.424 4.493,11.059 0.95,2.126 1.787,4.305 2.763,6.417 1.831,3.944 3.743,7.849 5.593,11.782 1.306,2.777 2.56,5.578 3.855,8.358 1.308,2.819 2.674,5.613 3.951,8.446 0.943,2.084 1.789,4.212 2.667,6.324 1.193,2.873 2.41,5.739 3.551,8.632 0.633,1.614 1.132,3.281 1.694,4.923 0.596,1.739 1.25,3.462 1.77,5.224 0.58,1.967 1.118,3.938 1.462,5.981 0.378,2.256 0.349,4.505 0.503,6.758 0.05,0.717 0.342,1.416 0.524,2.124 z"
             style="fill:#ffffff;fill-opacity:1;fill-rule:evenodd;stroke:none"
             id="path976" /></g><g
           id="g978"
           transform="matrix(0.35277777,0,0,-0.35277777,-102.52622,136.13846)"><path
             d="m 0,0 c -0.045,-0.55 -0.102,-0.908 -0.101,-1.267 0.032,-12.263 -10e-4,-24.529 0.141,-36.793 0.045,-3.966 0.539,-7.928 0.826,-11.892 0.028,-0.369 0.061,-0.738 0.072,-1.108 0.118,-3.89 0.909,-7.673 1.84,-11.43 0.641,-2.585 1.606,-5.053 2.999,-7.323 1.651,-2.684 3.865,-4.771 6.803,-6.004 1.528,-0.643 3.145,-0.945 4.764,-1.299 1.753,-0.384 3.478,-0.328 5.221,-0.43 2.725,-0.158 5.463,-0.213 8.164,-0.554 1.989,-0.251 3.847,-1.04 4.75,-3.077 0.312,-0.705 0.566,-1.473 0.645,-2.234 0.255,-2.443 0.301,-4.868 -0.84,-7.171 -0.667,-1.346 -1.709,-2.269 -3.001,-2.902 -1.405,-0.693 -2.87,-1.197 -4.477,-1.301 -1.186,-0.076 -2.35,-0.418 -3.528,-0.611 -0.904,-0.15 -1.813,-0.324 -2.725,-0.362 -3.89,-0.159 -7.787,-0.144 -11.624,0.544 -2.477,0.446 -4.948,0.937 -7.366,1.728 -4.191,1.371 -7.8,3.613 -10.816,6.775 -1.78,1.862 -3.115,4.075 -4.239,6.394 -1.574,3.24 -2.42,6.709 -3.238,10.2 -0.509,2.161 -0.777,4.336 -1.125,6.513 -0.529,3.289 -0.769,6.583 -1.005,9.898 -0.857,11.967 -0.596,23.957 -0.902,35.935 -0.088,3.417 -0.319,6.838 -0.665,10.239 -0.193,1.902 -0.568,3.83 -1.494,5.554 -0.504,0.936 -1.153,1.821 -2.355,1.904 -2.754,0.188 -4.372,1.778 -5.454,4.178 -0.579,1.282 -0.494,2.606 -0.575,3.926 -0.103,1.699 0.302,3.313 1.228,4.709 0.983,1.485 2.249,2.75 4.201,2.772 2.035,0.021 3.24,1.215 3.978,2.857 0.693,1.541 1.121,3.186 1.167,4.934 0.073,2.68 0.193,5.369 0.496,8.031 0.463,4.066 2.153,7.447 5.971,9.424 1.873,0.97 3.817,1.763 5.892,2.19 1.791,0.368 3.014,-0.163 3.916,-1.78 0.337,-0.598 0.695,-1.215 0.85,-1.869 0.387,-1.658 0.683,-3.34 0.981,-5.018 0.345,-1.947 0.646,-3.901 0.974,-5.851 0.198,-1.178 0.426,-2.352 0.607,-3.533 0.256,-1.698 0.884,-3.229 1.825,-4.669 0.803,-1.229 1.966,-1.98 3.256,-2.437 1.943,-0.689 3.973,-1.049 6.049,-1.223 2.153,-0.179 4.287,-0.588 6.429,-0.897 1.458,-0.211 2.945,-0.308 4.367,-0.665 2.167,-0.543 4.266,-1.359 5.287,-3.58 C 29.09,9.418 29.416,7.307 28.695,5.134 28.522,4.618 28.428,4.066 28.19,3.585 27.468,2.116 26.134,1.394 24.657,0.94 23.868,0.698 23.03,0.56 22.206,0.504 17.543,0.187 12.881,-0.134 8.201,-0.011 5.981,0.05 3.757,0 1.536,0 Z"
             style="fill:#ffffff;fill-opacity:1;fill-rule:evenodd;stroke:none"
             id="path980" /></g><g
           id="g982"
           transform="matrix(0.35277777,0,0,-0.35277777,-76.320085,89.73922)"><path
             d="m 0,0 c 0,-1.851 0.12,-3.712 -0.037,-5.55 -0.151,-1.773 -0.58,-3.525 -0.9,-5.284 -0.165,-0.905 -0.315,-1.817 -0.543,-2.708 -0.697,-2.713 -1.275,-5.472 -2.183,-8.113 -1.606,-4.667 -3.357,-9.287 -5.563,-13.716 -2.286,-4.591 -4.442,-9.256 -6.918,-13.743 -3.264,-5.916 -6.747,-11.715 -10.215,-17.517 -1.694,-2.833 -3.555,-5.569 -5.382,-8.319 -0.576,-0.867 -1.255,-1.676 -1.953,-2.45 -0.697,-0.772 -1.596,-0.895 -2.476,-0.404 -1.906,1.066 -3.517,2.52 -4.819,4.233 -0.931,1.227 -1.315,2.77 -1.013,4.342 0.433,2.255 0.956,4.489 1.805,6.639 1.323,3.364 2.836,6.638 4.541,9.823 1.597,2.985 3.242,5.944 4.801,8.946 2.251,4.336 4.491,8.678 6.648,13.062 1.046,2.128 1.936,4.338 2.811,6.543 1.068,2.676 2.08,5.375 3.046,8.088 0.769,2.154 1.489,4.331 2.13,6.527 0.439,1.5 0.692,3.055 1.05,4.58 0.314,1.336 0.683,2.662 0.979,4.002 0.21,0.944 0.369,1.899 0.499,2.856 0.248,1.826 0.482,3.654 0.672,5.488 0.113,1.104 0.07,2.225 0.198,3.325 0.262,2.269 0.175,4.529 -0.025,6.791 -0.063,0.738 -0.094,1.479 -0.157,2.216 -0.218,2.472 -0.788,4.86 -1.479,7.247 -0.987,3.411 -2.752,6.466 -4.093,9.71 -0.502,1.216 -0.795,2.552 -0.967,3.862 -0.165,1.269 0.471,1.613 1.574,0.96 1.603,-0.949 2.828,-2.337 3.884,-3.816 2.097,-2.941 4.179,-5.907 6.029,-9.003 1.499,-2.503 2.662,-5.207 3.952,-7.833 1.299,-2.646 2.082,-5.481 2.876,-8.301 0.399,-1.406 0.465,-2.904 0.808,-4.33 C 0.229,5.459 -0.037,2.719 0,0"
             style="fill:#ffffff;fill-opacity:1;fill-rule:evenodd;stroke:none"
             id="path984" /></g><g
           id="g986"
           transform="matrix(0.35277777,0,0,-0.35277777,-75.161845,158.8468)"><path
             d="m 0,0 c -0.327,0.521 -0.574,0.781 -0.667,1.086 -0.648,2.144 -0.638,4.364 -0.652,6.572 -0.019,2.819 -0.016,5.641 0.099,8.456 0.051,1.175 0.353,2.353 0.657,3.497 0.504,1.908 1.006,3.826 1.687,5.674 1.117,3.039 2.295,6.063 3.603,9.026 1.436,3.263 2.991,6.48 4.597,9.665 1.855,3.672 3.796,7.303 5.749,10.925 1.973,3.662 3.999,7.294 6.017,10.93 1.598,2.88 3.199,5.758 4.837,8.614 1.865,3.248 3.771,6.471 5.657,9.705 3.362,5.768 6.729,11.534 10.565,17.004 1.682,2.397 3.368,4.81 5.62,6.729 0.654,0.555 1.39,1.038 2.153,1.434 0.994,0.518 2.135,0.492 3.267,-0.605 0.491,-0.474 0.891,-1.042 1.312,-1.584 0.55,-0.707 0.422,-1.517 0.165,-2.255 -0.599,-1.724 -1.224,-3.442 -1.942,-5.119 C 51.803,97.606 50.797,95.496 49.805,93.379 48.351,90.281 46.89,87.186 45.408,84.1 44.32,81.834 43.202,79.581 42.076,77.334 40.194,73.579 38.292,69.834 36.401,66.084 35.208,63.719 34.037,61.342 32.82,58.987 30.848,55.174 28.843,51.378 26.859,47.572 24.873,43.76 22.922,39.926 20.899,36.133 18.514,31.654 16.101,27.191 13.636,22.758 11.371,18.682 9.033,14.646 6.704,10.609 5.265,8.114 3.808,5.629 2.302,3.176 1.683,2.168 0.915,1.252 0,0"
             style="fill:#ffffff;fill-opacity:1;fill-rule:evenodd;stroke:none"
             id="path988" /></g><g
           id="g990"
           transform="matrix(0.35277777,0,0,-0.35277777,-83.444538,86.103951)"><path
             d="m 0,0 c -0.217,-2.585 -0.212,-5.106 -0.68,-7.538 -0.571,-2.962 -1.21,-5.935 -2.334,-8.767 -0.923,-2.333 -1.719,-4.719 -2.716,-7.019 -1.416,-3.271 -2.945,-6.493 -4.464,-9.718 -1.266,-2.684 -2.542,-5.365 -3.899,-8.005 -2.591,-5.035 -5.148,-10.091 -7.895,-15.04 -1.885,-3.392 -3.913,-6.73 -6.63,-9.558 -0.719,-0.749 -1.531,-1.437 -2.394,-2.014 -1.241,-0.831 -2.584,-1.098 -4.053,-0.437 -1.64,0.74 -2.976,1.864 -3.989,3.286 -0.775,1.087 -0.747,2.472 -0.52,3.762 0.204,1.166 0.635,2.293 0.864,3.455 0.417,2.092 1.343,3.985 2.225,5.887 1.517,3.269 3.074,6.521 4.714,9.729 1.624,3.175 3.395,6.274 5.055,9.431 2.338,4.452 4.672,8.906 6.929,13.4 1.556,3.104 2.968,6.283 3.961,9.62 0.742,2.5 1.373,5.033 2.054,7.55 0.012,0.045 0.025,0.09 0.029,0.136 0.228,2.058 0.478,4.114 0.68,6.175 0.774,7.937 0.337,15.903 0.557,23.853 0.052,1.936 0.36,3.865 0.552,5.796 0.016,0.138 0.055,0.274 0.092,0.406 0.444,1.506 1.292,1.739 2.353,0.601 1.868,-1.995 3.268,-4.303 4.169,-6.867 0.944,-2.67 1.921,-5.353 2.538,-8.107 0.705,-3.137 1.44,-6.277 1.781,-9.506 0.21,-1.965 0.435,-3.934 0.613,-5.906 C -0.268,3.043 -0.132,1.479 0,0"
             style="fill:#ffffff;fill-opacity:1;fill-rule:evenodd;stroke:none"
             id="path992" /></g><g
           id="g994"
           transform="matrix(0.35277777,0,0,-0.35277777,-76.603613,144.46352)"><path
             d="m 0,0 c -0.82,3.253 -1.597,6.129 -2.26,9.029 -0.718,3.139 -0.839,6.315 -0.302,9.501 0.854,5.067 2.839,9.753 5.051,14.324 2.733,5.639 5.61,11.212 8.566,16.737 3.278,6.122 6.66,12.19 10.114,18.216 1.815,3.171 3.734,6.302 6.101,9.108 1.14,1.353 2.312,2.679 4.011,3.47 0.782,0.363 1.556,0.562 2.243,0.345 2.354,-0.74 4.376,-2.001 5.069,-4.566 0.218,-0.802 0.143,-1.748 -0.032,-2.578 C 37.476,68.46 34.777,64.02 32.385,59.461 30.54,55.946 28.559,52.504 26.642,49.027 24.96,45.98 23.295,42.924 21.6,39.884 19.535,36.174 17.404,32.5 15.375,28.771 12.012,22.588 8.681,16.386 5.384,10.166 3.826,7.225 2.383,4.221 0.872,1.254 0.684,0.881 0.392,0.559 0,0"
             style="fill:#ffffff;fill-opacity:1;fill-rule:evenodd;stroke:none"
             id="path996" /></g><g
           id="g998"
           transform="matrix(0.35277777,0,0,-0.35277777,-135.0748,97.236771)"><path
             d="m 0,0 c -1.779,0.025 -3.396,0.341 -4.914,1.062 -1.338,0.635 -1.56,1.188 -0.9,2.518 1.843,3.725 3.689,7.451 5.617,11.133 1.93,3.682 3.946,7.319 5.951,10.962 2.16,3.923 4.33,7.843 6.539,11.737 1.761,3.104 3.582,6.171 5.388,9.248 1.063,1.811 2.133,3.617 3.224,5.41 0.515,0.846 1.199,1.162 2.107,0.867 1.964,-0.641 3.899,-1.368 5.576,-2.626 1.133,-0.852 1.697,-1.96 1.744,-3.42 0.067,-2.045 -0.533,-3.912 -1.234,-5.776 C 27.551,37.004 25.404,33.177 23.444,29.262 22.197,26.77 20.854,24.321 19.46,21.906 17.104,17.826 14.95,13.623 12.182,9.789 10.064,6.857 7.961,3.912 5.006,1.734 3.499,0.623 1.862,-0.195 0,0"
             style="fill:#ffffff;fill-opacity:1;fill-rule:evenodd;stroke:none"
             id="path1000" /></g><g
           id="g1002"
           transform="matrix(0.35277777,0,0,-0.35277777,-81.595559,128.31568)"><path
             d="m 0,0 c 0.186,2.55 0.523,4.801 1.249,7.004 1.574,4.785 3.397,9.453 5.783,13.899 1.972,3.669 3.804,7.411 5.78,11.076 1.993,3.693 4.091,7.328 6.129,10.994 1.11,1.998 2.187,4.011 3.292,6.011 0.644,1.168 1.143,1.317 2.339,0.813 2.199,-0.925 4.079,-2.283 5.624,-4.088 1.129,-1.32 1.664,-2.895 1.373,-4.609 C 31.331,39.711 30.974,38.316 30.464,37.005 29.672,34.959 28.765,32.952 27.8,30.98 26.681,28.691 25.475,26.441 24.254,24.201 22.047,20.151 19.84,16.1 17.56,12.089 14.465,6.645 11.333,1.221 8.146,-4.169 7.36,-5.497 6.3,-6.662 5.361,-7.898 5.277,-8.009 5.171,-8.103 5.074,-8.199 3.717,-9.51 2.754,-9.369 2.013,-7.656 1.526,-6.531 1.272,-5.306 0.772,-4.189 0.128,-2.756 0.175,-1.242 0,0"
             style="fill:#ffffff;fill-opacity:1;fill-rule:evenodd;stroke:none"
             id="path1004" /></g><g
           id="g1006"
           transform="matrix(0.35277777,0,0,-0.35277777,-128.44092,97.230597)"><path
             d="m 0,0 c 0.084,0.43 0.068,0.73 0.195,0.947 3.211,5.475 6.443,10.938 9.659,16.41 2.267,3.86 4.493,7.746 6.789,11.588 1.664,2.785 3.358,5.558 5.482,8.029 0.592,0.688 1.24,1.364 1.979,1.881 0.99,0.695 2.174,0.857 3.315,0.438 2.272,-0.834 3.85,-2.305 4.134,-4.864 0.218,-2.003 0.002,-3.958 -0.601,-5.871 C 30.377,26.729 29.937,24.836 29.156,23.1 27.544,19.519 25.744,16.04 23.54,12.752 21.359,9.498 19,6.432 16.104,3.807 14.296,2.168 12.291,0.799 9.864,0.203 9.549,0.125 9.231,0.01 8.915,0.01 6.006,-0.006 3.098,0 0,0"
             style="fill:#ffffff;fill-opacity:1;fill-rule:evenodd;stroke:none"
             id="path1008" /></g><g
           id="g1010"
           transform="matrix(0.35277777,0,0,-0.35277777,-117.48689,97.036605)"><path
             d="m 0,0 c 0.374,1.362 0.736,2.729 1.125,4.089 0.91,3.183 2.35,6.156 3.731,9.145 1.538,3.322 3.385,6.47 5.815,9.236 1.181,1.345 2.539,2.45 4.213,3.199 2.117,0.949 4.499,0.207 5.984,-1.41 1.392,-1.52 1.494,-3.145 0.864,-4.987 -0.804,-2.345 -1.42,-4.763 -2.334,-7.061 C 18.248,9.325 16.895,6.519 15.595,3.694 13.993,0.212 12.223,-3.183 10.083,-6.373 9.955,-6.564 9.813,-6.747 9.674,-6.932 8.805,-8.083 8.325,-8.231 7.113,-7.523 5.54,-6.603 3.969,-5.665 2.467,-4.632 0.89,-3.548 0.071,-2.011 0,0"
             style="fill:#ffffff;fill-opacity:1;fill-rule:evenodd;stroke:none"
             id="path1012" /></g></g></g></g></svg>
