<?xml version="1.0" encoding="UTF-8" standalone="no"?>
<svg
   xmlns:dc="http://purl.org/dc/elements/1.1/"
   xmlns:cc="http://creativecommons.org/ns#"
   xmlns:rdf="http://www.w3.org/1999/02/22-rdf-syntax-ns#"
   xmlns:svg="http://www.w3.org/2000/svg"
   xmlns="http://www.w3.org/2000/svg"
   xmlns:sodipodi="http://sodipodi.sourceforge.net/DTD/sodipodi-0.dtd"
   xmlns:inkscape="http://www.inkscape.org/namespaces/inkscape"
   version="1.1"
   id="svg2142"
   xml:space="preserve"
   width="500"
   height="500"
   viewBox="0 0 500 500"
   sodipodi:docname="bit-logo-shader.svg"
   inkscape:version="1.0.1 (3bc2e813f5, 2020-09-07)"><metadata
     id="metadata2148"><rdf:RDF><cc:Work
         rdf:about=""><dc:format>image/svg+xml</dc:format><dc:type
           rdf:resource="http://purl.org/dc/dcmitype/StillImage" /><dc:title></dc:title></cc:Work></rdf:RDF></metadata><defs
     id="defs2146"><clipPath
       clipPathUnits="userSpaceOnUse"
       id="clipPath2160"><path
         d="M 0,566.93 H 566.93 V 0 H 0 Z"
         id="path2158" /></clipPath><clipPath
       clipPathUnits="userSpaceOnUse"
       id="clipPath2168"><path
         d="M 45,311.564 H 562 V -54.0703 H 45 Z"
         id="path2166" /></clipPath><clipPath
       clipPathUnits="userSpaceOnUse"
       id="clipPath2182"><path
         d="M 0,566.93 H 566.93 V 0 H 0 Z"
         id="path2180" /></clipPath><clipPath
       clipPathUnits="userSpaceOnUse"
       id="clipPath1176"><path
         d="M 0,1700.787 H 1700.788 V 0 H 0 Z"
         id="path1174" /></clipPath><clipPath
       clipPathUnits="userSpaceOnUse"
       id="clipPath3294"><path
         d="M 0,1700.787 H 1700.788 V 0 H 0 Z"
         id="path3292" /></clipPath><clipPath
       clipPathUnits="userSpaceOnUse"
       id="clipPath864"><path
         d="M 0,1324.613 H 764.962 V 0 H 0 Z"
         id="path862" /></clipPath><clipPath
       clipPathUnits="userSpaceOnUse"
       id="clipPath1247"><path
         d="M 0,850.393 H 1700.788 V 0 H 0 Z"
         id="path1245" /></clipPath><style
       id="style1973">
      .cls-1 {
        fill: #000;
      }

      .cls-1, .cls-2 {
        fill-rule: evenodd;
      }

      .cls-2 {
        fill: #fff;
      }
    </style></defs><sodipodi:namedview
     pagecolor="#1c1c1c"
     bordercolor="#666666"
     borderopacity="1"
     objecttolerance="10"
     gridtolerance="10"
     guidetolerance="10"
     inkscape:pageopacity="0"
     inkscape:pageshadow="2"
     inkscape:window-width="1920"
     inkscape:window-height="983"
     id="namedview2144"
     showgrid="false"
     inkscape:showpageshadow="false"
     inkscape:zoom="0.77641678"
     inkscape:cx="320.14231"
     inkscape:cy="236.8855"
     inkscape:window-x="1920"
     inkscape:window-y="27"
     inkscape:window-maximized="1"
     inkscape:current-layer="g2150"
     inkscape:document-rotation="0"><inkscape:grid
       type="xygrid"
       id="grid1891" /></sodipodi:namedview><g
     id="g2150"
     inkscape:groupmode="layer"
     inkscape:label="bit-ai-logo"
     transform="matrix(1.3333333,0,0,-1.3333333,0,755.90667)"><text
       xml:space="preserve"
       style="font-style:normal;font-weight:normal;font-size:58.4032px;line-height:1.25;font-family:sans-serif;fill:#000000;fill-opacity:1;stroke:none;stroke-width:1.46009"
       x="45.783279"
       y="-238.95377"
       id="text896"
       transform="scale(1,-1)"><tspan
         id="tspan894"
         x="45.783279"
         y="-238.95377"
         style="font-style:normal;font-variant:normal;font-weight:normal;font-stretch:normal;font-size:58.4032px;font-family:Exo;-inkscape-font-specification:'Exo, Normal';font-variant-ligatures:normal;font-variant-caps:normal;font-variant-numeric:normal;font-variant-east-asian:normal;fill:#ffffff;fill-opacity:1;stroke-width:1.46009"
         sodipodi:role="line">BIT <tspan
   style="font-weight:bold"
   id="tspan1998">Shader</tspan></tspan></text><path
       d="m -1555.0008,628.70774 h 850.394 z"
       style="fill:#ffffff;fill-opacity:1;fill-rule:nonzero;stroke:none"
       id="path1237" /><g
       id="g1319"
       transform="translate(-704.6068,1479.1003)"><path
         d="M 0,0 H 850.394"
         style="fill:#ffffff;fill-opacity:1;fill-rule:nonzero;stroke:none"
         id="path1321" /></g><g
       id="g1981"
       transform="matrix(0.36863221,0,0,-0.36863221,-22.257527,573.17786)"><path
         d="m 505,646 c 0,0 -35,-0.333 -56,-3 -21,-2.667 -21.333,-14.333 -19,-25 2.333,-10.667 13,-21 13,-21 0,0 -5,-1 -5,-12 0,-11 12,-29 12,-29 0,0 -25.667,-13.333 -41,-41 -15.333,-27.667 -14,-57.667 -11,-77 3,-19.333 9,-24 9,-24 0,0 -10,-16.333 -10,-28 0,-10.687 -0.323,-18.844 3,-27 3.667,-9 7.333,-16 7,-25 -0.333,-9 5,-24 5,-24 0,0 -10,-15.667 -25,-24 -15,-8.333 -35.667,-14.667 -46,-26 -10.333,-11.333 -20,-29.333 -24,-44 -4,-14.667 -3,-25 -3,-25 0,0 -5.667,-9 -7,-16 -1.333,-7 -3.667,-22 1,-27 4.667,-5 12.333,-5.333 18,3 5.667,8.333 16,25.667 27,35 11,9.333 32,21.333 42,31 10,9.667 15.922,15.329 30,32 12.667,15 20,22.667 29,24 6.668,0.988 11.333,-4.333 12,-10 0.667,-5.667 3.667,-28.667 9,-50 5.333,-21.333 18.667,-51.333 20,-64 1.333,-12.667 2,-35 9,-35 7,0 12.667,1.333 16,11 3.333,9.667 2,20 2,20 0,0 14,25.667 17,38 4.002,16.455 5.333,31.667 1,42 -4.333,10.333 -11.667,19 -15,26 -3.992,8.384 -8,28 -8,28 0,0 10,2.333 18,9 8,6.667 14,24 14,24 0,0 35,-25.333 70,-28 35,-2.667 70,9.333 98,36 28,26.667 43.667,65.333 47,82 3.333,16.667 3,28 3,28 0,0 14.667,8.333 17,29 2.333,20.667 -4.667,42.333 -17,60 -12.333,17.667 -20,25 -20,25 0,0 0,17 -5,32 -5,15 -18,26.333 -28,31 -10,4.667 -28,18 -38,25 -10,7 -17.333,10.333 -34,10 -16.667,-0.333 -37,0 -37,0 0,0 -18.333,17.667 -33,20 -14.667,2.333 -39,3 -51,-4 -12,-7 -16,-12 -16,-12 z"
         class="cls-1"
         id="path1977" /><path
         d="m 477,383 c 0,0 -8.667,-19 -13,-23 -4.333,-4 -6.667,-2.667 -9,-6 -2.333,-3.333 -6,-9.333 -16,-18 -10,-8.667 -15.667,-14.333 -16,-20 -0.333,-5.667 -1.364,-18.307 -23,-44 -10.667,-12.667 -36.877,-25.088 -55,-45 -21.299,-23.402 -32.596,-40.773 -36,-55 -2.184,-9.129 -1.418,-25.169 7,-24 12,1.667 15.232,27.617 42,46 27.667,19 38.929,27.698 54,44 16.333,17.667 30,38.667 42,38 12,-0.667 13.667,-4 16,-15 2.333,-11 7,-45.667 17,-71 10,-25.333 15.667,-33.667 17,-47 1.333,-13.333 0.333,-25.667 3,-26 2.667,-0.333 9.667,3 11,13 1.333,10 2,18 2,18 0,0 16.955,28.075 19,55 2,26.333 -10,33.333 -15,43 -5,9.667 -11,35 -11,35 0,0 17.667,3.667 24,13 6.333,9.333 8.367,15.029 9,20 1.229,9.659 -1.033,14.871 -1,22 0.041,9.022 12.333,27.69 15,41 2.929,14.617 5.394,34.036 3,42 -1.676,5.575 -8.933,20.626 -24.773,23.87 -13.526,2.769 -37.822,6.564 -58.227,-6.87 -20.232,-13.32 -15.333,-21 -22,-19 -4.284,1.285 -10.52,4.779 -18,0 -8.347,-5.333 -19.674,-27.939 -24.983,-45.236 -2.324,-7.569 -4.303,-14.121 -3.017,-17.764 4,-11.333 11,-1.667 13,2 2,3.667 10.74,13.189 16,4 4.452,-7.777 -7,-10.333 -8,-15 -1.334,-6.227 0.715,-8.106 5,-4 8,7.667 7.333,10.667 11,17 3.663,6.327 9.333,6.333 15,12 2.849,2.849 7.452,9.452 10,12 2.52,2.52 3,1 3,1 z m 55,43 c 0,0 10,-6.667 7,-8 -3,-1.333 -15.265,1.882 -15,4 0.333,2.667 8,4 8,4 z m 11,18 c 0,0 -12.667,17.333 -36,22 -23.333,4.667 -38,-4.667 -47,-11 -9,-6.333 -16.667,-8.667 -21,-5 -4.333,3.667 -7.333,18 -4,31 3.333,13 10,33.667 44,47 34,13.333 72.594,13.131 83,12 15.333,-1.667 26,-12 26,-12 0,0 -3.667,12.333 -13,16 -9.333,3.667 -11,4 -11,4 0,0 8.333,9 7,19 -1.711,12.831 -4.667,17.667 -28,29 -23.333,11.333 -30.458,20.332 -30,43 0.392,19.393 30.333,22 53,19 12.713,-1.683 34.333,-16 36,-21 1.667,-5 2,-27 2,-27 0,0 3.333,12.333 7,18 3.667,5.667 7.333,8.667 10,9 2.667,0.333 35.333,1.333 56,-12 20.667,-13.333 23.667,-17 35,-23 11.333,-6 21.667,-11.333 9,-15 -12.667,-3.667 -21,-2 -21,-2 0,0 18.491,-3.154 29,-15 18.333,-20.667 13,-27 13,-27 0,0 15.667,-10 26,-31 10.333,-21 15,-39.667 12,-55 -3,-15.333 -15,-25 -15,-25 0,0 2,-20.667 -11,-51 -13,-30.333 -28,-54 -63,-75 -35,-21 -89.168,-15.018 -116,-2 -25.483,12.363 -26,13 -26,13 0,0 0.107,1.834 0,9 -0.081,5.424 -2.384,8.749 0,16 1.258,3.826 10.389,20.988 13,33 3.333,15.333 7.064,37.696 3,47 -7.641,17.495 -22,22 -22,22 z m 141,123 c 0,0 -37,-19 -44,-53 -7,-34 15.333,-56.333 35,-72 19.667,-15.667 30,-18.667 38,-20 8,-1.333 15,1 15,1 0,0 -4,-6.667 -11,-7 -7,-0.333 -14,0 -14,0 0,0 6.333,-9 9,-26 2.667,-17 -3,-35 -3,-35 0,0 0,20.667 -3,31 -3,10.333 -17,35 -17,35 0,0 -32.667,23 -48,51 -15.333,28 -15.667,56 -14,65 1.667,9 17.333,24.667 30,28 12.667,3.333 27,2 27,2 z m -158,31 c 0,0 -8.277,-13.538 -42,-14 -24.333,-0.333 -43.333,27 -43,38 0.243,8.024 6.333,16 18,17 11.667,1 25.333,2 35,-1 9.667,-3 13.859,-10.432 17,-17 3.667,-7.667 5.333,-14.333 9,-18 3.837,-3.837 6,-5 6,-5 z"
         class="cls-2"
         id="path1979" /></g></g></svg>
