<?xml version="1.0" encoding="UTF-8" standalone="no"?>
<!-- Created with Inkscape (http://www.inkscape.org/) -->

<svg
   xmlns:dc="http://purl.org/dc/elements/1.1/"
   xmlns:cc="http://creativecommons.org/ns#"
   xmlns:rdf="http://www.w3.org/1999/02/22-rdf-syntax-ns#"
   xmlns:svg="http://www.w3.org/2000/svg"
   xmlns="http://www.w3.org/2000/svg"
   xmlns:sodipodi="http://sodipodi.sourceforge.net/DTD/sodipodi-0.dtd"
   xmlns:inkscape="http://www.inkscape.org/namespaces/inkscape"
   width="269.17401mm"
   height="262.5217mm"
   viewBox="0 0 269.17401 262.5217"
   version="1.1"
   id="svg8"
   inkscape:export-filename="C:\Users\zielo\Desktop\bitlogo.png"
   inkscape:export-xdpi="565.44507"
   inkscape:export-ydpi="565.44507"
   inkscape:version="0.92.3 (2405546, 2018-03-11)"
   sodipodi:docname="bit-logo.svg">
  <defs
     id="defs2">
    <clipPath
       id="clipPath831"
       clipPathUnits="userSpaceOnUse">
      <path
         inkscape:connector-curvature="0"
         id="path829"
         d="M 0,744.156 H 763.013 V 0 H 0 Z" />
    </clipPath>
    <linearGradient
       id="linearGradient855"
       spreadMethod="pad"
       gradientTransform="matrix(53.000069,147,147,-53.000069,125.38525,545.06494)"
       gradientUnits="userSpaceOnUse"
       y2="0"
       x2="1"
       y1="0"
       x1="0">
      <stop
         id="stop849"
         offset="0"
         style="stop-opacity:1;stop-color:#226381" />
      <stop
         id="stop851"
         offset="0.70810998"
         style="stop-opacity:1;stop-color:#7c9eb8" />
      <stop
         id="stop853"
         offset="1"
         style="stop-opacity:1;stop-color:#7c9eb8" />
    </linearGradient>
    <clipPath
       id="clipPath865"
       clipPathUnits="userSpaceOnUse">
      <path
         inkscape:connector-curvature="0"
         id="path863"
         d="M 0,744.156 H 763.013 V 0 H 0 Z" />
    </clipPath>
    <linearGradient
       id="linearGradient901"
       spreadMethod="pad"
       gradientTransform="matrix(53.000069,147,147,-53.000069,148.0708,536.88574)"
       gradientUnits="userSpaceOnUse"
       y2="0"
       x2="1"
       y1="0"
       x1="0">
      <stop
         id="stop895"
         offset="0"
         style="stop-opacity:1;stop-color:#226381" />
      <stop
         id="stop897"
         offset="0.70810998"
         style="stop-opacity:1;stop-color:#7c9eb8" />
      <stop
         id="stop899"
         offset="1"
         style="stop-opacity:1;stop-color:#7c9eb8" />
    </linearGradient>
    <linearGradient
       id="linearGradient923"
       spreadMethod="pad"
       gradientTransform="matrix(52.999882,146.99948,146.99948,-52.999882,224.40381,509.36426)"
       gradientUnits="userSpaceOnUse"
       y2="0"
       x2="1"
       y1="0"
       x1="0">
      <stop
         id="stop917"
         offset="0"
         style="stop-opacity:1;stop-color:#226381" />
      <stop
         id="stop919"
         offset="0.70810998"
         style="stop-opacity:1;stop-color:#7c9eb8" />
      <stop
         id="stop921"
         offset="1"
         style="stop-opacity:1;stop-color:#7c9eb8" />
    </linearGradient>
    <linearGradient
       id="linearGradient945"
       spreadMethod="pad"
       gradientTransform="matrix(53.000088,147.00006,147.00006,-53.000088,77.589355,562.29785)"
       gradientUnits="userSpaceOnUse"
       y2="0"
       x2="1"
       y1="0"
       x1="0">
      <stop
         id="stop939"
         offset="0"
         style="stop-opacity:1;stop-color:#226381" />
      <stop
         id="stop941"
         offset="0.70810998"
         style="stop-opacity:1;stop-color:#7c9eb8" />
      <stop
         id="stop943"
         offset="1"
         style="stop-opacity:1;stop-color:#7c9eb8" />
    </linearGradient>
    <clipPath
       id="clipPath957"
       clipPathUnits="userSpaceOnUse">
      <path
         inkscape:connector-curvature="0"
         id="path955"
         d="M 0,744.156 H 763.013 V 0 H 0 Z" />
    </clipPath>
    <linearGradient
       id="linearGradient997"
       spreadMethod="pad"
       gradientTransform="matrix(33.000385,161.00209,161.00209,-33.000385,138.19238,531)"
       gradientUnits="userSpaceOnUse"
       y2="0"
       x2="1"
       y1="0"
       x1="0">
      <stop
         id="stop991"
         offset="0"
         style="stop-opacity:1;stop-color:#dddede" />
      <stop
         id="stop993"
         offset="0.49165811"
         style="stop-opacity:1;stop-color:#dddede" />
      <stop
         id="stop995"
         offset="1"
         style="stop-opacity:1;stop-color:#e8e8e9" />
    </linearGradient>
    <linearGradient
       id="linearGradient1019"
       spreadMethod="pad"
       gradientTransform="matrix(32.999908,160.99976,160.99976,-32.999908,152.1792,528.13525)"
       gradientUnits="userSpaceOnUse"
       y2="0"
       x2="1"
       y1="0"
       x1="0">
      <stop
         id="stop1013"
         offset="0"
         style="stop-opacity:1;stop-color:#dddede" />
      <stop
         id="stop1015"
         offset="0.49165811"
         style="stop-opacity:1;stop-color:#dddede" />
      <stop
         id="stop1017"
         offset="1"
         style="stop-opacity:1;stop-color:#e8e8e9" />
    </linearGradient>
    <linearGradient
       id="linearGradient1041"
       spreadMethod="pad"
       gradientTransform="matrix(32.999828,160.99937,160.99937,-32.999828,238.49561,510.44336)"
       gradientUnits="userSpaceOnUse"
       y2="0"
       x2="1"
       y1="0"
       x1="0">
      <stop
         id="stop1035"
         offset="0"
         style="stop-opacity:1;stop-color:#dddede" />
      <stop
         id="stop1037"
         offset="0.49165811"
         style="stop-opacity:1;stop-color:#dddede" />
      <stop
         id="stop1039"
         offset="1"
         style="stop-opacity:1;stop-color:#e8e8e9" />
    </linearGradient>
    <linearGradient
       id="linearGradient1063"
       spreadMethod="pad"
       gradientTransform="matrix(83.399902,0,0,-83.399902,53,618.49316)"
       gradientUnits="userSpaceOnUse"
       y2="0"
       x2="1"
       y1="0"
       x1="0">
      <stop
         id="stop1057"
         offset="0"
         style="stop-opacity:1;stop-color:#dddede" />
      <stop
         id="stop1059"
         offset="0.49165811"
         style="stop-opacity:1;stop-color:#dddede" />
      <stop
         id="stop1061"
         offset="1"
         style="stop-opacity:1;stop-color:#e8e8e9" />
    </linearGradient>
    <clipPath
       id="clipPath1073"
       clipPathUnits="userSpaceOnUse">
      <path
         inkscape:connector-curvature="0"
         id="path1071"
         d="M 0,744.156 H 763.013 V 0 H 0 Z" />
    </clipPath>
    <linearGradient
       id="linearGradient1113"
       spreadMethod="pad"
       gradientTransform="matrix(33.000385,161.00209,161.00209,-33.000385,141.19336,534)"
       gradientUnits="userSpaceOnUse"
       y2="0"
       x2="1"
       y1="0"
       x1="0">
      <stop
         id="stop1107"
         offset="0"
         style="stop-opacity:1;stop-color:#e6e7e7" />
      <stop
         id="stop1109"
         offset="0.70810998"
         style="stop-opacity:1;stop-color:#eaeaec" />
      <stop
         id="stop1111"
         offset="1"
         style="stop-opacity:1;stop-color:#eaeaec" />
    </linearGradient>
    <linearGradient
       id="linearGradient1135"
       spreadMethod="pad"
       gradientTransform="matrix(32.999908,160.99976,160.99976,-32.999908,155.1792,531.13574)"
       gradientUnits="userSpaceOnUse"
       y2="0"
       x2="1"
       y1="0"
       x1="0">
      <stop
         id="stop1129"
         offset="0"
         style="stop-opacity:1;stop-color:#e6e7e7" />
      <stop
         id="stop1131"
         offset="0.70810998"
         style="stop-opacity:1;stop-color:#eaeaec" />
      <stop
         id="stop1133"
         offset="1"
         style="stop-opacity:1;stop-color:#eaeaec" />
    </linearGradient>
    <linearGradient
       id="linearGradient1157"
       spreadMethod="pad"
       gradientTransform="matrix(32.999954,160.99998,160.99998,-32.999954,241.49561,513.44336)"
       gradientUnits="userSpaceOnUse"
       y2="0"
       x2="1"
       y1="0"
       x1="0">
      <stop
         id="stop1151"
         offset="0"
         style="stop-opacity:1;stop-color:#e6e7e7" />
      <stop
         id="stop1153"
         offset="0.70810998"
         style="stop-opacity:1;stop-color:#eaeaec" />
      <stop
         id="stop1155"
         offset="1"
         style="stop-opacity:1;stop-color:#eaeaec" />
    </linearGradient>
    <linearGradient
       id="linearGradient1179"
       spreadMethod="pad"
       gradientTransform="matrix(32.999809,160.99928,160.99928,-32.999809,82.243652,546.08496)"
       gradientUnits="userSpaceOnUse"
       y2="0"
       x2="1"
       y1="0"
       x1="0">
      <stop
         id="stop1173"
         offset="0"
         style="stop-opacity:1;stop-color:#e6e7e7" />
      <stop
         id="stop1175"
         offset="0.70810998"
         style="stop-opacity:1;stop-color:#eaeaec" />
      <stop
         id="stop1177"
         offset="1"
         style="stop-opacity:1;stop-color:#eaeaec" />
    </linearGradient>
    <clipPath
       id="clipPath1189"
       clipPathUnits="userSpaceOnUse">
      <path
         inkscape:connector-curvature="0"
         id="path1187"
         d="M 0,744.156 H 763.013 V 0 H 0 Z" />
    </clipPath>
    <linearGradient
       id="linearGradient1311"
       spreadMethod="pad"
       gradientTransform="matrix(32.999939,160.99991,160.99991,-32.999939,518.26953,550.00146)"
       gradientUnits="userSpaceOnUse"
       y2="0"
       x2="1"
       y1="0"
       x1="0">
      <stop
         id="stop1305"
         offset="0"
         style="stop-opacity:1;stop-color:#dddede" />
      <stop
         id="stop1307"
         offset="0.49165811"
         style="stop-opacity:1;stop-color:#dddede" />
      <stop
         id="stop1309"
         offset="1"
         style="stop-opacity:1;stop-color:#e8e8e9" />
    </linearGradient>
    <linearGradient
       id="linearGradient1333"
       spreadMethod="pad"
       gradientTransform="matrix(32.999714,160.99881,160.99881,-32.999714,532.25684,547.13574)"
       gradientUnits="userSpaceOnUse"
       y2="0"
       x2="1"
       y1="0"
       x1="0">
      <stop
         id="stop1327"
         offset="0"
         style="stop-opacity:1;stop-color:#dddede" />
      <stop
         id="stop1329"
         offset="0.49165811"
         style="stop-opacity:1;stop-color:#dddede" />
      <stop
         id="stop1331"
         offset="1"
         style="stop-opacity:1;stop-color:#e8e8e9" />
    </linearGradient>
    <linearGradient
       id="linearGradient1355"
       spreadMethod="pad"
       gradientTransform="matrix(32.999828,160.99937,160.99937,-32.999828,618.57227,529.44434)"
       gradientUnits="userSpaceOnUse"
       y2="0"
       x2="1"
       y1="0"
       x1="0">
      <stop
         id="stop1349"
         offset="0"
         style="stop-opacity:1;stop-color:#dddede" />
      <stop
         id="stop1351"
         offset="0.49165811"
         style="stop-opacity:1;stop-color:#dddede" />
      <stop
         id="stop1353"
         offset="1"
         style="stop-opacity:1;stop-color:#e8e8e9" />
    </linearGradient>
    <linearGradient
       id="linearGradient1377"
       spreadMethod="pad"
       gradientTransform="matrix(83.400391,0,0,-83.400391,433.07812,637.49316)"
       gradientUnits="userSpaceOnUse"
       y2="0"
       x2="1"
       y1="0"
       x1="0">
      <stop
         id="stop1371"
         offset="0"
         style="stop-opacity:1;stop-color:#dddede" />
      <stop
         id="stop1373"
         offset="0.49165811"
         style="stop-opacity:1;stop-color:#dddede" />
      <stop
         id="stop1375"
         offset="1"
         style="stop-opacity:1;stop-color:#e8e8e9" />
    </linearGradient>
    <clipPath
       id="clipPath1387"
       clipPathUnits="userSpaceOnUse">
      <path
         inkscape:connector-curvature="0"
         id="path1385"
         d="M 0,744.156 H 763.013 V 0 H 0 Z" />
    </clipPath>
    <linearGradient
       id="linearGradient1427"
       spreadMethod="pad"
       gradientTransform="matrix(32.999939,160.99991,160.99991,-32.999939,521.26953,553.00195)"
       gradientUnits="userSpaceOnUse"
       y2="0"
       x2="1"
       y1="0"
       x1="0">
      <stop
         id="stop1421"
         offset="0"
         style="stop-opacity:1;stop-color:#e6e7e7" />
      <stop
         id="stop1423"
         offset="0.70810998"
         style="stop-opacity:1;stop-color:#eaeaec" />
      <stop
         id="stop1425"
         offset="1"
         style="stop-opacity:1;stop-color:#eaeaec" />
    </linearGradient>
    <linearGradient
       id="linearGradient1449"
       spreadMethod="pad"
       gradientTransform="matrix(32.999519,160.99786,160.99786,-32.999519,535.25684,550.13623)"
       gradientUnits="userSpaceOnUse"
       y2="0"
       x2="1"
       y1="0"
       x1="0">
      <stop
         id="stop1443"
         offset="0"
         style="stop-opacity:1;stop-color:#e6e7e7" />
      <stop
         id="stop1445"
         offset="0.70810998"
         style="stop-opacity:1;stop-color:#eaeaec" />
      <stop
         id="stop1447"
         offset="1"
         style="stop-opacity:1;stop-color:#eaeaec" />
    </linearGradient>
    <linearGradient
       id="linearGradient1471"
       spreadMethod="pad"
       gradientTransform="matrix(32.999828,160.99937,160.99937,-32.999828,621.57227,532.44336)"
       gradientUnits="userSpaceOnUse"
       y2="0"
       x2="1"
       y1="0"
       x1="0">
      <stop
         id="stop1465"
         offset="0"
         style="stop-opacity:1;stop-color:#e6e7e7" />
      <stop
         id="stop1467"
         offset="0.70810998"
         style="stop-opacity:1;stop-color:#eaeaec" />
      <stop
         id="stop1469"
         offset="1"
         style="stop-opacity:1;stop-color:#eaeaec" />
    </linearGradient>
    <linearGradient
       id="linearGradient1493"
       spreadMethod="pad"
       gradientTransform="matrix(32.999935,160.99989,160.99989,-32.999935,462.32227,565.08496)"
       gradientUnits="userSpaceOnUse"
       y2="0"
       x2="1"
       y1="0"
       x1="0">
      <stop
         id="stop1487"
         offset="0"
         style="stop-opacity:1;stop-color:#e6e7e7" />
      <stop
         id="stop1489"
         offset="0.70810998"
         style="stop-opacity:1;stop-color:#eaeaec" />
      <stop
         id="stop1491"
         offset="1"
         style="stop-opacity:1;stop-color:#eaeaec" />
    </linearGradient>
    <clipPath
       id="clipPath1507"
       clipPathUnits="userSpaceOnUse">
      <path
         inkscape:connector-curvature="0"
         id="path1505"
         d="M 0,744.156 H 763.013 V 0 H 0 Z" />
    </clipPath>
    <clipPath
       id="clipPath1555"
       clipPathUnits="userSpaceOnUse">
      <path
         inkscape:connector-curvature="0"
         id="path1553"
         d="M 0,744.156 H 763.013 V 0 H 0 Z" />
    </clipPath>
  </defs>
  <sodipodi:namedview
     id="base"
     pagecolor="#ffffff"
     bordercolor="#666666"
     borderopacity="1.0"
     inkscape:pageopacity="0.0"
     inkscape:pageshadow="2"
     inkscape:zoom="2.8"
     inkscape:cx="670.20711"
     inkscape:cy="70.017749"
     inkscape:document-units="mm"
     inkscape:current-layer="layer1"
     showgrid="false"
     fit-margin-top="0"
     fit-margin-left="-2.7"
     fit-margin-right="0"
     fit-margin-bottom="-2.4"
     inkscape:window-width="1920"
     inkscape:window-height="986"
     inkscape:window-x="-11"
     inkscape:window-y="-11"
     inkscape:window-maximized="1" />
  <metadata
     id="metadata5">
    <rdf:RDF>
      <cc:Work
         rdf:about="">
        <dc:format>image/svg+xml</dc:format>
        <dc:type
           rdf:resource="http://purl.org/dc/dcmitype/StillImage" />
        <dc:title></dc:title>
      </cc:Work>
    </rdf:RDF>
  </metadata>
  <g
     inkscape:label="Layer 1"
     inkscape:groupmode="layer"
     id="layer1"
     transform="translate(3.051299,-44.030826)">
    <g
       id="g833"
       transform="matrix(0.35277777,0,0,-0.35277777,44.940095,75.075199)">
      <path
         d="m 0,0 c 0,-9.941 -8.059,-18 -18,-18 -9.941,0 -18,8.059 -18,18 0,9.941 8.059,18 18,18 C -8.059,18 0,9.941 0,0"
         style="fill:#bfd1d9;fill-opacity:1;fill-rule:nonzero;stroke:none"
         id="path835"
         inkscape:connector-curvature="0" />
    </g>
    <g
       id="g845"
       transform="matrix(0.35277777,0,0,-0.35277777,-3.051299,306.55252)">
      <g
         id="g847">
        <path
           d="m 147.439,656.156 c 0,-9.941 8.058,-18 18,-18 v 0 c 9.94,0 18,8.059 18,18 v 0 c 0,9.941 -8.06,18 -18,18 v 0 c -9.942,0 -18,-8.059 -18,-18"
           style="fill:url(#linearGradient855);stroke:none"
           id="path857"
           inkscape:connector-curvature="0" />
      </g>
    </g>
    <g
       id="g867"
       transform="matrix(0.35277777,0,0,-0.35277777,78.383533,75.075199)">
      <path
         d="m 0,0 c 0,-9.941 -8.059,-18 -18,-18 -9.941,0 -18,8.059 -18,18 0,9.941 8.059,18 18,18 C -8.059,18 0,9.941 0,0"
         style="fill:#bfd1d9;fill-opacity:1;fill-rule:nonzero;stroke:none"
         id="path869"
         inkscape:connector-curvature="0" />
    </g>
    <g
       id="g871"
       transform="matrix(0.35277777,0,0,-0.35277777,111.8268,75.075199)">
      <path
         d="m 0,0 c 0,-9.941 -8.059,-18 -18,-18 -9.941,0 -18,8.059 -18,18 0,9.941 8.059,18 18,18 C -8.059,18 0,9.941 0,0"
         style="fill:#bfd1d9;fill-opacity:1;fill-rule:nonzero;stroke:none"
         id="path873"
         inkscape:connector-curvature="0" />
    </g>
    <g
       id="g875"
       transform="matrix(0.35277777,0,0,-0.35277777,78.383533,108.51846)">
      <path
         d="m 0,0 c 0,-9.941 -8.059,-18 -18,-18 -9.941,0 -18,8.059 -18,18 0,9.941 8.059,18 18,18 C -8.059,18 0,9.941 0,0"
         style="fill:#bfd1d9;fill-opacity:1;fill-rule:nonzero;stroke:none"
         id="path877"
         inkscape:connector-curvature="0" />
    </g>
    <g
       id="g879"
       transform="matrix(0.35277777,0,0,-0.35277777,111.8268,108.51846)">
      <path
         d="m 0,0 c 0,-9.941 -8.059,-18 -18,-18 -9.941,0 -18,8.059 -18,18 0,9.941 8.059,18 18,18 C -8.059,18 0,9.941 0,0"
         style="fill:#bfd1d9;fill-opacity:1;fill-rule:nonzero;stroke:none"
         id="path881"
         inkscape:connector-curvature="0" />
    </g>
    <g
       id="g891"
       transform="matrix(0.35277777,0,0,-0.35277777,-3.051299,306.55252)">
      <g
         id="g893">
        <path
           d="m 147.439,608.756 c 0,-4.334 1.533,-8.309 4.085,-11.416 v 0 h -0.017 v -0.018 c 2.62,-2.9 6.13,-7.322 6.13,-12.369 v 0 c 0,-4.071 -2.547,-7.972 -4.696,-10.659 v 0 c -3.387,-3.273 -5.502,-7.855 -5.502,-12.938 v 0 c 0,-9.94 8.058,-18 18,-18 v 0 c 9.94,0 18,8.06 18,18 v 0 c 0,5.214 -2.23,9.896 -5.773,13.182 v 0 c -2.396,2.781 -3.866,6.491 -3.866,10.415 v 0 c 0,4.629 2.262,8.778 5.232,11.996 v 0 0.032 c 2.737,3.157 4.407,7.267 4.407,11.775 v 0 c 0,9.941 -8.06,18 -18,18 v 0 c -9.942,0 -18,-8.059 -18,-18"
           style="fill:url(#linearGradient901);stroke:none"
           id="path903"
           inkscape:connector-curvature="0" />
      </g>
    </g>
    <g
       id="g913"
       transform="matrix(0.35277777,0,0,-0.35277777,-3.051299,306.55252)">
      <g
         id="g915">
        <path
           d="m 242.239,656.156 c 0,-5.053 2.088,-9.612 5.442,-12.882 v 0 c 2.371,-2.837 4.914,-6.676 4.914,-10.972 v 0 c 0,-3.603 -1.995,-7.07 -3.944,-9.684 v 0 h -0.244 c -2.855,-3.203 -7.198,-5.232 -11.825,-5.232 v 0 c -4.629,0 -8.979,2.258 -12.199,5.227 v 0 l -0.061,0.002 c -3.116,2.585 -7.118,4.141 -11.483,4.141 v 0 c -9.941,0 -18,-8.059 -18,-18 v 0 c 0,-9.941 8.059,-18 18,-18 v 0 c 5.425,0 10.276,2.411 13.577,6.207 v 0 c 2.74,2.162 6.265,4.259 10.166,4.259 v 0 c 3.762,0 7.377,-2.174 10.025,-4.199 v 0 c 0.15,-0.174 0.307,-0.342 0.464,-0.51 v 0 c 2.479,-2.877 5.326,-6.911 5.326,-11.457 v 0 c 0,-4.697 -3.39,-9.167 -5.646,-11.807 v 0 c -2.8,-3.174 -4.512,-7.329 -4.512,-11.893 v 0 c 0,-9.94 8.059,-18 18,-18 v 0 c 9.941,0 18,8.06 18,18 v 0 c 0,4.53 -1.685,8.656 -4.447,11.821 v 0 0.054 c -0.179,0.159 -0.341,0.34 -0.512,0.508 v 0 c -0.212,0.223 -0.429,0.44 -0.651,0.652 v 0 c -2.523,2.805 -4.069,6.626 -4.069,10.665 v 0 c 0,4.606 2.243,8.568 5.19,11.778 v 0 c 2.727,2.138 6.218,4.19 10.078,4.19 v 0 c 4.619,0 9.014,-3.276 11.671,-5.53 v 0 c 3.202,-2.933 7.455,-4.738 12.14,-4.738 v 0 c 9.941,0 18,8.059 18,18 v 0 c 0,9.941 -8.059,18 -18,18 v 0 c -4.471,0 -8.552,-1.639 -11.699,-4.337 v 0 h -0.286 c -2.855,-3.203 -7.199,-5.231 -11.826,-5.231 v 0 c -4.328,0 -8.079,1.988 -11.18,4.671 v 0 c -2.411,2.784 -3.889,6.507 -3.889,10.443 v 0 c 0,4.628 2.257,8.979 5.226,12.198 v 0 l 0.002,0.051 c 2.649,3.135 4.252,7.18 4.252,11.605 v 0 c 0,9.941 -8.059,18 -18,18 v 0 c -9.941,0 -18,-8.059 -18,-18"
           style="fill:url(#linearGradient923);stroke:none"
           id="path925"
           inkscape:connector-curvature="0" />
      </g>
    </g>
    <g
       id="g935"
       transform="matrix(0.35277777,0,0,-0.35277777,-3.051299,306.55252)">
      <g
         id="g937">
        <path
           d="m 52.638,656.156 c 0,-5.002 2.044,-9.525 5.338,-12.787 v 0 c 2.395,-2.846 4.993,-6.723 4.993,-11.067 v 0 c 0,-3.778 -2.193,-7.41 -4.226,-10.061 v 0 c -3.735,-3.298 -6.105,-8.11 -6.105,-13.485 v 0 c 0,-4.288 1.506,-8.222 4.01,-11.313 v 0 h -0.007 v -0.019 c 2.62,-2.899 6.13,-7.321 6.13,-12.368 v 0 c 0,-5.047 -3.915,-9.833 -6.13,-12.369 v 0 -0.025 c -2.5,-3.091 -4.003,-7.021 -4.003,-11.306 v 0 c 0,-9.94 8.06,-18 18,-18 v 0 c 5.091,0 9.679,2.122 12.953,5.52 v 0 c 2.816,2.322 6.576,4.747 10.771,4.747 v 0 c 5.048,0 9.602,-4.071 12.138,-6.286 v 0 l 0.254,0.007 c 3.087,-2.49 7.01,-3.988 11.285,-3.988 v 0 c 9.94,0 18,8.06 18,18 v 0 c 0,4.316 -1.523,8.276 -4.057,11.377 v 0 l 0.001,0.065 c -2.855,2.905 -5.301,7.87 -5.301,12.498 v 0 c 0,4.616 2.252,8.755 5.21,11.971 v 0 c 2.589,3.118 4.147,7.121 4.147,11.489 v 0 c 0,9.941 -8.06,18 -18,18 v 0 c -4.418,0 -8.458,-1.597 -11.59,-4.237 v 0 h -0.136 c -2.855,-3.204 -7.199,-5.232 -11.826,-5.232 v 0 c -4.324,0 -8.392,1.979 -11.535,4.659 v 0 c -2.368,2.775 -3.819,6.459 -3.819,10.356 v 0 c 0,4.628 2.258,8.979 5.227,12.198 v 0 0.021 c 2.664,3.139 4.278,7.196 4.278,11.635 v 0 c 0,9.941 -8.058,18 -18,18 v 0 c -9.94,0 -18,-8.059 -18,-18 m 31.021,-82.393 c -0.235,0.247 -0.478,0.484 -0.727,0.716 v 0 c -2.478,2.797 -3.997,6.579 -3.997,10.577 v 0 c 0,4.408 2.061,8.219 4.821,11.352 v 0 c 2.812,2.313 6.556,4.715 10.731,4.715 v 0 c 4.047,0 7.967,-2.55 10.516,-4.756 v 0 c 0.49,-0.516 1.002,-1.013 1.55,-1.468 v 0 c 2.027,-2.704 3.966,-5.906 3.966,-9.603 v 0 c 0,-4.033 -2.498,-7.895 -4.633,-10.579 v 0 c -2.854,-3.023 -7.05,-4.931 -11.524,-4.931 v 0 c -3.95,0 -7.689,1.65 -10.703,3.977"
           style="fill:url(#linearGradient945);stroke:none"
           id="path947"
           inkscape:connector-curvature="0" />
      </g>
    </g>
    <path
       d="M -3.051299,131.63542 H 131.70981 V 44.030826 H -3.051299 Z"
       style="fill:#373737;fill-opacity:1;fill-rule:nonzero;stroke:none;stroke-width:0.35277778"
       id="path949"
       inkscape:connector-curvature="0" />
    <g
       id="g959"
       transform="matrix(0.35277777,0,0,-0.35277777,45.067554,71.712768)">
      <path
         d="m 0,0 c 0,-9.94 -8.059,-18 -18,-18 -9.941,0 -18,8.06 -18,18 0,9.941 8.059,18 18,18 C -8.059,18 0,9.941 0,0"
         style="fill:#efeeef;fill-opacity:1;fill-rule:nonzero;stroke:none"
         id="path961"
         inkscape:connector-curvature="0" />
    </g>
    <g
       id="g963"
       transform="matrix(0.35277777,0,0,-0.35277777,78.510992,71.712768)">
      <path
         d="m 0,0 c 0,-9.94 -8.059,-18 -18,-18 -9.941,0 -18,8.06 -18,18 0,9.941 8.059,18 18,18 C -8.059,18 0,9.941 0,0"
         style="fill:#efeeef;fill-opacity:1;fill-rule:nonzero;stroke:none"
         id="path965"
         inkscape:connector-curvature="0" />
    </g>
    <g
       id="g967"
       transform="matrix(0.35277777,0,0,-0.35277777,111.95425,71.712768)">
      <path
         d="m 0,0 c 0,-9.94 -8.059,-18 -18,-18 -9.941,0 -18,8.06 -18,18 0,9.941 8.059,18 18,18 C -8.059,18 0,9.941 0,0"
         style="fill:#efeeef;fill-opacity:1;fill-rule:nonzero;stroke:none"
         id="path969"
         inkscape:connector-curvature="0" />
    </g>
    <g
       id="g971"
       transform="matrix(0.35277777,0,0,-0.35277777,78.510992,105.15568)">
      <path
         d="m 0,0 c 0,-9.941 -8.059,-18 -18,-18 -9.941,0 -18,8.059 -18,18 0,9.94 8.059,18 18,18 C -8.059,18 0,9.94 0,0"
         style="fill:#efeeef;fill-opacity:1;fill-rule:nonzero;stroke:none"
         id="path973"
         inkscape:connector-curvature="0" />
    </g>
    <g
       id="g975"
       transform="matrix(0.35277777,0,0,-0.35277777,111.95425,105.15568)">
      <path
         d="m 0,0 c 0,-9.941 -8.059,-18 -18,-18 -9.941,0 -18,8.059 -18,18 0,9.94 8.059,18 18,18 C -8.059,18 0,9.94 0,0"
         style="fill:#efeeef;fill-opacity:1;fill-rule:nonzero;stroke:none"
         id="path977"
         inkscape:connector-curvature="0" />
    </g>
    <g
       id="g987"
       transform="matrix(0.35277777,0,0,-0.35277777,-3.051299,306.55252)">
      <g
         id="g989">
        <path
           d="m 147.8,665.688 c 0,-9.941 8.059,-18 18,-18 v 0 c 9.94,0 18,8.059 18,18 v 0 c 0,9.941 -8.06,18 -18,18 v 0 c -9.941,0 -18,-8.059 -18,-18"
           style="fill:url(#linearGradient997);stroke:none"
           id="path999"
           inkscape:connector-curvature="0" />
      </g>
    </g>
    <g
       id="g1009"
       transform="matrix(0.35277777,0,0,-0.35277777,-3.051299,306.55252)">
      <g
         id="g1011">
        <path
           d="m 147.8,618.288 c 0,-4.335 1.533,-8.309 4.086,-11.417 v 0 h -0.017 v -0.017 c 2.62,-2.9 6.129,-7.322 6.129,-12.369 v 0 c 0,-4.071 -2.547,-7.971 -4.696,-10.659 v 0 c -3.387,-3.273 -5.502,-7.856 -5.502,-12.937 v 0 c 0,-9.941 8.059,-18 18,-18 v 0 c 9.94,0 18,8.059 18,18 v 0 c 0,5.213 -2.23,9.895 -5.772,13.181 v 0 c -2.398,2.781 -3.866,6.49 -3.866,10.415 v 0 c 0,4.628 2.261,8.778 5.231,11.996 v 0 0.031 c 2.738,3.158 4.407,7.268 4.407,11.776 v 0 c 0,9.941 -8.06,18 -18,18 v 0 c -9.941,0 -18,-8.059 -18,-18"
           style="fill:url(#linearGradient1019);stroke:none"
           id="path1021"
           inkscape:connector-curvature="0" />
      </g>
    </g>
    <g
       id="g1031"
       transform="matrix(0.35277777,0,0,-0.35277777,-3.051299,306.55252)">
      <g
         id="g1033">
        <path
           d="m 242.6,665.688 c 0,-5.053 2.089,-9.613 5.442,-12.882 v 0 c 2.372,-2.838 4.915,-6.676 4.915,-10.972 v 0 c 0,-3.604 -1.997,-7.07 -3.944,-9.684 v 0 h -0.245 c -2.854,-3.203 -7.198,-5.232 -11.825,-5.232 v 0 c -4.629,0 -8.979,2.258 -12.198,5.227 v 0 l -0.061,10e-4 c -3.117,2.586 -7.118,4.142 -11.484,4.142 v 0 c -9.94,0 -18,-8.059 -18,-18 v 0 c 0,-9.94 8.06,-18 18,-18 v 0 c 5.424,0 10.276,2.411 13.577,6.206 v 0 c 2.74,2.162 6.265,4.259 10.166,4.259 v 0 c 3.762,0 7.377,-2.173 10.025,-4.198 v 0 c 0.15,-0.175 0.307,-0.342 0.464,-0.51 v 0 c 2.48,-2.877 5.326,-6.911 5.326,-11.457 v 0 c 0,-4.697 -3.39,-9.166 -5.646,-11.807 v 0 c -2.8,-3.174 -4.512,-7.329 -4.512,-11.892 v 0 c 0,-9.941 8.059,-18 18,-18 v 0 c 9.941,0 18,8.059 18,18 v 0 c 0,4.529 -1.685,8.656 -4.446,11.819 v 0 0.054 c -0.18,0.16 -0.341,0.341 -0.513,0.509 v 0 c -0.211,0.223 -0.428,0.44 -0.651,0.652 v 0 c -2.522,2.804 -4.068,6.625 -4.068,10.665 v 0 c 0,4.605 2.242,8.568 5.189,11.777 v 0 c 2.728,2.138 6.219,4.19 10.078,4.19 v 0 c 4.619,0 9.014,-3.276 11.672,-5.53 v 0 c 3.202,-2.932 7.454,-4.737 12.139,-4.737 v 0 c 9.941,0 18,8.06 18,18 v 0 c 0,9.941 -8.059,18 -18,18 v 0 c -4.471,0 -8.552,-1.64 -11.699,-4.337 v 0 h -0.287 c -2.854,-3.203 -7.198,-5.232 -11.825,-5.232 v 0 c -4.328,0 -8.079,1.988 -11.18,4.672 v 0 c -2.411,2.784 -3.889,6.506 -3.889,10.443 v 0 c 0,4.628 2.257,8.978 5.227,12.197 v 0 l 0.001,0.052 c 2.649,3.134 4.252,7.18 4.252,11.605 v 0 c 0,9.941 -8.059,18 -18,18 v 0 c -9.941,0 -18,-8.059 -18,-18"
           style="fill:url(#linearGradient1041);stroke:none"
           id="path1043"
           inkscape:connector-curvature="0" />
      </g>
    </g>
    <g
       id="g1053"
       transform="matrix(0.35277777,0,0,-0.35277777,-3.051299,306.55252)">
      <g
         id="g1055">
        <path
           d="m 53,666.097 c 0,-5.002 2.043,-9.524 5.338,-12.787 v 0 c 2.394,-2.846 4.993,-6.724 4.993,-11.067 v 0 c 0,-5.047 -3.915,-9.833 -6.13,-12.368 v 0 -0.037 C 54.582,626.711 53,622.686 53,618.288 v 0 c 0,-4.288 1.506,-8.221 4.009,-11.314 v 0 h -0.006 v -0.017 c 2.619,-2.9 6.129,-7.322 6.129,-12.369 v 0 c 0,-5.047 -3.914,-9.833 -6.129,-12.369 v 0 -0.026 C 54.503,579.103 53,575.173 53,570.889 v 0 c 0,-9.941 8.059,-18 18,-18 v 0 c 5.09,0 9.678,2.121 12.952,5.518 v 0 c 2.817,2.324 6.576,4.747 10.771,4.747 v 0 c 5.047,0 9.602,-4.07 12.138,-6.285 v 0 l 0.253,0.006 c 3.088,-2.489 7.01,-3.986 11.286,-3.986 v 0 c 9.941,0 17.999,8.059 17.999,18 v 0 c 0,4.316 -1.522,8.275 -4.055,11.377 v 0 l 0.001,0.064 c -2.857,2.904 -5.301,7.869 -5.301,12.498 v 0 c 0,4.615 2.252,8.756 5.209,11.971 v 0 c 2.589,3.117 4.146,7.121 4.146,11.489 v 0 c 0,9.941 -8.058,18 -17.999,18 v 0 c -4.417,0 -8.457,-1.596 -11.59,-4.237 v 0 h -0.137 c -2.853,-3.203 -7.198,-5.233 -11.825,-5.233 v 0 c -3.7,0 -7.212,1.454 -10.121,3.551 v 0 0.049 c -3.203,2.853 -5.233,7.197 -5.233,11.825 v 0 c 0,4.628 2.258,8.98 5.227,12.198 v 0 0.022 c 2.664,3.138 4.279,7.195 4.279,11.634 v 0 c 0,9.941 -8.059,18 -18,18 v 0 c -9.941,0 -18,-8.059 -18,-18 m 31.018,-82.8 c -0.158,0.166 -0.315,0.332 -0.479,0.491 v 0 c -2.612,2.818 -4.243,6.683 -4.243,10.8 v 0 c 0,4.408 2.061,8.218 4.822,11.352 v 0 c 2.812,2.314 6.556,4.714 10.73,4.714 v 0 c 4.046,0 7.965,-2.547 10.513,-4.752 v 0 c 0.491,-0.516 1.003,-1.013 1.552,-1.469 v 0 c 2.027,-2.706 3.967,-5.908 3.967,-9.605 v 0 c 0,-4.033 -2.497,-7.896 -4.632,-10.58 v 0 c -2.854,-3.022 -7.05,-4.93 -11.525,-4.93 v 0 c -3.95,0 -7.691,1.651 -10.705,3.979"
           style="fill:url(#linearGradient1063);stroke:none"
           id="path1065"
           inkscape:connector-curvature="0" />
      </g>
    </g>
    <g
       id="g1075"
       transform="matrix(0.35277777,0,0,-0.35277777,46.125887,70.654435)">
      <path
         d="m 0,0 c 0,-9.94 -8.059,-18 -18,-18 -9.941,0 -18,8.06 -18,18 0,9.941 8.059,18 18,18 C -8.059,18 0,9.941 0,0"
         style="fill:#f7f6f6;fill-opacity:1;fill-rule:nonzero;stroke:none"
         id="path1077"
         inkscape:connector-curvature="0" />
    </g>
    <g
       id="g1079"
       transform="matrix(0.35277777,0,0,-0.35277777,79.569325,70.654435)">
      <path
         d="m 0,0 c 0,-9.94 -8.059,-18 -18,-18 -9.941,0 -18,8.06 -18,18 0,9.941 8.059,18 18,18 C -8.059,18 0,9.941 0,0"
         style="fill:#f7f6f6;fill-opacity:1;fill-rule:nonzero;stroke:none"
         id="path1081"
         inkscape:connector-curvature="0" />
    </g>
    <g
       id="g1083"
       transform="matrix(0.35277777,0,0,-0.35277777,113.01259,70.654435)">
      <path
         d="m 0,0 c 0,-9.94 -8.059,-18 -18,-18 -9.941,0 -18,8.06 -18,18 0,9.941 8.059,18 18,18 C -8.059,18 0,9.941 0,0"
         style="fill:#f7f6f6;fill-opacity:1;fill-rule:nonzero;stroke:none"
         id="path1085"
         inkscape:connector-curvature="0" />
    </g>
    <g
       id="g1087"
       transform="matrix(0.35277777,0,0,-0.35277777,79.569325,104.09734)">
      <path
         d="m 0,0 c 0,-9.941 -8.059,-18 -18,-18 -9.941,0 -18,8.059 -18,18 0,9.94 8.059,18 18,18 C -8.059,18 0,9.94 0,0"
         style="fill:#f7f6f6;fill-opacity:1;fill-rule:nonzero;stroke:none"
         id="path1089"
         inkscape:connector-curvature="0" />
    </g>
    <g
       id="g1091"
       transform="matrix(0.35277777,0,0,-0.35277777,113.01259,104.09734)">
      <path
         d="m 0,0 c 0,-9.941 -8.059,-18 -18,-18 -9.941,0 -18,8.059 -18,18 0,9.94 8.059,18 18,18 C -8.059,18 0,9.94 0,0"
         style="fill:#f7f6f6;fill-opacity:1;fill-rule:nonzero;stroke:none"
         id="path1093"
         inkscape:connector-curvature="0" />
    </g>
    <g
       id="g1103"
       transform="matrix(0.35277777,0,0,-0.35277777,-3.051299,306.55252)">
      <g
         id="g1105">
        <path
           d="m 150.799,668.687 c 0,-9.94 8.06,-18 18,-18 v 0 c 9.942,0 18,8.06 18,18 v 0 c 0,9.942 -8.058,18 -18,18 v 0 c -9.94,0 -18,-8.058 -18,-18"
           style="fill:url(#linearGradient1113);stroke:none"
           id="path1115"
           inkscape:connector-curvature="0" />
      </g>
    </g>
    <g
       id="g1125"
       transform="matrix(0.35277777,0,0,-0.35277777,-3.051299,306.55252)">
      <g
         id="g1127">
        <path
           d="m 150.799,621.288 c 0,-4.335 1.534,-8.31 4.086,-11.417 v 0 h -0.017 v -0.018 c 2.62,-2.899 6.13,-7.321 6.13,-12.367 v 0 c 0,-4.072 -2.548,-7.973 -4.695,-10.66 v 0 c -3.388,-3.273 -5.504,-7.855 -5.504,-12.937 v 0 c 0,-9.942 8.06,-18 18,-18 v 0 c 9.942,0 18,8.058 18,18 v 0 c 0,5.212 -2.229,9.894 -5.771,13.181 v 0 c -2.397,2.782 -3.867,6.491 -3.867,10.416 v 0 c 0,4.627 2.263,8.777 5.231,11.996 v 0 0.029 c 2.739,3.159 4.407,7.269 4.407,11.777 v 0 c 0,9.94 -8.058,18 -18,18 v 0 c -9.94,0 -18,-8.06 -18,-18"
           style="fill:url(#linearGradient1135);stroke:none"
           id="path1137"
           inkscape:connector-curvature="0" />
      </g>
    </g>
    <g
       id="g1147"
       transform="matrix(0.35277777,0,0,-0.35277777,-3.051299,306.55252)">
      <g
         id="g1149">
        <path
           d="m 245.6,668.687 c 0,-5.052 2.089,-9.612 5.442,-12.881 v 0 c 2.372,-2.837 4.914,-6.677 4.914,-10.972 v 0 c 0,-3.604 -1.995,-7.071 -3.943,-9.683 v 0 h -0.244 c -2.855,-3.203 -7.199,-5.233 -11.825,-5.233 v 0 c -4.63,0 -8.98,2.258 -12.199,5.226 v 0 l -0.061,0.002 c -3.117,2.587 -7.118,4.142 -11.484,4.142 v 0 c -9.941,0 -18,-8.06 -18,-18 v 0 c 0,-9.941 8.059,-18 18,-18 v 0 c 5.424,0 10.277,2.411 13.577,6.206 v 0 c 2.74,2.162 6.264,4.26 10.167,4.26 v 0 c 3.761,0 7.376,-2.174 10.025,-4.199 v 0 c 0.149,-0.174 0.307,-0.342 0.463,-0.51 v 0 c 2.48,-2.877 5.325,-6.911 5.325,-11.457 v 0 c 0,-4.698 -3.389,-9.166 -5.644,-11.808 v 0 c -2.8,-3.172 -4.513,-7.328 -4.513,-11.891 v 0 c 0,-9.942 8.06,-18 18,-18 v 0 c 9.941,0 18,8.058 18,18 v 0 c 0,4.529 -1.685,8.656 -4.447,11.819 v 0 0.053 c -0.179,0.161 -0.34,0.341 -0.511,0.511 v 0 c -0.212,0.222 -0.429,0.439 -0.652,0.65 v 0 c -2.522,2.806 -4.069,6.627 -4.069,10.666 v 0 c 0,4.606 2.243,8.567 5.19,11.777 v 0 c 2.728,2.138 6.219,4.19 10.078,4.19 v 0 c 4.62,0 9.014,-3.276 11.671,-5.529 v 0 c 3.202,-2.934 7.455,-4.738 12.14,-4.738 v 0 c 9.942,0 18,8.059 18,18 v 0 c 0,9.94 -8.058,18 -18,18 v 0 c -4.471,0 -8.551,-1.64 -11.7,-4.337 v 0 h -0.286 c -2.854,-3.203 -7.198,-5.233 -11.825,-5.233 v 0 c -4.328,0 -8.078,1.989 -11.181,4.672 v 0 c -2.41,2.785 -3.888,6.506 -3.888,10.444 v 0 c 0,4.628 2.258,8.978 5.227,12.197 v 0 l 0.001,0.052 c 2.649,3.134 4.252,7.181 4.252,11.604 v 0 c 0,9.942 -8.059,18 -18,18 v 0 c -9.94,0 -18,-8.058 -18,-18"
           style="fill:url(#linearGradient1157);stroke:none"
           id="path1159"
           inkscape:connector-curvature="0" />
      </g>
    </g>
    <g
       id="g1169"
       transform="matrix(0.35277777,0,0,-0.35277777,-3.051299,306.55252)">
      <g
         id="g1171">
        <path
           d="m 56,669.098 c 0,-5.003 2.044,-9.526 5.338,-12.788 v 0 c 2.395,-2.846 4.993,-6.724 4.993,-11.067 v 0 c 0,-5.047 -3.914,-9.833 -6.129,-12.368 v 0 -0.037 C 57.582,629.711 56,625.685 56,621.288 v 0 c 0,-4.288 1.506,-8.222 4.008,-11.313 v 0 h -0.005 v -0.018 c 2.62,-2.901 6.129,-7.322 6.129,-12.369 v 0 c 0,-5.047 -3.914,-9.833 -6.129,-12.369 v 0 -0.026 C 57.503,582.104 56,578.173 56,573.889 v 0 c 0,-9.942 8.059,-18 18,-18 v 0 c 5.09,0 9.678,2.121 12.952,5.518 v 0 c 2.817,2.323 6.576,4.747 10.772,4.747 v 0 c 5.046,0 9.601,-4.07 12.137,-6.285 v 0 l 0.254,0.006 c 3.088,-2.49 7.009,-3.986 11.285,-3.986 v 0 c 9.941,0 18,8.058 18,18 v 0 c 0,4.316 -1.523,8.275 -4.056,11.377 v 0 l 0.001,0.064 c -2.856,2.905 -5.301,7.869 -5.301,12.498 v 0 c 0,4.615 2.252,8.756 5.21,11.971 v 0 c 2.588,3.117 4.146,7.121 4.146,11.489 v 0 c 0,9.94 -8.059,18 -18,18 v 0 c -4.417,0 -8.457,-1.597 -11.589,-4.237 v 0 h -0.137 c -2.855,-3.203 -7.198,-5.233 -11.825,-5.233 v 0 c -3.702,0 -7.214,1.455 -10.122,3.551 v 0 0.049 c -3.204,2.853 -5.232,7.197 -5.232,11.825 v 0 c 0,4.628 2.257,8.98 5.225,12.198 v 0 l 0.001,0.022 c 2.664,3.139 4.279,7.195 4.279,11.635 v 0 c 0,9.94 -8.059,18 -18,18 v 0 c -9.941,0 -18,-8.06 -18,-18 m 31.018,-82.801 c -0.158,0.165 -0.315,0.332 -0.479,0.491 v 0 c -2.612,2.817 -4.243,6.683 -4.243,10.8 v 0 c 0,4.408 2.061,8.218 4.821,11.352 v 0 c 2.813,2.314 6.557,4.714 10.732,4.714 v 0 c 4.045,0 7.965,-2.547 10.512,-4.752 v 0 c 0.491,-0.516 1.003,-1.013 1.552,-1.47 v 0 c 2.026,-2.706 3.968,-5.906 3.968,-9.604 v 0 c 0,-4.033 -2.499,-7.895 -4.634,-10.58 v 0 c -2.853,-3.021 -7.049,-4.93 -11.523,-4.93 v 0 c -3.95,0 -7.692,1.651 -10.706,3.979"
           style="fill:url(#linearGradient1179);stroke:none"
           id="path1181"
           inkscape:connector-curvature="0" />
      </g>
    </g>
    <path
       d="M 131.70981,306.55252 H -3.051299 v -87.6046 H 131.70981 Z"
       style="fill:#000000;fill-opacity:1;fill-rule:nonzero;stroke:none;stroke-width:0.35277778"
       id="path1191"
       inkscape:connector-curvature="0" />
    <path
       inkscape:connector-curvature="0"
       id="path1195"
       style="fill:#ffffff;fill-opacity:1;fill-rule:nonzero;stroke:none;stroke-width:0.35277778"
       d="m 46.126063,245.57157 c 0,3.50696 -2.843389,6.35 -6.35,6.35 -3.506963,0 -6.349999,-2.84304 -6.349999,-6.35 0,-3.50697 2.843036,-6.35 6.349999,-6.35 3.506611,0 6.35,2.84303 6.35,6.35" />
    <path
       inkscape:connector-curvature="0"
       id="path1199"
       style="fill:#ffffff;fill-opacity:1;fill-rule:nonzero;stroke:none;stroke-width:0.35277778"
       d="m 79.569325,245.57157 c 0,3.50696 -2.843389,6.35 -6.35,6.35 -3.506611,0 -6.349999,-2.84304 -6.349999,-6.35 0,-3.50697 2.843388,-6.35 6.349999,-6.35 3.506611,0 6.35,2.84303 6.35,6.35" />
    <path
       inkscape:connector-curvature="0"
       id="path1203"
       style="fill:#ffffff;fill-opacity:1;fill-rule:nonzero;stroke:none;stroke-width:0.35277778"
       d="m 113.01259,245.57157 c 0,3.50696 -2.84304,6.35 -6.35,6.35 -3.50697,0 -6.35,-2.84304 -6.35,-6.35 0,-3.50697 2.84303,-6.35 6.35,-6.35 3.50696,0 6.35,2.84303 6.35,6.35" />
    <path
       inkscape:connector-curvature="0"
       id="path1207"
       style="fill:#ffffff;fill-opacity:1;fill-rule:nonzero;stroke:none;stroke-width:0.35277778"
       d="m 79.569325,279.01483 c 0,3.50661 -2.843389,6.35 -6.35,6.35 -3.506611,0 -6.349999,-2.84339 -6.349999,-6.35 0,-3.50661 2.843388,-6.35 6.349999,-6.35 3.506611,0 6.35,2.84339 6.35,6.35" />
    <path
       inkscape:connector-curvature="0"
       id="path1211"
       style="fill:#ffffff;fill-opacity:1;fill-rule:nonzero;stroke:none;stroke-width:0.35277778"
       d="m 113.01259,279.01483 c 0,3.50661 -2.84304,6.35 -6.35,6.35 -3.50697,0 -6.35,-2.84339 -6.35,-6.35 0,-3.50661 2.84303,-6.35 6.35,-6.35 3.50696,0 6.35,2.84339 6.35,6.35" />
    <path
       inkscape:connector-curvature="0"
       id="path1215"
       style="fill:#ffffff;fill-opacity:1;fill-rule:nonzero;stroke:none;stroke-width:0.35277778"
       d="m 62.847518,245.57157 c 0,3.50696 -2.843389,6.35 -6.35,6.35 -3.506611,0 -6.35,-2.84304 -6.35,-6.35 0,-3.50697 2.843389,-6.35 6.35,-6.35 3.506611,0 6.35,2.84303 6.35,6.35" />
    <path
       inkscape:connector-curvature="0"
       id="path1219"
       style="fill:#ffffff;fill-opacity:1;fill-rule:nonzero;stroke:none;stroke-width:0.35277778"
       d="m 60.811108,274.3643 c -0.845255,-0.98072 -1.363486,-2.28953 -1.363486,-3.67383 0,-1.63301 0.797631,-3.09633 1.845028,-4.23192 v -0.0109 c 0.966258,-1.11442 1.554691,-2.56398 1.554691,-4.15431 0,-3.50696 -2.843036,-6.35 -6.349999,-6.35 -3.506611,0 -6.35,2.84304 -6.35,6.35 0,1.52894 0.541514,2.93123 1.44145,4.02731 h -0.0056 v 0.006 c 0.923925,1.02306 2.162175,2.58304 2.162175,4.36351 0,1.43616 -0.898525,2.81235 -1.656644,3.76026 -1.194858,1.15464 -1.941336,2.77107 -1.941336,4.56424 0,3.50661 2.843389,6.35 6.35,6.35 3.506963,0 6.349999,-2.84339 6.349999,-6.35 0,-1.83938 -0.786341,-3.49109 -2.036233,-4.65067" />
    <path
       inkscape:connector-curvature="0"
       id="path1223"
       style="fill:#ffffff;fill-opacity:1;fill-rule:nonzero;stroke:none;stroke-width:0.35277778"
       d="m 106.66259,255.94337 c -1.57727,0 -3.01696,0.57821 -4.12715,1.52965 h -0.10089 c -1.00718,1.12995 -2.539651,1.84573 -4.171954,1.84573 -1.526822,0 -2.850092,-0.70132 -3.944055,-1.64818 -0.850548,-0.98178 -1.371953,-2.29482 -1.371953,-3.68405 0,-1.63231 0.796219,-3.16724 1.843969,-4.30283 l 3.53e-4,-0.018 c 0.934508,-1.10595 1.500011,-2.53329 1.500011,-4.09398 0,-3.50732 -2.843036,-6.35 -6.35,-6.35 -3.506964,0 -6.35,2.84268 -6.35,6.35 0,1.78223 0.736953,3.39125 1.919817,4.54448 0.836789,1.00048 1.733903,2.35515 1.733903,3.87033 0,1.27176 -0.704145,2.49413 -1.391356,3.4163 h -0.08608 c -1.00718,1.1303 -2.539647,1.84573 -4.17195,1.84573 -1.633008,0 -3.167591,-0.79622 -4.303183,-1.84362 l -0.02152,-7e-4 c -1.099609,-0.91193 -2.511072,-1.46086 -4.0513,-1.46086 -3.506611,0 -6.35,2.84304 -6.35,6.35 0,3.50661 2.843389,6.35 6.35,6.35 1.913819,0 3.625497,-0.85054 4.789664,-2.18969 0.966964,-0.7627 2.2098,-1.50283 3.586338,-1.50283 1.32715,0 2.602442,0.76729 3.53695,1.48131 0.05256,0.0614 0.10795,0.12065 0.163336,0.18027 0.874889,1.01459 1.878895,2.43805 1.878895,4.04142 0,1.657 -1.195917,3.23392 -1.991783,4.16596 -0.987778,1.11936 -1.591734,2.58515 -1.591734,4.19488 0,3.50696 2.843036,6.35 6.35,6.35 3.506964,0 6.35,-2.84304 6.35,-6.35 0,-1.59773 -0.594431,-3.05365 -1.568803,-4.16948 v -0.0194 c -0.06279,-0.0564 -0.120297,-0.11959 -0.180269,-0.17921 -0.07479,-0.079 -0.151342,-0.15557 -0.230011,-0.23001 -0.889706,-0.98919 -1.4351,-2.33786 -1.4351,-3.76273 0,-1.62454 0.790928,-3.02189 1.830564,-4.15466 0.962377,-0.75389 2.193925,-1.47814 3.555294,-1.47814 1.629833,0 3.179937,1.1557 4.117277,1.95086 1.12959,1.0347 2.62995,1.67146 4.28272,1.67146 3.50696,0 6.35,-2.84339 6.35,-6.35 0,-3.50696 -2.84304,-6.35 -6.35,-6.35" />
    <path
       inkscape:connector-curvature="0"
       id="path1227"
       style="fill:#ffffff;fill-opacity:1;fill-rule:nonzero;stroke:none;stroke-width:0.35277778"
       d="m 27.646752,274.63749 c -0.05574,-0.0586 -0.111125,-0.11712 -0.16898,-0.17321 -0.921456,-0.99413 -1.496836,-2.35762 -1.496836,-3.81036 0,-1.55469 0.727075,-2.89912 1.700741,-4.00473 0.992364,-0.81597 2.313164,-1.66299 3.786011,-1.66299 1.426986,0 2.809522,0.89817 3.7084,1.6764 0.172861,0.18238 0.353484,0.35771 0.547511,0.51858 0.714728,0.95426 1.399823,2.08386 1.399823,3.38843 0,1.4224 -0.881239,2.78518 -1.63442,3.73204 -1.00718,1.06609 -2.487436,1.73919 -4.065411,1.73919 -1.393825,0 -2.713567,-0.58243 -3.776839,-1.40335 m 17.048692,0.34114 c -1.007887,-1.02482 -1.870075,-2.77636 -1.870075,-4.40902 0,-1.62842 0.794102,-3.08892 1.837972,-4.22345 0.912989,-1.09961 1.462616,-2.51214 1.462616,-4.05272 0,-3.50731 -2.843036,-6.35 -6.349999,-6.35 -1.558573,0 -2.983442,0.56304 -4.088695,1.49437 h -0.04798 c -1.00718,1.1303 -2.539294,1.84609 -4.171597,1.84609 -1.305983,0 -2.544939,-0.51294 -3.571169,-1.25236 v -0.0173 c -1.129947,-1.00718 -1.845381,-2.53929 -1.845381,-4.1716 0,-1.63301 0.79622,-3.16794 1.843617,-4.30353 v -0.007 c 0.9398,-1.10737 1.509536,-2.53859 1.509536,-4.10457 0,-3.50661 -2.843036,-6.35 -6.35,-6.35 -3.506964,0 -6.35,2.84339 -6.35,6.35 0,1.76495 0.720725,3.36056 1.883128,4.51132 0.84455,1.00401 1.76142,2.37173 1.76142,3.90419 0,1.78047 -1.381125,3.46851 -2.162175,4.36316 v 0.0127 c -0.924278,1.10313 -1.482373,2.52306 -1.482373,4.07493 0,1.51272 0.530931,2.90019 1.414286,3.99098 h -0.0021 v 0.006 c 0.923925,1.0227 2.162175,2.58269 2.162175,4.36315 0,1.78047 -1.380772,3.46922 -2.162175,4.36351 v 0.009 c -0.881945,1.09008 -1.41217,2.47685 -1.41217,3.98815 0,3.50696 2.843036,6.35 6.35,6.35 1.795639,0 3.414184,-0.7486 4.569178,-1.94663 0.993422,-0.81986 2.319867,-1.67499 3.800122,-1.67499 1.780117,0 3.387019,1.43616 4.281664,2.21756 l 0.0896,-0.002 c 1.089378,0.87842 2.472973,1.40653 3.981098,1.40653 3.506963,0 6.349999,-2.84304 6.349999,-6.35 0,-1.52259 -0.53728,-2.91924 -1.430866,-4.01355 z" />
    <path
       d="M 131.70981,219.09397 H -3.051299 V 131.48973 H 131.70981 Z"
       style="fill:#ffffff;fill-opacity:1;fill-rule:nonzero;stroke:none;stroke-width:0.35277778"
       id="path1229"
       inkscape:connector-curvature="0" />
    <path
       inkscape:connector-curvature="0"
       id="path1233"
       style="fill:#1a171b;fill-opacity:1;fill-rule:nonzero;stroke:none;stroke-width:0.35277778"
       d="m 46.126063,158.11334 c 0,3.50696 -2.843389,6.35 -6.35,6.35 -3.506963,0 -6.349999,-2.84304 -6.349999,-6.35 0,-3.50697 2.843036,-6.35 6.349999,-6.35 3.506611,0 6.35,2.84303 6.35,6.35" />
    <path
       inkscape:connector-curvature="0"
       id="path1237"
       style="fill:#1a171b;fill-opacity:1;fill-rule:nonzero;stroke:none;stroke-width:0.35277778"
       d="m 79.569325,158.11334 c 0,3.50696 -2.843389,6.35 -6.35,6.35 -3.506611,0 -6.349999,-2.84304 -6.349999,-6.35 0,-3.50697 2.843388,-6.35 6.349999,-6.35 3.506611,0 6.35,2.84303 6.35,6.35" />
    <path
       inkscape:connector-curvature="0"
       id="path1241"
       style="fill:#1a171b;fill-opacity:1;fill-rule:nonzero;stroke:none;stroke-width:0.35277778"
       d="m 113.01259,158.11334 c 0,3.50696 -2.84304,6.35 -6.35,6.35 -3.50697,0 -6.35,-2.84304 -6.35,-6.35 0,-3.50697 2.84303,-6.35 6.35,-6.35 3.50696,0 6.35,2.84303 6.35,6.35" />
    <path
       inkscape:connector-curvature="0"
       id="path1245"
       style="fill:#1a171b;fill-opacity:1;fill-rule:nonzero;stroke:none;stroke-width:0.35277778"
       d="m 79.569325,191.5566 c 0,3.50626 -2.843389,6.35 -6.35,6.35 -3.506611,0 -6.349999,-2.84374 -6.349999,-6.35 0,-3.50697 2.843388,-6.35 6.349999,-6.35 3.506611,0 6.35,2.84303 6.35,6.35" />
    <path
       inkscape:connector-curvature="0"
       id="path1249"
       style="fill:#1a171b;fill-opacity:1;fill-rule:nonzero;stroke:none;stroke-width:0.35277778"
       d="m 113.01259,191.5566 c 0,3.50626 -2.84304,6.35 -6.35,6.35 -3.50697,0 -6.35,-2.84374 -6.35,-6.35 0,-3.50697 2.84303,-6.35 6.35,-6.35 3.50696,0 6.35,2.84303 6.35,6.35" />
    <path
       inkscape:connector-curvature="0"
       id="path1253"
       style="fill:#1a171b;fill-opacity:1;fill-rule:nonzero;stroke:none;stroke-width:0.35277778"
       d="m 62.847518,158.11334 c 0,3.50696 -2.843389,6.35 -6.35,6.35 -3.506611,0 -6.35,-2.84304 -6.35,-6.35 0,-3.50697 2.843389,-6.35 6.35,-6.35 3.506611,0 6.35,2.84303 6.35,6.35" />
    <path
       inkscape:connector-curvature="0"
       id="path1257"
       style="fill:#1a171b;fill-opacity:1;fill-rule:nonzero;stroke:none;stroke-width:0.35277778"
       d="m 60.811108,186.90575 c -0.845255,-0.98037 -1.363486,-2.28953 -1.363486,-3.67383 0,-1.633 0.797631,-3.09633 1.845028,-4.23192 v -0.0109 c 0.966258,-1.11443 1.554691,-2.56399 1.554691,-4.15431 0,-3.50662 -2.843036,-6.34965 -6.349999,-6.34965 -3.506611,0 -6.35,2.84303 -6.35,6.34965 0,1.52893 0.541514,2.93123 1.44145,4.02731 h -0.0056 v 0.006 c 0.923925,1.02305 2.162175,2.58303 2.162175,4.3635 0,1.43652 -0.898525,2.8127 -1.656644,3.76062 -1.194858,1.15428 -1.941336,2.77071 -1.941336,4.56423 0,3.50626 2.843389,6.35 6.35,6.35 3.506963,0 6.349999,-2.84374 6.349999,-6.35 0,-1.83973 -0.786341,-3.49144 -2.036233,-4.65102" />
    <path
       inkscape:connector-curvature="0"
       id="path1261"
       style="fill:#1a171b;fill-opacity:1;fill-rule:nonzero;stroke:none;stroke-width:0.35277778"
       d="m 106.66259,168.48514 c -1.57727,0 -3.01661,0.57821 -4.12715,1.52965 h -0.10054 c -1.00753,1.12994 -2.540001,1.84538 -4.172304,1.84538 -1.526822,0 -2.850092,-0.70097 -3.944055,-1.64783 -0.850548,-0.98178 -1.371953,-2.29482 -1.371953,-3.68405 0,-1.63231 0.796219,-3.16724 1.843969,-4.30284 l 3.53e-4,-0.018 c 0.934508,-1.10596 1.500011,-2.53294 1.500011,-4.09398 0,-3.50732 -2.843036,-6.35 -6.35,-6.35 -3.506964,0 -6.35,2.84268 -6.35,6.35 0,1.78223 0.736953,3.39125 1.919817,4.54448 0.836789,1.00048 1.733903,2.35514 1.733903,3.87033 0,1.27211 -0.704145,2.49413 -1.391356,3.41629 h -0.08608 c -1.00718,1.13066 -2.539647,1.84539 -4.17195,1.84539 -1.633008,0 -3.167591,-0.79552 -4.303183,-1.84327 l -0.02152,-7e-4 c -1.099609,-0.91158 -2.511072,-1.46086 -4.0513,-1.46086 -3.506611,0 -6.35,2.84304 -6.35,6.34965 0,3.50696 2.843389,6.35 6.35,6.35 1.913819,0 3.625497,-0.85019 4.789664,-2.18969 0.966964,-0.76271 2.2098,-1.50283 3.586338,-1.50283 1.32715,0 2.602442,0.76764 3.53695,1.48131 0.05256,0.0614 0.10795,0.12065 0.163336,0.18062 0.874889,1.01424 1.878895,2.4377 1.878895,4.04107 0,1.65735 -1.195917,3.23427 -1.991783,4.16595 -0.987778,1.11972 -1.591734,2.58516 -1.591734,4.19524 0,3.50661 2.843036,6.35 6.35,6.35 3.506964,0 6.35,-2.84339 6.35,-6.35 0,-1.59773 -0.594431,-3.05365 -1.568803,-4.16984 v -0.0194 c -0.06279,-0.0564 -0.120297,-0.11959 -0.180269,-0.17886 -0.07479,-0.0794 -0.151342,-0.15593 -0.230011,-0.23036 -0.889706,-0.98919 -1.4351,-2.33786 -1.4351,-3.76273 0,-1.62454 0.790928,-3.02189 1.830564,-4.15466 0.962377,-0.75389 2.193925,-1.47814 3.555294,-1.47814 1.629833,0 3.179937,1.1557 4.117627,1.95086 1.12924,1.0347 2.62996,1.67146 4.28237,1.67146 3.50696,0 6.35,-2.84304 6.35,-6.35 0,-3.50661 -2.84304,-6.34965 -6.35,-6.34965" />
    <path
       inkscape:connector-curvature="0"
       id="path1265"
       style="fill:#1a171b;fill-opacity:1;fill-rule:nonzero;stroke:none;stroke-width:0.35277778"
       d="m 27.646752,187.17926 c -0.05574,-0.0586 -0.111125,-0.11712 -0.16898,-0.17357 -0.921456,-0.99377 -1.496836,-2.35726 -1.496836,-3.81035 0,-1.55434 0.727075,-2.89877 1.700741,-4.00473 0.992364,-0.81562 2.313164,-1.663 3.786011,-1.663 1.426986,0 2.809522,0.89853 3.7084,1.6764 0.172861,0.18239 0.353484,0.35807 0.547511,0.51859 0.714728,0.95426 1.399823,2.08386 1.399823,3.38878 0,1.42205 -0.881239,2.78483 -1.63442,3.73168 -1.00718,1.06645 -2.487436,1.7392 -4.065411,1.7392 -1.393825,0 -2.713567,-0.58244 -3.776839,-1.403 m 17.048692,0.34114 c -1.007887,-1.02518 -1.870075,-2.77672 -1.870075,-4.40902 0,-1.62877 0.794102,-3.08892 1.837972,-4.22381 0.912989,-1.09961 1.462616,-2.51213 1.462616,-4.05271 0,-3.50696 -2.843036,-6.34965 -6.349999,-6.34965 -1.558573,0 -2.983442,0.56339 -4.088695,1.49437 h -0.04798 c -1.00718,1.13065 -2.539294,1.84573 -4.171597,1.84573 -1.305983,0 -2.544939,-0.51258 -3.571169,-1.25165 v -0.0173 c -1.129947,-1.00753 -1.845381,-2.53965 -1.845381,-4.17195 0,-1.63301 0.79622,-3.16759 1.843617,-4.30318 v -0.007 c 0.9398,-1.10737 1.509536,-2.53894 1.509536,-4.10457 0,-3.50696 -2.843036,-6.35 -6.35,-6.35 -3.506964,0 -6.35,2.84304 -6.35,6.35 0,1.7646 0.720725,3.36056 1.883128,4.51097 0.84455,1.00401 1.76142,2.37173 1.76142,3.90419 0,1.78047 -1.381125,3.46851 -2.162175,4.36351 v 0.0123 c -0.924278,1.10278 -1.482373,2.52271 -1.482373,4.07458 0,1.51306 0.530931,2.90054 1.414286,3.99133 h -0.0021 v 0.006 c 0.923925,1.02235 2.162175,2.58233 2.162175,4.3628 0,1.78047 -1.380772,3.46922 -2.162175,4.36351 v 0.009 c -0.881945,1.09044 -1.41217,2.47685 -1.41217,3.98851 0,3.50661 2.843036,6.35 6.35,6.35 1.795639,0 3.414184,-0.74895 4.569178,-1.94698 0.993422,-0.81951 2.319867,-1.67499 3.800122,-1.67499 1.780117,0 3.387019,1.43651 4.281664,2.21791 l 0.0896,-0.003 c 1.089378,0.87842 2.472973,1.40688 3.981098,1.40688 3.506963,0 6.349999,-2.84339 6.349999,-6.35 0,-1.52259 -0.53728,-2.91924 -1.430866,-4.01356 z" />
    <path
       d="M 266.12273,131.63542 H 131.36162 V 44.030826 h 134.76111 z"
       style="fill:#373737;fill-opacity:1;fill-rule:nonzero;stroke:none;stroke-width:0.35277778"
       id="path1267"
       inkscape:connector-curvature="0" />
    <path
       d="M 266.12273,219.09397 H 131.36162 v -87.60424 h 134.76111 z"
       style="fill:#ffffff;fill-opacity:1;fill-rule:nonzero;stroke:none;stroke-width:0.35277778"
       id="path1271"
       inkscape:connector-curvature="0" />
    <path
       inkscape:connector-curvature="0"
       id="path1275"
       style="fill:#efeeef;fill-opacity:1;fill-rule:nonzero;stroke:none;stroke-width:0.35277778"
       d="m 179.15083,65.009991 c 0,3.506611 -2.84374,6.349999 -6.35,6.349999 -3.50696,0 -6.35,-2.843388 -6.35,-6.349999 0,-3.506964 2.84304,-6.35 6.35,-6.35 3.50626,0 6.35,2.843036 6.35,6.35" />
    <path
       inkscape:connector-curvature="0"
       id="path1279"
       style="fill:#efeeef;fill-opacity:1;fill-rule:nonzero;stroke:none;stroke-width:0.35277778"
       d="m 212.59374,65.009991 c 0,3.506611 -2.84303,6.349999 -6.35,6.349999 -3.50625,0 -6.35,-2.843388 -6.35,-6.349999 0,-3.506964 2.84375,-6.35 6.35,-6.35 3.50697,0 6.35,2.843036 6.35,6.35" />
    <path
       inkscape:connector-curvature="0"
       id="path1283"
       style="fill:#efeeef;fill-opacity:1;fill-rule:nonzero;stroke:none;stroke-width:0.35277778"
       d="m 246.03736,65.009991 c 0,3.506611 -2.84304,6.349999 -6.35,6.349999 -3.50697,0 -6.35,-2.843388 -6.35,-6.349999 0,-3.506964 2.84303,-6.35 6.35,-6.35 3.50696,0 6.35,2.843036 6.35,6.35" />
    <path
       inkscape:connector-curvature="0"
       id="path1287"
       style="fill:#efeeef;fill-opacity:1;fill-rule:nonzero;stroke:none;stroke-width:0.35277778"
       d="m 212.59374,98.4529 c 0,3.50696 -2.84303,6.35 -6.35,6.35 -3.50625,0 -6.35,-2.84304 -6.35,-6.35 0,-3.506611 2.84375,-6.35 6.35,-6.35 3.50697,0 6.35,2.843389 6.35,6.35" />
    <path
       inkscape:connector-curvature="0"
       id="path1291"
       style="fill:#efeeef;fill-opacity:1;fill-rule:nonzero;stroke:none;stroke-width:0.35277778"
       d="m 246.03736,98.4529 c 0,3.50696 -2.84304,6.35 -6.35,6.35 -3.50697,0 -6.35,-2.84304 -6.35,-6.35 0,-3.506611 2.84303,-6.35 6.35,-6.35 3.50696,0 6.35,2.843389 6.35,6.35" />
    <g
       id="g1301"
       transform="matrix(0.35277777,0,0,-0.35277777,-3.051299,306.55252)">
      <g
         id="g1303">
        <path
           d="m 527.877,684.688 c 0,-9.941 8.06,-18 18,-18 v 0 c 9.941,0 18,8.059 18,18 v 0 c 0,9.941 -8.059,18 -18,18 v 0 c -9.94,0 -18,-8.059 -18,-18"
           style="fill:url(#linearGradient1311);stroke:none"
           id="path1313"
           inkscape:connector-curvature="0" />
      </g>
    </g>
    <g
       id="g1323"
       transform="matrix(0.35277777,0,0,-0.35277777,-3.051299,306.55252)">
      <g
         id="g1325">
        <path
           d="m 527.877,637.288 c 0,-4.335 1.535,-8.31 4.086,-11.417 v 0 h -0.015 v -0.017 c 2.619,-2.9 6.128,-7.322 6.128,-12.369 v 0 c 0,-4.071 -2.546,-7.971 -4.696,-10.659 v 0 c -3.388,-3.273 -5.503,-7.855 -5.503,-12.937 v 0 c 0,-9.942 8.06,-18 18,-18 v 0 c 9.941,0 18,8.058 18,18 v 0 c 0,5.213 -2.228,9.894 -5.772,13.181 v 0 c -2.396,2.781 -3.865,6.49 -3.865,10.415 v 0 c 0,4.629 2.261,8.778 5.231,11.996 v 0 0.031 c 2.738,3.158 4.406,7.268 4.406,11.776 v 0 c 0,9.941 -8.059,18 -18,18 v 0 c -9.94,0 -18,-8.059 -18,-18"
           style="fill:url(#linearGradient1333);stroke:none"
           id="path1335"
           inkscape:connector-curvature="0" />
      </g>
    </g>
    <g
       id="g1345"
       transform="matrix(0.35277777,0,0,-0.35277777,-3.051299,306.55252)">
      <g
         id="g1347">
        <path
           d="m 622.678,684.688 c 0,-5.053 2.089,-9.612 5.441,-12.882 v 0 c 2.373,-2.837 4.916,-6.676 4.916,-10.972 v 0 c 0,-3.604 -1.996,-7.07 -3.945,-9.684 v 0 h -0.245 c -2.853,-3.203 -7.197,-5.232 -11.824,-5.232 v 0 c -4.629,0 -8.98,2.257 -12.198,5.227 v 0 l -0.062,10e-4 c -3.116,2.586 -7.117,4.142 -11.484,4.142 v 0 c -9.939,0 -18,-8.059 -18,-18 v 0 c 0,-9.94 8.061,-18 18,-18 v 0 c 5.426,0 10.277,2.411 13.579,6.206 v 0 c 2.74,2.162 6.263,4.26 10.165,4.26 v 0 c 3.762,0 7.377,-2.174 10.026,-4.199 v 0 c 0.149,-0.174 0.306,-0.342 0.463,-0.51 v 0 c 2.48,-2.877 5.326,-6.912 5.326,-11.457 v 0 c 0,-4.697 -3.39,-9.166 -5.647,-11.808 v 0 c -2.799,-3.173 -4.511,-7.328 -4.511,-11.891 v 0 c 0,-9.942 8.058,-18 18,-18 v 0 c 9.941,0 18,8.058 18,18 v 0 c 0,4.529 -1.686,8.656 -4.447,11.819 v 0 0.054 c -0.179,0.16 -0.34,0.341 -0.512,0.51 v 0 c -0.211,0.222 -0.428,0.439 -0.651,0.651 v 0 c -2.523,2.805 -4.068,6.625 -4.068,10.665 v 0 c 0,4.605 2.242,8.568 5.189,11.777 v 0 c 2.727,2.138 6.219,4.19 10.078,4.19 v 0 c 4.619,0 9.014,-3.276 11.671,-5.529 v 0 c 3.203,-2.933 7.454,-4.738 12.14,-4.738 v 0 c 9.941,0 18,8.06 18,18 v 0 c 0,9.941 -8.059,18 -18,18 v 0 c -4.47,0 -8.553,-1.64 -11.699,-4.337 v 0 h -0.287 c -2.853,-3.203 -7.198,-5.232 -11.825,-5.232 v 0 c -4.328,0 -8.08,1.988 -11.181,4.671 v 0 c -2.41,2.785 -3.889,6.506 -3.889,10.444 v 0 c 0,4.628 2.258,8.978 5.227,12.197 v 0 l 0.002,0.052 c 2.648,3.134 4.252,7.181 4.252,11.605 v 0 c 0,9.941 -8.059,18 -18,18 v 0 c -9.942,0 -18,-8.059 -18,-18"
           style="fill:url(#linearGradient1355);stroke:none"
           id="path1357"
           inkscape:connector-curvature="0" />
      </g>
    </g>
    <g
       id="g1367"
       transform="matrix(0.35277777,0,0,-0.35277777,-3.051299,306.55252)">
      <g
         id="g1369">
        <path
           d="m 433.078,685.098 c 0,-5.003 2.043,-9.526 5.338,-12.788 v 0 c 2.394,-2.846 4.992,-6.724 4.992,-11.067 v 0 c 0,-5.047 -3.914,-9.833 -6.129,-12.368 v 0 -0.037 c -2.619,-3.127 -4.201,-7.152 -4.201,-11.55 v 0 c 0,-4.288 1.506,-8.221 4.008,-11.314 v 0 h -0.005 v -0.017 c 2.62,-2.901 6.13,-7.322 6.13,-12.369 v 0 c 0,-5.047 -3.917,-9.833 -6.13,-12.369 v 0 -0.025 c -2.501,-3.091 -4.003,-7.021 -4.003,-11.305 v 0 c 0,-9.942 8.059,-18 18,-18 v 0 c 5.09,0 9.678,2.121 12.951,5.519 v 0 c 2.816,2.322 6.576,4.746 10.771,4.746 v 0 c 5.048,0 9.602,-4.07 12.14,-6.284 v 0 l 0.253,0.005 c 3.088,-2.49 7.01,-3.986 11.285,-3.986 v 0 c 9.94,0 18,8.058 18,18 v 0 c 0,4.316 -1.523,8.275 -4.056,11.377 v 0 0.065 c -2.856,2.904 -5.301,7.868 -5.301,12.497 v 0 c 0,4.615 2.252,8.756 5.211,11.971 v 0 c 2.588,3.117 4.146,7.121 4.146,11.489 v 0 c 0,9.941 -8.06,18 -18,18 v 0 c -4.418,0 -8.457,-1.596 -11.59,-4.237 v 0 h -0.137 c -2.854,-3.203 -7.199,-5.233 -11.825,-5.233 v 0 c -3.701,0 -7.213,1.455 -10.121,3.551 v 0 0.049 c -3.203,2.853 -5.233,7.197 -5.233,11.825 v 0 c 0,4.628 2.259,8.98 5.227,12.198 v 0 0.022 c 2.664,3.138 4.279,7.195 4.279,11.635 v 0 c 0,9.941 -8.058,18 -18,18 v 0 c -9.941,0 -18,-8.059 -18,-18 m 31.018,-82.801 c -0.159,0.166 -0.315,0.332 -0.479,0.492 v 0 c -2.611,2.816 -4.244,6.682 -4.244,10.799 v 0 c 0,4.408 2.062,8.218 4.823,11.352 v 0 c 2.812,2.314 6.556,4.714 10.73,4.714 v 0 c 4.047,0 7.965,-2.547 10.513,-4.752 v 0 c 0.491,-0.516 1.002,-1.013 1.551,-1.469 v 0 c 2.028,-2.707 3.969,-5.908 3.969,-9.605 v 0 c 0,-4.033 -2.498,-7.896 -4.633,-10.58 v 0 c -2.855,-3.022 -7.051,-4.93 -11.526,-4.93 v 0 c -3.949,0 -7.691,1.651 -10.704,3.979"
           style="fill:url(#linearGradient1377);stroke:none"
           id="path1379"
           inkscape:connector-curvature="0" />
      </g>
    </g>
    <g
       id="g1389"
       transform="matrix(0.35277777,0,0,-0.35277777,180.20917,63.951657)">
      <path
         d="m 0,0 c 0,-9.94 -8.061,-18 -18,-18 -9.941,0 -18,8.06 -18,18 0,9.941 8.059,18 18,18 C -8.061,18 0,9.941 0,0"
         style="fill:#f7f6f6;fill-opacity:1;fill-rule:nonzero;stroke:none"
         id="path1391"
         inkscape:connector-curvature="0" />
    </g>
    <g
       id="g1393"
       transform="matrix(0.35277777,0,0,-0.35277777,213.65208,63.951657)">
      <path
         d="m 0,0 c 0,-9.94 -8.059,-18 -18,-18 -9.939,0 -18,8.06 -18,18 0,9.941 8.061,18 18,18 C -8.059,18 0,9.941 0,0"
         style="fill:#f7f6f6;fill-opacity:1;fill-rule:nonzero;stroke:none"
         id="path1395"
         inkscape:connector-curvature="0" />
    </g>
    <g
       id="g1397"
       transform="matrix(0.35277777,0,0,-0.35277777,247.09569,63.951657)">
      <path
         d="m 0,0 c 0,-9.94 -8.059,-18 -18,-18 -9.941,0 -18,8.06 -18,18 0,9.941 8.059,18 18,18 C -8.059,18 0,9.941 0,0"
         style="fill:#f7f6f6;fill-opacity:1;fill-rule:nonzero;stroke:none"
         id="path1399"
         inkscape:connector-curvature="0" />
    </g>
    <g
       id="g1401"
       transform="matrix(0.35277777,0,0,-0.35277777,213.65208,97.394567)">
      <path
         d="m 0,0 c 0,-9.941 -8.059,-18 -18,-18 -9.939,0 -18,8.059 -18,18 0,9.94 8.061,18 18,18 C -8.059,18 0,9.94 0,0"
         style="fill:#f7f6f6;fill-opacity:1;fill-rule:nonzero;stroke:none"
         id="path1403"
         inkscape:connector-curvature="0" />
    </g>
    <g
       id="g1405"
       transform="matrix(0.35277777,0,0,-0.35277777,247.09569,97.394567)">
      <path
         d="m 0,0 c 0,-9.941 -8.059,-18 -18,-18 -9.941,0 -18,8.059 -18,18 0,9.94 8.059,18 18,18 C -8.059,18 0,9.94 0,0"
         style="fill:#f7f6f6;fill-opacity:1;fill-rule:nonzero;stroke:none"
         id="path1407"
         inkscape:connector-curvature="0" />
    </g>
    <g
       id="g1417"
       transform="matrix(0.35277777,0,0,-0.35277777,-3.051299,306.55252)">
      <g
         id="g1419">
        <path
           d="m 530.877,687.687 c 0,-9.94 8.06,-18 18,-18 v 0 c 9.941,0 18,8.06 18,18 v 0 c 0,9.942 -8.059,18 -18,18 v 0 c -9.94,0 -18,-8.058 -18,-18"
           style="fill:url(#linearGradient1427);stroke:none"
           id="path1429"
           inkscape:connector-curvature="0" />
      </g>
    </g>
    <g
       id="g1439"
       transform="matrix(0.35277777,0,0,-0.35277777,-3.051299,306.55252)">
      <g
         id="g1441">
        <path
           d="m 530.877,640.288 c 0,-4.335 1.535,-8.31 4.086,-11.417 v 0 h -0.016 v -0.018 c 2.619,-2.899 6.129,-7.321 6.129,-12.367 v 0 c 0,-4.072 -2.547,-7.973 -4.695,-10.66 v 0 c -3.388,-3.273 -5.504,-7.855 -5.504,-12.938 v 0 c 0,-9.941 8.06,-18 18,-18 v 0 c 9.941,0 18,8.059 18,18 v 0 c 0,5.213 -2.229,9.895 -5.771,13.182 v 0 c -2.397,2.782 -3.866,6.491 -3.866,10.416 v 0 c 0,4.627 2.262,8.776 5.23,11.996 v 0 0.029 c 2.739,3.158 4.407,7.27 4.407,11.777 v 0 c 0,9.94 -8.059,18 -18,18 v 0 c -9.94,0 -18,-8.06 -18,-18"
           style="fill:url(#linearGradient1449);stroke:none"
           id="path1451"
           inkscape:connector-curvature="0" />
      </g>
    </g>
    <g
       id="g1461"
       transform="matrix(0.35277777,0,0,-0.35277777,-3.051299,306.55252)">
      <g
         id="g1463">
        <path
           d="m 625.677,687.687 c 0,-5.052 2.091,-9.612 5.442,-12.881 v 0 c 2.373,-2.837 4.916,-6.676 4.916,-10.972 v 0 c 0,-3.604 -1.996,-7.071 -3.945,-9.683 v 0 h -0.244 c -2.854,-3.203 -7.197,-5.233 -11.824,-5.233 v 0 c -4.629,0 -8.981,2.258 -12.2,5.226 v 0 l -0.06,0.002 c -3.118,2.587 -7.117,4.142 -11.485,4.142 v 0 c -9.939,0 -18,-8.06 -18,-18 v 0 c 0,-9.941 8.061,-18 18,-18 v 0 c 5.426,0 10.278,2.411 13.578,6.206 v 0 c 2.741,2.162 6.264,4.26 10.167,4.26 v 0 c 3.761,0 7.376,-2.173 10.025,-4.199 v 0 c 0.148,-0.174 0.307,-0.342 0.462,-0.51 v 0 c 2.481,-2.877 5.327,-6.911 5.327,-11.457 v 0 c 0,-4.698 -3.391,-9.166 -5.647,-11.808 v 0 c -2.798,-3.172 -4.512,-7.328 -4.512,-11.892 v 0 c 0,-9.941 8.059,-18 18,-18 v 0 c 9.942,0 18,8.059 18,18 v 0 c 0,4.53 -1.685,8.657 -4.447,11.82 v 0 0.053 c -0.177,0.161 -0.34,0.341 -0.512,0.511 v 0 c -0.21,0.222 -0.427,0.439 -0.65,0.651 v 0 c -2.523,2.805 -4.068,6.626 -4.068,10.665 v 0 c 0,4.605 2.242,8.567 5.189,11.778 v 0 c 2.727,2.137 6.219,4.19 10.078,4.19 v 0 c 4.62,0 9.015,-3.277 11.67,-5.53 v 0 c 3.204,-2.934 7.455,-4.738 12.141,-4.738 v 0 c 9.942,0 18,8.059 18,18 v 0 c 0,9.94 -8.058,18 -18,18 v 0 c -4.471,0 -8.552,-1.64 -11.7,-4.337 v 0 h -0.287 c -2.853,-3.203 -7.197,-5.232 -11.824,-5.232 v 0 c -4.328,0 -8.079,1.988 -11.181,4.672 v 0 c -2.411,2.784 -3.888,6.505 -3.888,10.443 v 0 c 0,4.627 2.257,8.978 5.226,12.197 v 0 l 0.002,0.052 c 2.648,3.133 4.251,7.181 4.251,11.604 v 0 c 0,9.942 -8.058,18 -18,18 v 0 c -9.941,0 -18,-8.058 -18,-18"
           style="fill:url(#linearGradient1471);stroke:none"
           id="path1473"
           inkscape:connector-curvature="0" />
      </g>
    </g>
    <g
       id="g1483"
       transform="matrix(0.35277777,0,0,-0.35277777,-3.051299,306.55252)">
      <g
         id="g1485">
        <path
           d="m 436.078,688.098 c 0,-5.003 2.043,-9.526 5.338,-12.788 v 0 c 2.395,-2.846 4.992,-6.724 4.992,-11.067 v 0 c 0,-5.047 -3.914,-9.833 -6.129,-12.368 v 0 -0.037 c -2.619,-3.127 -4.201,-7.153 -4.201,-11.55 v 0 c 0,-4.288 1.506,-8.222 4.008,-11.313 v 0 h -0.006 v -0.018 c 2.621,-2.901 6.131,-7.323 6.131,-12.369 v 0 c 0,-5.047 -3.916,-9.833 -6.131,-12.369 v 0 -0.026 c -2.5,-3.089 -4.002,-7.021 -4.002,-11.305 v 0 c 0,-9.941 8.059,-18 18,-18 v 0 c 5.09,0 9.678,2.122 12.951,5.519 v 0 c 2.817,2.323 6.576,4.747 10.772,4.747 v 0 c 5.046,0 9.601,-4.07 12.138,-6.285 v 0 l 0.254,0.006 c 3.088,-2.489 7.01,-3.987 11.285,-3.987 v 0 c 9.94,0 18,8.059 18,18 v 0 c 0,4.317 -1.523,8.276 -4.056,11.377 v 0 0.065 c -2.856,2.904 -5.301,7.869 -5.301,12.498 v 0 c 0,4.616 2.252,8.756 5.211,11.97 v 0 c 2.588,3.118 4.146,7.122 4.146,11.49 v 0 c 0,9.94 -8.06,18 -18,18 v 0 c -4.418,0 -8.456,-1.597 -11.589,-4.237 v 0 h -0.137 c -2.856,-3.203 -7.199,-5.233 -11.826,-5.233 v 0 c -3.702,0 -7.213,1.454 -10.121,3.552 v 0 0.048 c -3.203,2.853 -5.233,7.197 -5.233,11.825 v 0 c 0,4.628 2.258,8.979 5.226,12.199 v 0 0.02 c 2.665,3.14 4.28,7.196 4.28,11.636 v 0 c 0,9.94 -8.059,18 -18,18 v 0 c -9.941,0 -18,-8.06 -18,-18 m 31.017,-82.801 c -0.158,0.166 -0.314,0.332 -0.477,0.491 v 0 c -2.612,2.817 -4.245,6.683 -4.245,10.8 v 0 c 0,4.408 2.062,8.219 4.822,11.353 v 0 c 2.813,2.313 6.557,4.713 10.731,4.713 v 0 c 4.047,0 7.964,-2.547 10.513,-4.752 v 0 c 0.491,-0.517 1.003,-1.013 1.552,-1.47 v 0 c 2.026,-2.706 3.968,-5.906 3.968,-9.604 v 0 c 0,-4.033 -2.498,-7.895 -4.633,-10.58 v 0 c -2.855,-3.021 -7.05,-4.93 -11.525,-4.93 v 0 c -3.949,0 -7.691,1.651 -10.706,3.979"
           style="fill:url(#linearGradient1493);stroke:none"
           id="path1495"
           inkscape:connector-curvature="0" />
      </g>
    </g>
    <g
       aria-label="KOO NAUKOWE"
       style="font-variant:normal;font-weight:normal;font-stretch:normal;font-size:13.21117496px;font-family:Exo;-inkscape-font-specification:Exo-Regular;writing-mode:lr-tb;fill:#ffffff;fill-opacity:1;fill-rule:nonzero;stroke:none;stroke-width:0.35277778"
       id="text1499">
      <path
         d="m 158.74058,118.89334 h -1.65785 l -3.7995,-4.27686 -0.95472,1.01922 v 3.25764 h -1.27725 v -9.60519 h 1.27725 v 5.01224 l 4.66391,-5.01224 h 1.54818 l -4.28976,4.51553 z"
         style="stroke-width:0.35277778"
         id="path1688" />
      <path
         d="m 165.1945,110.39123 q 0.58702,0.64507 0.89665,1.58044 0.31609,0.93536 0.31609,2.1223 0,1.18694 -0.32254,2.12875 -0.31609,0.93536 -0.8902,1.56109 -0.59348,0.65153 -1.40627,0.98052 -0.80635,0.32898 -1.84492,0.32898 -1.01277,0 -1.84492,-0.33544 -0.8257,-0.33544 -1.40627,-0.97406 -0.58057,-0.63863 -0.89666,-1.56754 -0.30963,-0.92891 -0.30963,-2.1223 0,-1.17404 0.30963,-2.10295 0.30964,-0.93536 0.90311,-1.59979 0.56767,-0.63218 1.40627,-0.96762 0.84505,-0.33544 1.83847,-0.33544 1.03212,0 1.85137,0.34189 0.8257,0.33544 1.39982,0.96117 z m -0.11612,3.70274 q 0,-1.87072 -0.8386,-2.88349 -0.8386,-1.01923 -2.29002,-1.01923 -1.46433,0 -2.30293,1.01923 -0.83215,1.01277 -0.83215,2.88349 0,1.89007 0.85151,2.89639 0.8515,0.99987 2.28357,0.99987 1.43207,0 2.27712,-0.99987 0.8515,-1.00632 0.8515,-2.89639 z"
         style="stroke-width:0.35277778"
         id="path1690" />
      <path
         d="m 173.10603,118.89334 h -6.07662 v -3.45116 l -1.19985,0.98052 v -1.05148 l 1.19985,-0.96116 v -5.12191 h 1.27725 v 4.18009 l 2.25132,-1.82556 v 1.05147 l -2.25132,1.80622 v 3.25764 h 4.79937 z"
         style="stroke-width:0.35277778"
         id="path1692" />
      <path
         d="m 181.07432,110.39123 q 0.58702,0.64507 0.89665,1.58044 0.31609,0.93536 0.31609,2.1223 0,1.18694 -0.32254,2.12875 -0.31608,0.93536 -0.8902,1.56109 -0.59347,0.65153 -1.40627,0.98052 -0.80635,0.32898 -1.84492,0.32898 -1.01277,0 -1.84492,-0.33544 -0.8257,-0.33544 -1.40627,-0.97406 -0.58057,-0.63863 -0.89665,-1.56754 -0.30964,-0.92891 -0.30964,-2.1223 0,-1.17404 0.30964,-2.10295 0.30963,-0.93536 0.9031,-1.59979 0.56767,-0.63218 1.40627,-0.96762 0.84505,-0.33544 1.83847,-0.33544 1.03212,0 1.85137,0.34189 0.8257,0.33544 1.39982,0.96117 z m -0.11612,3.70274 q 0,-1.87072 -0.8386,-2.88349 -0.8386,-1.01923 -2.29002,-1.01923 -1.46432,0 -2.30292,1.01923 -0.83215,1.01277 -0.83215,2.88349 0,1.89007 0.8515,2.89639 0.8515,0.99987 2.28357,0.99987 1.43207,0 2.27712,-0.99987 0.8515,-1.00632 0.8515,-2.89639 z"
         style="stroke-width:0.35277778"
         id="path1694" />
      <path
         d="m 193.47559,118.89334 h -1.58044 l -4.55424,-8.59242 v 8.59242 h -1.1934 v -9.60519 h 1.98039 l 4.1543,7.84413 v -7.84413 h 1.19339 z"
         style="stroke-width:0.35277778"
         id="path1696" />
      <path
         d="m 202.70431,118.89334 h -1.36111 l -0.94181,-2.67707 h -4.1543 l -0.94181,2.67707 h -1.2966 l 3.49631,-9.60519 h 1.70301 z m -2.69642,-3.7737 -1.68365,-4.71551 -1.6901,4.71551 z"
         style="stroke-width:0.35277778"
         id="path1698" />
      <path
         d="m 210.68547,115.03578 q 0,1.04503 -0.23223,1.82557 -0.22578,0.77409 -0.74829,1.29015 -0.49671,0.49026 -1.16114,0.71604 -0.66443,0.22577 -1.54818,0.22577 -0.90311,0 -1.57399,-0.23867 -0.67088,-0.23868 -1.12888,-0.70314 -0.52252,-0.52896 -0.75474,-1.27725 -0.22578,-0.74829 -0.22578,-1.83847 v -5.74763 h 1.27725 v 5.81214 q 0,0.78054 0.10321,1.2321 0.10967,0.45155 0.36125,0.81924 0.28383,0.4193 0.76764,0.63218 0.49026,0.21287 1.17404,0.21287 0.69023,0 1.17404,-0.20642 0.48381,-0.21288 0.77409,-0.63863 0.25158,-0.36769 0.35479,-0.8386 0.10967,-0.47735 0.10967,-1.18049 v -5.84439 h 1.27725 z"
         style="stroke-width:0.35277778"
         id="path1700" />
      <path
         d="m 220.1197,118.89334 h -1.65785 l -3.79951,-4.27686 -0.95471,1.01922 v 3.25764 h -1.27725 v -9.60519 h 1.27725 v 5.01224 l 4.66391,-5.01224 h 1.54818 l -4.28976,4.51553 z"
         style="stroke-width:0.35277778"
         id="path1702" />
      <path
         d="m 226.57362,110.39123 q 0.58702,0.64507 0.89665,1.58044 0.31609,0.93536 0.31609,2.1223 0,1.18694 -0.32254,2.12875 -0.31609,0.93536 -0.8902,1.56109 -0.59348,0.65153 -1.40627,0.98052 -0.80635,0.32898 -1.84492,0.32898 -1.01277,0 -1.84492,-0.33544 -0.8257,-0.33544 -1.40627,-0.97406 -0.58057,-0.63863 -0.89666,-1.56754 -0.30963,-0.92891 -0.30963,-2.1223 0,-1.17404 0.30963,-2.10295 0.30964,-0.93536 0.90311,-1.59979 0.56767,-0.63218 1.40627,-0.96762 0.84505,-0.33544 1.83847,-0.33544 1.03212,0 1.85137,0.34189 0.8257,0.33544 1.39982,0.96117 z m -0.11612,3.70274 q 0,-1.87072 -0.8386,-2.88349 -0.8386,-1.01923 -2.29002,-1.01923 -1.46433,0 -2.30293,1.01923 -0.83215,1.01277 -0.83215,2.88349 0,1.89007 0.85151,2.89639 0.8515,0.99987 2.28357,0.99987 1.43207,0 2.27712,-0.99987 0.8515,-1.00632 0.8515,-2.89639 z"
         style="stroke-width:0.35277778"
         id="path1704" />
      <path
         d="m 239.0608,109.28815 -2.49645,9.60519 h -1.43852 l -2.01909,-7.97315 -1.97394,7.97315 h -1.40627 l -2.5416,-9.60519 h 1.30951 l 2.01909,7.98605 1.98684,-7.98605 h 1.2966 l 2.00619,8.06346 2.00619,-8.06346 z"
         style="stroke-width:0.35277778"
         id="path1706" />
      <path
         d="m 246.52264,118.89334 h -6.3282 v -9.60519 h 6.3282 v 1.13533 h -5.05095 v 2.63192 h 5.05095 v 1.13533 h -5.05095 v 3.56728 h 5.05095 z"
         style="stroke-width:0.35277778"
         id="path1708" />
    </g>
    <g
       id="g1509"
       transform="matrix(0.35277777,0,0,-0.35277777,179.50157,152.82167)">
      <path
         d="m 0,0 c 0,-9.941 -8.061,-18 -18,-18 -9.941,0 -18,8.059 -18,18 0,9.941 8.059,18 18,18 C -8.061,18 0,9.941 0,0"
         style="fill:#1a171b;fill-opacity:1;fill-rule:nonzero;stroke:none"
         id="path1511"
         inkscape:connector-curvature="0" />
    </g>
    <g
       id="g1513"
       transform="matrix(0.35277777,0,0,-0.35277777,212.94448,152.82167)">
      <path
         d="m 0,0 c 0,-9.941 -8.059,-18 -18,-18 -9.939,0 -18,8.059 -18,18 0,9.941 8.061,18 18,18 C -8.059,18 0,9.941 0,0"
         style="fill:#1a171b;fill-opacity:1;fill-rule:nonzero;stroke:none"
         id="path1515"
         inkscape:connector-curvature="0" />
    </g>
    <g
       id="g1517"
       transform="matrix(0.35277777,0,0,-0.35277777,246.38809,152.82167)">
      <path
         d="m 0,0 c 0,-9.941 -8.059,-18 -18,-18 -9.941,0 -18,8.059 -18,18 0,9.941 8.059,18 18,18 C -8.059,18 0,9.941 0,0"
         style="fill:#1a171b;fill-opacity:1;fill-rule:nonzero;stroke:none"
         id="path1519"
         inkscape:connector-curvature="0" />
    </g>
    <g
       id="g1521"
       transform="matrix(0.35277777,0,0,-0.35277777,212.94448,186.26493)">
      <path
         d="m 0,0 c 0,-9.939 -8.059,-18 -18,-18 -9.939,0 -18,8.061 -18,18 0,9.941 8.061,18 18,18 C -8.059,18 0,9.941 0,0"
         style="fill:#1a171b;fill-opacity:1;fill-rule:nonzero;stroke:none"
         id="path1523"
         inkscape:connector-curvature="0" />
    </g>
    <g
       id="g1525"
       transform="matrix(0.35277777,0,0,-0.35277777,246.38809,186.26493)">
      <path
         d="m 0,0 c 0,-9.939 -8.059,-18 -18,-18 -9.941,0 -18,8.061 -18,18 0,9.941 8.059,18 18,18 C -8.059,18 0,9.941 0,0"
         style="fill:#1a171b;fill-opacity:1;fill-rule:nonzero;stroke:none"
         id="path1527"
         inkscape:connector-curvature="0" />
    </g>
    <g
       id="g1529"
       transform="matrix(0.35277777,0,0,-0.35277777,196.22267,152.82167)">
      <path
         d="m 0,0 c 0,-9.941 -8.059,-18 -18,-18 -9.939,0 -18,8.059 -18,18 0,9.941 8.061,18 18,18 C -8.059,18 0,9.941 0,0"
         style="fill:#1a171b;fill-opacity:1;fill-rule:nonzero;stroke:none"
         id="path1531"
         inkscape:connector-curvature="0" />
    </g>
    <g
       id="g1533"
       transform="matrix(0.35277777,0,0,-0.35277777,194.18661,181.61409)">
      <path
         d="m 0,0 c -2.396,2.779 -3.865,6.49 -3.865,10.414 0,4.629 2.261,8.777 5.23,11.996 v 0.031 c 2.739,3.159 4.406,7.268 4.406,11.776 0,9.94 -8.058,17.999 -18,17.999 -9.939,0 -18,-8.059 -18,-17.999 0,-4.334 1.536,-8.309 4.086,-11.416 h -0.015 v -0.018 c 2.619,-2.9 6.129,-7.322 6.129,-12.369 0,-4.072 -2.547,-7.973 -4.696,-10.66 -3.388,-3.272 -5.504,-7.854 -5.504,-12.938 0,-9.939 8.061,-18 18,-18 9.942,0 18,8.061 18,18 C 5.771,-7.969 3.543,-3.287 0,0"
         style="fill:#1a171b;fill-opacity:1;fill-rule:nonzero;stroke:none"
         id="path1535"
         inkscape:connector-curvature="0" />
    </g>
    <g
       id="g1537"
       transform="matrix(0.35277777,0,0,-0.35277777,240.03809,163.19348)">
      <path
         d="m 0,0 c -4.471,0 -8.551,-1.639 -11.699,-4.336 h -0.285 c -2.856,-3.203 -7.2,-5.231 -11.827,-5.231 -4.328,0 -8.08,1.987 -11.181,4.671 -2.41,2.783 -3.889,6.505 -3.889,10.443 0,4.627 2.258,8.978 5.227,12.197 l 0.002,0.051 c 2.648,3.135 4.252,7.18 4.252,11.605 0,9.942 -8.059,18 -18,18 -9.942,0 -18,-8.058 -18,-18 0,-5.052 2.089,-9.613 5.441,-12.882 2.373,-2.836 4.916,-6.676 4.916,-10.971 0,-3.606 -1.996,-7.07 -3.945,-9.684 h -0.244 c -2.854,-3.205 -7.198,-5.231 -11.825,-5.231 -4.629,0 -8.98,2.255 -12.199,5.225 l -0.06,0.002 C -86.434,-1.557 -90.434,0 -94.801,0 c -9.939,0 -18,-8.059 -18,-17.999 0,-9.941 8.061,-18 18,-18 5.426,0 10.278,2.41 13.578,6.207 2.741,2.162 6.264,4.26 10.166,4.26 3.762,0 7.377,-2.176 10.026,-4.199 0.148,-0.174 0.306,-0.342 0.463,-0.512 2.48,-2.875 5.326,-6.91 5.326,-11.455 0,-4.698 -3.391,-9.168 -5.647,-11.809 -2.799,-3.174 -4.511,-7.328 -4.511,-11.892 0,-9.94 8.058,-18 18,-18 9.941,0 18,8.06 18,18 0,4.529 -1.686,8.656 -4.448,11.82 v 0.055 c -0.177,0.16 -0.34,0.339 -0.511,0.507 -0.211,0.225 -0.428,0.442 -0.651,0.653 -2.523,2.804 -4.068,6.627 -4.068,10.666 0,4.605 2.242,8.566 5.189,11.777 2.727,2.137 6.219,4.19 10.078,4.19 4.62,0 9.014,-3.276 11.672,-5.53 3.201,-2.933 7.455,-4.738 12.139,-4.738 9.941,0 18,8.059 18,18 C 18,-8.059 9.941,0 0,0"
         style="fill:#1a171b;fill-opacity:1;fill-rule:nonzero;stroke:none"
         id="path1539"
         inkscape:connector-curvature="0" />
    </g>
    <g
       id="g1541"
       transform="matrix(0.35277777,0,0,-0.35277777,161.02204,181.88759)">
      <path
         d="m 0,0 c -0.158,0.166 -0.314,0.332 -0.479,0.492 -2.611,2.817 -4.244,6.682 -4.244,10.801 0,4.406 2.063,8.217 4.823,11.352 2.812,2.312 6.556,4.714 10.73,4.714 4.047,0 7.965,-2.547 10.514,-4.752 0.49,-0.517 1.002,-1.015 1.551,-1.47 2.027,-2.705 3.968,-5.907 3.968,-9.606 C 26.863,7.5 24.365,3.637 22.23,0.953 19.375,-2.07 15.18,-3.977 10.705,-3.977 6.756,-3.977 3.014,-2.326 0,0 m 48.326,-0.967 c -2.855,2.906 -5.301,7.871 -5.301,12.498 0,4.617 2.252,8.756 5.211,11.973 2.588,3.117 4.147,7.121 4.147,11.488 0,9.941 -8.061,17.999 -18,17.999 -4.418,0 -8.457,-1.597 -11.59,-4.236 H 22.656 C 19.801,45.55 15.457,43.523 10.83,43.523 c -3.701,0 -7.213,1.453 -10.121,3.548 v 0.049 c -3.203,2.856 -5.232,7.199 -5.232,11.826 0,4.629 2.257,8.979 5.226,12.198 v 0.021 c 2.664,3.139 4.279,7.197 4.279,11.635 0,9.941 -8.058,18 -18,18 -9.941,0 -18,-8.059 -18,-18 0,-5.002 2.043,-9.526 5.338,-12.787 2.395,-2.846 4.993,-6.723 4.993,-11.067 0,-5.047 -3.915,-9.832 -6.129,-12.369 v -0.035 c -2.62,-3.126 -4.202,-7.151 -4.202,-11.55 0,-4.289 1.506,-8.222 4.008,-11.314 h -0.006 V 23.66 c 2.621,-2.898 6.131,-7.32 6.131,-12.367 0,-5.047 -3.916,-9.834 -6.131,-12.369 v -0.026 c -2.5,-3.091 -4.002,-7.021 -4.002,-11.306 0,-9.94 8.059,-18 18,-18 5.09,0 9.678,2.123 12.952,5.519 2.816,2.323 6.576,4.748 10.771,4.748 5.047,0 9.602,-4.072 12.139,-6.287 l 0.254,0.008 c 3.088,-2.49 7.009,-3.988 11.285,-3.988 9.939,0 18,8.06 18,18 0,4.316 -1.524,8.275 -4.057,11.377 z"
         style="fill:#1a171b;fill-opacity:1;fill-rule:nonzero;stroke:none"
         id="path1543"
         inkscape:connector-curvature="0" />
    </g>
    <g
       aria-label="KOO NAUKOWE"
       style="font-variant:normal;font-weight:normal;font-stretch:normal;font-size:13.21117496px;font-family:Exo;-inkscape-font-specification:Exo-Regular;writing-mode:lr-tb;fill:#000000;fill-opacity:1;fill-rule:nonzero;stroke:none;stroke-width:0.35277778"
       id="text1547">
      <path
         d="m 159.0913,208.14407 h -1.65785 l -3.7995,-4.27686 -0.95472,1.01923 v 3.25763 h -1.27725 v -9.60519 h 1.27725 v 5.01225 l 4.66391,-5.01225 h 1.54819 l -4.28977,4.51554 z"
         style="stroke-width:0.35277778"
         id="path1665" />
      <path
         d="m 165.54522,199.64196 q 0.58702,0.64508 0.89666,1.58044 0.31608,0.93536 0.31608,2.1223 0,1.18694 -0.32254,2.12876 -0.31608,0.93536 -0.8902,1.56108 -0.59347,0.65153 -1.40627,0.98052 -0.80635,0.32899 -1.84492,0.32899 -1.01277,0 -1.84492,-0.33544 -0.8257,-0.33544 -1.40627,-0.97407 -0.58057,-0.63862 -0.89665,-1.56754 -0.30964,-0.92891 -0.30964,-2.1223 0,-1.17404 0.30964,-2.10295 0.30963,-0.93536 0.9031,-1.59979 0.56767,-0.63218 1.40627,-0.96762 0.84505,-0.33544 1.83847,-0.33544 1.03212,0 1.85137,0.3419 0.8257,0.33544 1.39982,0.96116 z m -0.11612,3.70274 q 0,-1.87072 -0.8386,-2.88349 -0.8386,-1.01922 -2.29002,-1.01922 -1.46432,0 -2.30292,1.01922 -0.83215,1.01277 -0.83215,2.88349 0,1.89008 0.8515,2.8964 0.8515,0.99987 2.28357,0.99987 1.43207,0 2.27712,-0.99987 0.8515,-1.00632 0.8515,-2.8964 z"
         style="stroke-width:0.35277778"
         id="path1667" />
      <path
         d="m 173.45675,208.14407 h -6.07662 v -3.45116 l -1.19984,0.98052 v -1.05148 l 1.19984,-0.96116 v -5.12191 h 1.27725 v 4.1801 l 2.25132,-1.82557 v 1.05147 l -2.25132,1.80622 v 3.25764 h 4.79937 z"
         style="stroke-width:0.35277778"
         id="path1669" />
      <path
         d="m 181.42506,199.64196 q 0.58702,0.64508 0.89665,1.58044 0.31609,0.93536 0.31609,2.1223 0,1.18694 -0.32254,2.12876 -0.31609,0.93536 -0.8902,1.56108 -0.59347,0.65153 -1.40627,0.98052 -0.80635,0.32899 -1.84492,0.32899 -1.01277,0 -1.84492,-0.33544 -0.8257,-0.33544 -1.40627,-0.97407 -0.58057,-0.63862 -0.89666,-1.56754 -0.30963,-0.92891 -0.30963,-2.1223 0,-1.17404 0.30963,-2.10295 0.30964,-0.93536 0.90311,-1.59979 0.56767,-0.63218 1.40627,-0.96762 0.84505,-0.33544 1.83847,-0.33544 1.03212,0 1.85137,0.3419 0.8257,0.33544 1.39982,0.96116 z m -0.11612,3.70274 q 0,-1.87072 -0.8386,-2.88349 -0.8386,-1.01922 -2.29002,-1.01922 -1.46433,0 -2.30293,1.01922 -0.83214,1.01277 -0.83214,2.88349 0,1.89008 0.8515,2.8964 0.8515,0.99987 2.28357,0.99987 1.43207,0 2.27712,-0.99987 0.8515,-1.00632 0.8515,-2.8964 z"
         style="stroke-width:0.35277778"
         id="path1671" />
      <path
         d="m 193.82633,208.14407 h -1.58044 l -4.55424,-8.59242 v 8.59242 h -1.1934 v -9.60519 h 1.98039 l 4.15429,7.84413 v -7.84413 h 1.1934 z"
         style="stroke-width:0.35277778"
         id="path1673" />
      <path
         d="m 203.05505,208.14407 h -1.36111 l -0.94181,-2.67707 h -4.1543 l -0.94181,2.67707 h -1.2966 l 3.49631,-9.60519 h 1.70301 z m -2.69642,-3.7737 -1.68365,-4.71551 -1.6901,4.71551 z"
         style="stroke-width:0.35277778"
         id="path1675" />
      <path
         d="m 211.03621,204.28651 q 0,1.04503 -0.23223,1.82557 -0.22578,0.77409 -0.74829,1.29016 -0.49671,0.49025 -1.16114,0.71603 -0.66443,0.22578 -1.54818,0.22578 -0.90311,0 -1.57399,-0.23868 -0.67088,-0.23868 -1.12889,-0.70313 -0.52251,-0.52897 -0.75474,-1.27726 -0.22577,-0.74829 -0.22577,-1.83847 v -5.74763 h 1.27725 v 5.81214 q 0,0.78054 0.10321,1.2321 0.10966,0.45155 0.36124,0.81925 0.28384,0.4193 0.76765,0.63217 0.49025,0.21288 1.17404,0.21288 0.69023,0 1.17404,-0.20643 0.4838,-0.21287 0.77409,-0.63862 0.25158,-0.3677 0.35479,-0.8386 0.10966,-0.47736 0.10966,-1.18049 v -5.8444 h 1.27726 z"
         style="stroke-width:0.35277778"
         id="path1677" />
      <path
         d="m 220.47042,208.14407 h -1.65785 l -3.7995,-4.27686 -0.95472,1.01923 v 3.25763 h -1.27725 v -9.60519 h 1.27725 v 5.01225 l 4.66391,-5.01225 h 1.54818 l -4.28976,4.51554 z"
         style="stroke-width:0.35277778"
         id="path1679" />
      <path
         d="m 226.92434,199.64196 q 0.58702,0.64508 0.89666,1.58044 0.31608,0.93536 0.31608,2.1223 0,1.18694 -0.32254,2.12876 -0.31608,0.93536 -0.8902,1.56108 -0.59347,0.65153 -1.40627,0.98052 -0.80635,0.32899 -1.84492,0.32899 -1.01277,0 -1.84492,-0.33544 -0.8257,-0.33544 -1.40627,-0.97407 -0.58057,-0.63862 -0.89665,-1.56754 -0.30964,-0.92891 -0.30964,-2.1223 0,-1.17404 0.30964,-2.10295 0.30963,-0.93536 0.9031,-1.59979 0.56767,-0.63218 1.40627,-0.96762 0.84505,-0.33544 1.83847,-0.33544 1.03212,0 1.85137,0.3419 0.8257,0.33544 1.39982,0.96116 z m -0.11612,3.70274 q 0,-1.87072 -0.8386,-2.88349 -0.8386,-1.01922 -2.29002,-1.01922 -1.46432,0 -2.30292,1.01922 -0.83215,1.01277 -0.83215,2.88349 0,1.89008 0.8515,2.8964 0.8515,0.99987 2.28357,0.99987 1.43207,0 2.27712,-0.99987 0.8515,-1.00632 0.8515,-2.8964 z"
         style="stroke-width:0.35277778"
         id="path1681" />
      <path
         d="m 239.41154,198.53888 -2.49645,9.60519 h -1.43852 l -2.01909,-7.97315 -1.97394,7.97315 h -1.40627 l -2.5416,-9.60519 h 1.30951 l 2.01909,7.98605 1.98683,-7.98605 h 1.29661 l 2.00619,8.06346 2.00619,-8.06346 z"
         style="stroke-width:0.35277778"
         id="path1683" />
      <path
         d="m 246.87336,208.14407 h -6.3282 v -9.60519 h 6.3282 v 1.13533 h -5.05095 v 2.63192 h 5.05095 v 1.13533 h -5.05095 v 3.56728 h 5.05095 z"
         style="stroke-width:0.35277778"
         id="path1685" />
    </g>
    <path
       d="M 266.12273,306.55252 H 131.36162 v -87.6046 h 134.76111 z"
       style="fill:#000000;fill-opacity:1;fill-rule:nonzero;stroke:none;stroke-width:0.35277778"
       id="path1269"
       inkscape:connector-curvature="0" />
    <g
       clip-path="url(#clipPath1555)"
       id="g1551"
       transform="matrix(0.35277777,0,0,-0.35277777,-3.051299,306.55252)">
      <g
         transform="translate(517.4727,193.3701)"
         id="g1557">
        <path
           inkscape:connector-curvature="0"
           id="path1559"
           style="fill:#ffffff;fill-opacity:1;fill-rule:nonzero;stroke:none"
           d="m 0,0 c 0,-9.941 -8.061,-18 -18,-18 -9.941,0 -18,8.059 -18,18 0,9.941 8.059,18 18,18 C -8.061,18 0,9.941 0,0" />
      </g>
      <g
         transform="translate(612.2715,193.3701)"
         id="g1561">
        <path
           inkscape:connector-curvature="0"
           id="path1563"
           style="fill:#ffffff;fill-opacity:1;fill-rule:nonzero;stroke:none"
           d="m 0,0 c 0,-9.941 -8.059,-18 -18,-18 -9.939,0 -18,8.059 -18,18 0,9.941 8.061,18 18,18 C -8.059,18 0,9.941 0,0" />
      </g>
      <g
         transform="translate(707.0723,193.3701)"
         id="g1565">
        <path
           inkscape:connector-curvature="0"
           id="path1567"
           style="fill:#ffffff;fill-opacity:1;fill-rule:nonzero;stroke:none"
           d="m 0,0 c 0,-9.941 -8.059,-18 -18,-18 -9.941,0 -18,8.059 -18,18 0,9.941 8.059,18 18,18 C -8.059,18 0,9.941 0,0" />
      </g>
      <g
         transform="translate(612.2715,98.5703)"
         id="g1569">
        <path
           inkscape:connector-curvature="0"
           id="path1571"
           style="fill:#ffffff;fill-opacity:1;fill-rule:nonzero;stroke:none"
           d="m 0,0 c 0,-9.939 -8.059,-18 -18,-18 -9.939,0 -18,8.061 -18,18 0,9.941 8.061,18 18,18 C -8.059,18 0,9.941 0,0" />
      </g>
      <g
         transform="translate(707.0723,98.5703)"
         id="g1573">
        <path
           inkscape:connector-curvature="0"
           id="path1575"
           style="fill:#ffffff;fill-opacity:1;fill-rule:nonzero;stroke:none"
           d="m 0,0 c 0,-9.939 -8.059,-18 -18,-18 -9.941,0 -18,8.061 -18,18 0,9.941 8.059,18 18,18 C -8.059,18 0,9.941 0,0" />
      </g>
      <g
         transform="translate(564.8711,193.3701)"
         id="g1577">
        <path
           inkscape:connector-curvature="0"
           id="path1579"
           style="fill:#ffffff;fill-opacity:1;fill-rule:nonzero;stroke:none"
           d="m 0,0 c 0,-9.941 -8.059,-18 -18,-18 -9.939,0 -18,8.059 -18,18 0,9.941 8.061,18 18,18 C -8.059,18 0,9.941 0,0" />
      </g>
      <g
         transform="translate(559.0996,111.7539)"
         id="g1581">
        <path
           inkscape:connector-curvature="0"
           id="path1583"
           style="fill:#ffffff;fill-opacity:1;fill-rule:nonzero;stroke:none"
           d="m 0,0 c -2.396,2.779 -3.865,6.49 -3.865,10.414 0,4.629 2.261,8.777 5.23,11.996 v 0.031 c 2.739,3.159 4.406,7.268 4.406,11.776 0,9.94 -8.058,17.999 -18,17.999 -9.939,0 -18,-8.059 -18,-17.999 0,-4.334 1.536,-8.309 4.086,-11.416 h -0.015 v -0.018 c 2.619,-2.9 6.129,-7.322 6.129,-12.369 0,-4.072 -2.547,-7.973 -4.696,-10.66 -3.388,-3.272 -5.504,-7.854 -5.504,-12.938 0,-9.939 8.061,-18 18,-18 9.942,0 18,8.061 18,18 C 5.771,-7.969 3.543,-3.287 0,0" />
      </g>
      <g
         transform="translate(689.0723,163.9697)"
         id="g1585">
        <path
           inkscape:connector-curvature="0"
           id="path1587"
           style="fill:#ffffff;fill-opacity:1;fill-rule:nonzero;stroke:none"
           d="m 0,0 c -4.471,0 -8.551,-1.639 -11.699,-4.336 h -0.285 c -2.856,-3.203 -7.2,-5.231 -11.827,-5.231 -4.328,0 -8.08,1.987 -11.181,4.671 -2.41,2.783 -3.889,6.505 -3.889,10.443 0,4.627 2.258,8.978 5.227,12.197 l 0.002,0.051 c 2.648,3.135 4.252,7.18 4.252,11.605 0,9.942 -8.059,18 -18,18 -9.942,0 -18,-8.058 -18,-18 0,-5.052 2.089,-9.613 5.441,-12.882 2.373,-2.836 4.916,-6.676 4.916,-10.971 0,-3.606 -1.996,-7.07 -3.945,-9.684 h -0.244 c -2.854,-3.205 -7.198,-5.231 -11.825,-5.231 -4.629,0 -8.98,2.255 -12.199,5.225 l -0.06,0.002 C -86.434,-1.557 -90.434,0 -94.801,0 c -9.939,0 -18,-8.059 -18,-17.999 0,-9.941 8.061,-18 18,-18 5.426,0 10.278,2.41 13.578,6.207 2.741,2.162 6.264,4.26 10.166,4.26 3.762,0 7.377,-2.176 10.026,-4.199 0.148,-0.174 0.306,-0.342 0.463,-0.512 2.48,-2.875 5.326,-6.91 5.326,-11.455 0,-4.698 -3.391,-9.168 -5.647,-11.809 -2.799,-3.174 -4.511,-7.328 -4.511,-11.892 0,-9.94 8.058,-18 18,-18 9.941,0 18,8.06 18,18 0,4.529 -1.686,8.656 -4.448,11.82 v 0.055 c -0.177,0.16 -0.34,0.339 -0.511,0.507 -0.211,0.225 -0.428,0.442 -0.651,0.653 -2.523,2.804 -4.068,6.627 -4.068,10.666 0,4.605 2.242,8.566 5.189,11.777 2.727,2.137 6.219,4.19 10.078,4.19 4.62,0 9.014,-3.276 11.672,-5.53 3.201,-2.933 7.455,-4.738 12.139,-4.738 9.941,0 18,8.059 18,18 C 18,-8.059 9.941,0 0,0" />
      </g>
      <g
         transform="translate(465.0898,110.9785)"
         id="g1589">
        <path
           inkscape:connector-curvature="0"
           id="path1591"
           style="fill:#ffffff;fill-opacity:1;fill-rule:nonzero;stroke:none"
           d="m 0,0 c -0.158,0.166 -0.314,0.332 -0.479,0.492 -2.611,2.817 -4.244,6.682 -4.244,10.801 0,4.406 2.063,8.217 4.823,11.352 2.812,2.312 6.556,4.714 10.73,4.714 4.047,0 7.965,-2.547 10.514,-4.752 0.49,-0.517 1.002,-1.015 1.551,-1.47 2.027,-2.705 3.968,-5.907 3.968,-9.606 C 26.863,7.5 24.365,3.637 22.23,0.953 19.375,-2.07 15.18,-3.977 10.705,-3.977 6.756,-3.977 3.014,-2.326 0,0 m 48.326,-0.967 c -2.855,2.906 -5.301,7.871 -5.301,12.498 0,4.617 2.252,8.756 5.211,11.973 2.588,3.117 4.147,7.121 4.147,11.488 0,9.941 -8.061,17.999 -18,17.999 -4.418,0 -8.457,-1.597 -11.59,-4.236 H 22.656 C 19.801,45.55 15.457,43.523 10.83,43.523 c -3.701,0 -7.213,1.453 -10.121,3.548 v 0.049 c -3.203,2.856 -5.232,7.199 -5.232,11.826 0,4.629 2.257,8.979 5.226,12.198 v 0.021 c 2.664,3.139 4.279,7.197 4.279,11.635 0,9.941 -8.058,18 -18,18 -9.941,0 -18,-8.059 -18,-18 0,-5.002 2.043,-9.526 5.338,-12.787 2.395,-2.846 4.993,-6.723 4.993,-11.067 0,-5.047 -3.915,-9.832 -6.129,-12.369 v -0.035 c -2.62,-3.126 -4.202,-7.151 -4.202,-11.55 0,-4.289 1.506,-8.222 4.008,-11.314 h -0.006 V 23.66 c 2.621,-2.898 6.131,-7.32 6.131,-12.367 0,-5.047 -3.916,-9.834 -6.131,-12.369 v -0.026 c -2.5,-3.091 -4.002,-7.021 -4.002,-11.306 0,-9.94 8.059,-18 18,-18 5.09,0 9.678,2.123 12.952,5.519 2.816,2.323 6.576,4.748 10.771,4.748 5.047,0 9.602,-4.072 12.139,-6.287 l 0.254,0.008 c 3.088,-2.49 7.009,-3.988 11.285,-3.988 9.939,0 18,8.06 18,18 0,4.316 -1.524,8.275 -4.057,11.377 z" />
      </g>
    </g>
    <g
       aria-label="KOO NAUKOWE"
       style="font-variant:normal;font-weight:normal;font-stretch:normal;font-size:13.21117496px;font-family:Exo;-inkscape-font-specification:Exo-Regular;writing-mode:lr-tb;fill:#ffffff;fill-opacity:1;fill-rule:nonzero;stroke:none;stroke-width:0.35277778"
       id="text1595">
      <path
         d="m 159.0913,293.65839 h -1.65785 l -3.7995,-4.27686 -0.95472,1.01922 v 3.25764 h -1.27725 v -9.6052 h 1.27725 v 5.01225 l 4.66391,-5.01225 h 1.54819 l -4.28977,4.51554 z"
         style="stroke-width:0.35277778"
         id="path1711" />
      <path
         d="m 165.54522,285.15627 q 0.58702,0.64508 0.89666,1.58044 0.31608,0.93536 0.31608,2.1223 0,1.18695 -0.32254,2.12876 -0.31608,0.93536 -0.8902,1.56108 -0.59347,0.65153 -1.40627,0.98052 -0.80635,0.32899 -1.84492,0.32899 -1.01277,0 -1.84492,-0.33544 -0.8257,-0.33544 -1.40627,-0.97407 -0.58057,-0.63862 -0.89665,-1.56753 -0.30964,-0.92891 -0.30964,-2.12231 0,-1.17404 0.30964,-2.10295 0.30963,-0.93536 0.9031,-1.59979 0.56767,-0.63217 1.40627,-0.96761 0.84505,-0.33544 1.83847,-0.33544 1.03212,0 1.85137,0.34189 0.8257,0.33544 1.39982,0.96116 z m -0.11612,3.70274 q 0,-1.87072 -0.8386,-2.88349 -0.8386,-1.01922 -2.29002,-1.01922 -1.46432,0 -2.30292,1.01922 -0.83215,1.01277 -0.83215,2.88349 0,1.89008 0.8515,2.8964 0.8515,0.99987 2.28357,0.99987 1.43207,0 2.27712,-0.99987 0.8515,-1.00632 0.8515,-2.8964 z"
         style="stroke-width:0.35277778"
         id="path1713" />
      <path
         d="m 173.45675,293.65839 h -6.07662 v -3.45117 l -1.19984,0.98052 v -1.05147 l 1.19984,-0.96117 v -5.12191 h 1.27725 v 4.1801 l 2.25132,-1.82557 v 1.05148 l -2.25132,1.80621 v 3.25764 h 4.79937 z"
         style="stroke-width:0.35277778"
         id="path1715" />
      <path
         d="m 181.42506,285.15627 q 0.58702,0.64508 0.89665,1.58044 0.31609,0.93536 0.31609,2.1223 0,1.18695 -0.32254,2.12876 -0.31609,0.93536 -0.8902,1.56108 -0.59347,0.65153 -1.40627,0.98052 -0.80635,0.32899 -1.84492,0.32899 -1.01277,0 -1.84492,-0.33544 -0.8257,-0.33544 -1.40627,-0.97407 -0.58057,-0.63862 -0.89666,-1.56753 -0.30963,-0.92891 -0.30963,-2.12231 0,-1.17404 0.30963,-2.10295 0.30964,-0.93536 0.90311,-1.59979 0.56767,-0.63217 1.40627,-0.96761 0.84505,-0.33544 1.83847,-0.33544 1.03212,0 1.85137,0.34189 0.8257,0.33544 1.39982,0.96116 z m -0.11612,3.70274 q 0,-1.87072 -0.8386,-2.88349 -0.8386,-1.01922 -2.29002,-1.01922 -1.46433,0 -2.30293,1.01922 -0.83214,1.01277 -0.83214,2.88349 0,1.89008 0.8515,2.8964 0.8515,0.99987 2.28357,0.99987 1.43207,0 2.27712,-0.99987 0.8515,-1.00632 0.8515,-2.8964 z"
         style="stroke-width:0.35277778"
         id="path1717" />
      <path
         d="m 193.82633,293.65839 h -1.58044 l -4.55424,-8.59243 v 8.59243 h -1.1934 v -9.6052 h 1.98039 l 4.15429,7.84414 v -7.84414 h 1.1934 z"
         style="stroke-width:0.35277778"
         id="path1719" />
      <path
         d="m 203.05505,293.65839 h -1.36111 l -0.94181,-2.67707 h -4.1543 l -0.94181,2.67707 h -1.2966 l 3.49631,-9.6052 h 1.70301 z m -2.69642,-3.7737 -1.68365,-4.71552 -1.6901,4.71552 z"
         style="stroke-width:0.35277778"
         id="path1721" />
      <path
         d="m 211.03621,289.80083 q 0,1.04502 -0.23223,1.82556 -0.22578,0.7741 -0.74829,1.29016 -0.49671,0.49026 -1.16114,0.71603 -0.66443,0.22578 -1.54818,0.22578 -0.90311,0 -1.57399,-0.23868 -0.67088,-0.23868 -1.12889,-0.70313 -0.52251,-0.52897 -0.75474,-1.27725 -0.22577,-0.74829 -0.22577,-1.83847 v -5.74764 h 1.27725 v 5.81214 q 0,0.78055 0.10321,1.2321 0.10966,0.45155 0.36124,0.81925 0.28384,0.4193 0.76765,0.63217 0.49025,0.21288 1.17404,0.21288 0.69023,0 1.17404,-0.20643 0.4838,-0.21287 0.77409,-0.63862 0.25158,-0.3677 0.35479,-0.8386 0.10966,-0.47736 0.10966,-1.18049 v -5.8444 h 1.27726 z"
         style="stroke-width:0.35277778"
         id="path1723" />
      <path
         d="m 220.47042,293.65839 h -1.65785 l -3.7995,-4.27686 -0.95472,1.01922 v 3.25764 h -1.27725 v -9.6052 h 1.27725 v 5.01225 l 4.66391,-5.01225 h 1.54818 l -4.28976,4.51554 z"
         style="stroke-width:0.35277778"
         id="path1725" />
      <path
         d="m 226.92434,285.15627 q 0.58702,0.64508 0.89666,1.58044 0.31608,0.93536 0.31608,2.1223 0,1.18695 -0.32254,2.12876 -0.31608,0.93536 -0.8902,1.56108 -0.59347,0.65153 -1.40627,0.98052 -0.80635,0.32899 -1.84492,0.32899 -1.01277,0 -1.84492,-0.33544 -0.8257,-0.33544 -1.40627,-0.97407 -0.58057,-0.63862 -0.89665,-1.56753 -0.30964,-0.92891 -0.30964,-2.12231 0,-1.17404 0.30964,-2.10295 0.30963,-0.93536 0.9031,-1.59979 0.56767,-0.63217 1.40627,-0.96761 0.84505,-0.33544 1.83847,-0.33544 1.03212,0 1.85137,0.34189 0.8257,0.33544 1.39982,0.96116 z m -0.11612,3.70274 q 0,-1.87072 -0.8386,-2.88349 -0.8386,-1.01922 -2.29002,-1.01922 -1.46432,0 -2.30292,1.01922 -0.83215,1.01277 -0.83215,2.88349 0,1.89008 0.8515,2.8964 0.8515,0.99987 2.28357,0.99987 1.43207,0 2.27712,-0.99987 0.8515,-1.00632 0.8515,-2.8964 z"
         style="stroke-width:0.35277778"
         id="path1727" />
      <path
         d="m 239.41154,284.05319 -2.49645,9.6052 h -1.43852 l -2.01909,-7.97315 -1.97394,7.97315 h -1.40627 l -2.5416,-9.6052 h 1.30951 l 2.01909,7.98605 1.98683,-7.98605 h 1.29661 l 2.00619,8.06346 2.00619,-8.06346 z"
         style="stroke-width:0.35277778"
         id="path1729" />
      <path
         d="m 246.87336,293.65839 h -6.3282 v -9.6052 h 6.3282 v 1.13534 h -5.05095 v 2.63191 h 5.05095 v 1.13534 h -5.05095 v 3.56727 h 5.05095 z"
         style="stroke-width:0.35277778"
         id="path1731" />
    </g>
  </g>
</svg>
