<?xml version="1.0" encoding="UTF-8" standalone="no"?>
<svg
   xmlns:dc="http://purl.org/dc/elements/1.1/"
   xmlns:cc="http://creativecommons.org/ns#"
   xmlns:rdf="http://www.w3.org/1999/02/22-rdf-syntax-ns#"
   xmlns:svg="http://www.w3.org/2000/svg"
   xmlns="http://www.w3.org/2000/svg"
   xmlns:sodipodi="http://sodipodi.sourceforge.net/DTD/sodipodi-0.dtd"
   xmlns:inkscape="http://www.inkscape.org/namespaces/inkscape"
   version="1.1"
   id="svg2142"
   xml:space="preserve"
   width="500"
   height="500"
   viewBox="0 0 500 500"
   sodipodi:docname="bit-logo-algo.svg"
   inkscape:version="1.0.1 (3bc2e813f5, 2020-09-07)"><metadata
     id="metadata2148"><rdf:RDF><cc:Work
         rdf:about=""><dc:format>image/svg+xml</dc:format><dc:type
           rdf:resource="http://purl.org/dc/dcmitype/StillImage" /><dc:title></dc:title></cc:Work></rdf:RDF></metadata><defs
     id="defs2146"><clipPath
       clipPathUnits="userSpaceOnUse"
       id="clipPath2160"><path
         d="M 0,566.93 H 566.93 V 0 H 0 Z"
         id="path2158" /></clipPath><clipPath
       clipPathUnits="userSpaceOnUse"
       id="clipPath2168"><path
         d="M 45,311.564 H 562 V -54.0703 H 45 Z"
         id="path2166" /></clipPath><clipPath
       clipPathUnits="userSpaceOnUse"
       id="clipPath2182"><path
         d="M 0,566.93 H 566.93 V 0 H 0 Z"
         id="path2180" /></clipPath><clipPath
       clipPathUnits="userSpaceOnUse"
       id="clipPath1176"><path
         d="M 0,1700.787 H 1700.788 V 0 H 0 Z"
         id="path1174" /></clipPath></defs><sodipodi:namedview
     pagecolor="#1c1c1c"
     bordercolor="#666666"
     borderopacity="1"
     objecttolerance="10"
     gridtolerance="10"
     guidetolerance="10"
     inkscape:pageopacity="0"
     inkscape:pageshadow="2"
     inkscape:window-width="1920"
     inkscape:window-height="983"
     id="namedview2144"
     showgrid="false"
     inkscape:showpageshadow="false"
     inkscape:zoom="0.77641678"
     inkscape:cx="431.7413"
     inkscape:cy="275.2728"
     inkscape:window-x="1920"
     inkscape:window-y="27"
     inkscape:window-maximized="1"
     inkscape:current-layer="g2150"
     inkscape:document-rotation="0" /><g
     id="g2150"
     inkscape:groupmode="layer"
     inkscape:label="bit-ai-logo"
     transform="matrix(1.3333333,0,0,-1.3333333,0,755.90667)"><text
       xml:space="preserve"
       style="font-style:normal;font-weight:normal;font-size:58.4032px;line-height:1.25;font-family:sans-serif;fill:#000000;fill-opacity:1;stroke:none;stroke-width:1.46009"
       x="77.554161"
       y="-238.95377"
       id="text896"
       transform="scale(1,-1)"><tspan
         sodipodi:role="line"
         id="tspan894"
         x="77.554161"
         y="-238.95377"
         style="font-style:normal;font-variant:normal;font-weight:normal;font-stretch:normal;font-size:58.4032px;font-family:Exo;-inkscape-font-specification:'Exo, Normal';font-variant-ligatures:normal;font-variant-caps:normal;font-variant-numeric:normal;font-variant-east-asian:normal;fill:#ffffff;fill-opacity:1;stroke-width:1.46009">BIT <tspan
   style="font-style:normal;font-variant:normal;font-weight:600;font-stretch:normal;font-size:58.4032px;font-family:Exo;-inkscape-font-specification:'Exo, Semi-Bold';font-variant-ligatures:normal;font-variant-caps:normal;font-variant-numeric:normal;font-variant-east-asian:normal;stroke-width:1.46009"
   id="tspan898">Algo</tspan></tspan></text><path
       d="m 262.20738,375.16929 h 0.003 v -0.89648 c 3.35122,0 6.46561,-1.27901 8.76688,-3.60265 2.49953,-2.52497 3.85191,-6.05131 3.81487,-9.92797 -0.081,-7.75472 -5.482,-13.18432 -13.17346,-13.20276 -7.52098,0 -13.47744,5.71343 -13.55612,13.00526 -0.0779,7.22788 6.46098,13.64328 13.9889,13.72747 z m -49.83564,71.64252 0.33251,-0.0103 c 7.48781,-0.20583 12.82092,-5.95869 12.68051,-13.67727 -0.14426,-7.67512 -5.56455,-13.03607 -13.26991,-13.03373 -7.41992,0.0375 -13.45968,5.92722 -13.45968,13.12953 0.003,7.23696 6.41316,13.58691 13.71657,13.58691 m -49.14747,71.45429 c 7.72001,0 12.72988,-5.03919 12.75764,-12.84092 0.0155,-3.91056 -1.4272,-7.52033 -4.06327,-10.16714 -2.4224,-2.43321 -5.61702,-3.77319 -8.99603,-3.77319 l -0.36798,0.0103 c -7.01489,0.19666 -13.3509,6.71095 -13.29844,13.66791 0.058,7.18386 6.01739,12.93897 13.57617,13.10407 z m -49.30564,-71.67108 0.23143,-0.89095 c 7.51558,-0.10657 12.39507,-5.15109 12.42747,-12.85188 0.0153,-3.90279 -1.42411,-7.50712 -4.05788,-10.15084 -2.42471,-2.4347 -5.62473,-3.77628 -9.01375,-3.77628 l -0.36028,0.0103 c -6.99947,0.19526 -13.334702,6.70562 -13.293825,13.65948 0.04476,7.35449 6.218745,13.11643 14.059115,13.11643 v 0.88954 z m 49.45993,-71.43116 0.25844,-0.88711 c 3.33426,-0.0656 6.41315,-1.41256 8.672,-3.78948 2.48951,-2.61974 3.78941,-6.22951 3.66829,-10.16161 -0.23915,-7.53335 -5.66484,-12.7955 -13.19585,-12.7955 h -0.33713 c -3.64824,0.074 -7.05269,1.57222 -9.57769,4.21753 -2.42007,2.53125 -3.70378,5.79284 -3.61583,9.18582 0.1836,7.23256 6.65231,13.3424 14.12005,13.3424 v 0.8857 z m 116.50068,-5.44964 c -3.42605,6.95406 -10.37847,11.27348 -18.13552,11.27348 -1.35931,0 -2.73173,-0.13738 -4.0764,-0.40886 -1.66172,-0.33488 -3.30339,-0.77305 -5.1495,-1.26525 -0.71128,-0.19057 -1.45188,-0.38798 -2.238,-0.59091 l -23.14615,39.21265 c 7.19851,10.12547 7.62434,19.12447 1.29991,27.49782 -4.09723,5.42191 -9.3316,8.17454 -15.55267,8.17454 -3.67833,0 -7.68143,-0.9197 -12.21918,-2.80507 l -23.1284,39.27277 c 0.41505,0.6897 0.81312,1.3293 1.19345,1.94025 0.94735,1.51519 1.76201,2.82352 2.43705,4.24759 3.02875,6.42861 2.60831,13.78684 -1.13097,19.68007 -3.73541,5.89389 -10.18406,9.41179 -17.24601,9.41179 -0.27928,0 -0.5624,-0.0103 -0.84399,-0.015 -7.21547,-0.27551 -13.56074,-4.15666 -16.97523,-10.38468 -3.43377,-6.26969 -3.26482,-13.80613 0.45594,-20.15982 2.44244,-4.17136 2.45016,-6.9239 0.0378,-10.91078 -3.79404,-6.26042 -7.44691,-12.74465 -10.97558,-19.0135 -1.96105,-3.48625 -3.92518,-6.97091 -5.92096,-10.43852 -0.72285,-1.26067 -1.6085,-2.4687 -2.46791,-3.63749 -0.26614,-0.36485 -0.53384,-0.72754 -0.78996,-1.08854 -0.70049,0.27307 -1.3547,0.53696 -1.97882,0.79074 -1.6648,0.67341 -3.1028,1.25589 -4.62103,1.67645 -1.70186,0.47366 -3.46696,0.71349 -5.2421,0.71349 -6.6716,0 -12.95668,-3.30027 -16.806282,-8.82463 -4.712853,-6.75665 -4.818552,-15.92609 -0.271554,-22.81833 3.743906,-5.67186 10.059086,-9.05706 16.891926,-9.05706 1.66634,0 3.3358,0.20452 4.96821,0.60485 5.50052,1.35235 10.02822,4.70834 12.74454,9.44654 2.85749,4.98758 3.46154,10.99263 1.68487,16.9722 -0.5894,1.97799 -1.47812,4.96745 -0.71592,6.39546 5.96495,11.14377 12.71522,23.07511 21.24065,37.54697 0.63645,1.08076 2.76183,2.0073 4.22992,2.11621 1.81988,0.13035 3.74082,0.18813 6.23881,0.18813 1.35699,0 2.74408,-0.0159 4.17514,-0.0337 1.36934,-0.0159 2.7711,-0.0346 4.23225,-0.0384 l 4.87099,-8.22145 c 5.66562,-9.53382 11.51715,-19.39389 17.13416,-29.3109 0.72286,-1.27303 0.41119,-3.86889 -0.29237,-5.543 -3.27255,-7.79565 -2.70321,-14.99646 1.69027,-21.40259 1.73964,-2.54202 1.87078,-4.3773 0.48062,-6.77033 -3.94063,-6.77884 -7.8257,-13.58634 -11.71078,-20.3944 -2.87216,-5.02532 -5.74044,-10.05139 -8.63266,-15.06426 -0.0934,-0.16987 -0.50222,-0.37964 -0.79615,-0.53472 -0.0856,-0.044 -0.16818,-0.0852 -0.24686,-0.12885 -0.66731,0.23449 -1.32693,0.47534 -1.97881,0.71442 -1.74504,0.63792 -3.39211,1.24203 -5.1387,1.66016 -1.82373,0.44051 -3.62124,0.66357 -5.33773,0.66357 -5.84615,0 -10.87453,-2.48264 -14.93627,-7.37827 -5.49358,-6.61608 -6.39232,-14.1927 -2.5952,-21.91109 3.61275,-7.34821 9.88011,-11.27797 18.34381,-11.3659 6.48644,0 12.36343,2.90443 16.122,7.96524 3.92288,5.28772 5.02376,12.13661 3.0141,18.79512 -0.15584,0.51234 -0.33713,1.01756 -0.51611,1.51828 -0.71977,2.00337 -1.33926,3.73376 -0.14117,5.80137 2.98092,5.14022 5.91247,10.3106 8.84248,15.4778 3.91285,6.90545 7.83034,13.80922 11.85891,20.64734 0.60945,1.03385 2.60136,2.07379 4.17515,2.18176 1.93327,0.13345 3.98536,0.19132 6.65925,0.19132 1.4218,0 2.87986,-0.0159 4.39117,-0.0328 1.47501,-0.0159 3.00329,-0.0346 4.59712,-0.0365 l 23.03738,-39.11076 c -0.34175,-0.90724 -0.68506,-1.76054 -1.01138,-2.57985 -0.77533,-1.93398 -1.50822,-3.76082 -1.99423,-5.63468 -2.25113,-8.66665 1.40715,-17.6163 9.09939,-22.27134 3.21544,-1.94793 6.88606,-2.97635 10.61684,-2.97635 5.23977,0 10.21339,1.99194 14.00203,5.61004 6.36764,6.08765 8.09726,15.86363 4.19444,23.77025"
       style="fill:#ffffff;fill-opacity:1;fill-rule:nonzero;stroke:none;stroke-width:0.771462"
       id="path1180" /></g></svg>
