<?xml version="1.0" encoding="UTF-8" standalone="no"?>
<svg
   xmlns:dc="http://purl.org/dc/elements/1.1/"
   xmlns:cc="http://creativecommons.org/ns#"
   xmlns:rdf="http://www.w3.org/1999/02/22-rdf-syntax-ns#"
   xmlns:svg="http://www.w3.org/2000/svg"
   xmlns="http://www.w3.org/2000/svg"
   xmlns:sodipodi="http://sodipodi.sourceforge.net/DTD/sodipodi-0.dtd"
   xmlns:inkscape="http://www.inkscape.org/namespaces/inkscape"
   version="1.1"
   id="svg2142"
   xml:space="preserve"
   width="500"
   height="500"
   viewBox="0 0 500 500"
   sodipodi:docname="bit-logo-sfi.svg"
   inkscape:version="1.0.1 (3bc2e813f5, 2020-09-07)"><metadata
     id="metadata2148"><rdf:RDF><cc:Work
         rdf:about=""><dc:format>image/svg+xml</dc:format><dc:type
           rdf:resource="http://purl.org/dc/dcmitype/StillImage" /><dc:title></dc:title></cc:Work></rdf:RDF></metadata><defs
     id="defs2146"><clipPath
       clipPathUnits="userSpaceOnUse"
       id="clipPath2160"><path
         d="M 0,566.93 H 566.93 V 0 H 0 Z"
         id="path2158" /></clipPath><clipPath
       clipPathUnits="userSpaceOnUse"
       id="clipPath2168"><path
         d="M 45,311.564 H 562 V -54.0703 H 45 Z"
         id="path2166" /></clipPath><clipPath
       clipPathUnits="userSpaceOnUse"
       id="clipPath2182"><path
         d="M 0,566.93 H 566.93 V 0 H 0 Z"
         id="path2180" /></clipPath><clipPath
       clipPathUnits="userSpaceOnUse"
       id="clipPath1176"><path
         d="M 0,1700.787 H 1700.788 V 0 H 0 Z"
         id="path1174" /></clipPath><clipPath
       clipPathUnits="userSpaceOnUse"
       id="clipPath3294"><path
         d="M 0,1700.787 H 1700.788 V 0 H 0 Z"
         id="path3292" /></clipPath><clipPath
       clipPathUnits="userSpaceOnUse"
       id="clipPath864"><path
         d="M 0,1324.613 H 764.962 V 0 H 0 Z"
         id="path862" /></clipPath><clipPath
       clipPathUnits="userSpaceOnUse"
       id="clipPath1247"><path
         d="M 0,850.393 H 1700.788 V 0 H 0 Z"
         id="path1245" /></clipPath></defs><sodipodi:namedview
     pagecolor="#1c1c1c"
     bordercolor="#666666"
     borderopacity="1"
     objecttolerance="10"
     gridtolerance="10"
     guidetolerance="10"
     inkscape:pageopacity="0"
     inkscape:pageshadow="2"
     inkscape:window-width="1920"
     inkscape:window-height="983"
     id="namedview2144"
     showgrid="false"
     inkscape:showpageshadow="false"
     inkscape:zoom="0.38820839"
     inkscape:cx="229.90025"
     inkscape:cy="407.13137"
     inkscape:window-x="1920"
     inkscape:window-y="27"
     inkscape:window-maximized="1"
     inkscape:current-layer="g2150"
     inkscape:document-rotation="0" /><g
     id="g2150"
     inkscape:groupmode="layer"
     inkscape:label="bit-ai-logo"
     transform="matrix(1.3333333,0,0,-1.3333333,0,755.90667)"><path
       d="m -1555.0008,628.70774 h 850.394 z"
       style="fill:#ffffff;fill-opacity:1;fill-rule:nonzero;stroke:none"
       id="path1237" /><g
       id="g1728"
       transform="matrix(0.47643176,0,0,0.47643176,23.192583,-31.080932)"><g
         id="g1249"
         transform="translate(306.15269,608.58069)"><path
           d="m 0,0 c 0,-4.301 -1.673,-7.816 -5.006,-10.536 -3.343,-2.726 -7.701,-4.081 -13.059,-4.081 h -64.712 c -5.372,0 -9.777,1.355 -13.225,4.081 -3.451,2.72 -5.174,6.235 -5.174,10.536 v 52.306 h 22.827 V 1.585 h 55.521 v 49.144 l -70.955,68.772 c -4.928,4.733 -7.393,9.964 -7.393,15.679 v 41.759 c 0,4.302 1.723,7.816 5.174,10.532 3.448,2.726 7.853,4.095 13.225,4.095 h 64.712 c 5.358,0 9.716,-1.369 13.059,-4.095 C -1.673,184.755 0,181.241 0,176.939 v -47.953 h -22.828 v 46.368 H -78.349 V 131.877 L -7.061,63.104 C -2.355,58.545 0,53.403 0,47.699 Z"
           style="fill:#ffffff;fill-opacity:1;fill-rule:nonzero;stroke:none"
           id="path1251" /></g><g
         id="g1253"
         transform="translate(429.34169,783.93429)"><path
           d="M 0,0 H -59.95 V -78.257 H -4.762 V -94.728 H -59.95 v -95.243 H -82.777 V 16.213 H 0 Z"
           style="fill:#ffffff;fill-opacity:1;fill-rule:nonzero;stroke:none"
           id="path1255" /></g><path
         d="m 485.02569,593.96359 h -22.832 v 206.184 h 22.832 z"
         style="fill:#ffffff;fill-opacity:1;fill-rule:nonzero;stroke:none"
         id="path1257" /><g
         id="g1259"
         transform="translate(264.99699,1083.5665)"><path
           d="m 0,0 c 0,-9.326 -7.562,-16.893 -16.895,-16.893 h -28.85 c -9.329,0 -16.891,7.567 -16.891,16.893 v 28.86 c 0,9.316 7.562,16.883 16.891,16.883 h 28.85 C -7.562,45.743 0,38.176 0,28.86 Z"
           style="fill:#ffffff;fill-opacity:1;fill-rule:nonzero;stroke:none"
           id="path1261" /></g><g
         id="g1263"
         transform="translate(338.89149,1083.5665)"><path
           d="m 0,0 c 0,-9.326 -7.566,-16.893 -16.9,-16.893 h -28.845 c -9.329,0 -16.896,7.567 -16.896,16.893 v 28.86 c 0,9.316 7.567,16.883 16.896,16.883 H -16.9 C -7.566,45.743 0,38.176 0,28.86 Z"
           style="fill:#ffffff;fill-opacity:1;fill-rule:nonzero;stroke:none"
           id="path1265" /></g><g
         id="g1267"
         transform="translate(338.18299,1010.3751)"><path
           d="m 0,0 c 0,-9.326 -7.557,-16.888 -16.89,-16.888 h -28.846 c -9.333,0 -16.895,7.562 -16.895,16.888 v 28.86 c 0,9.322 7.562,16.883 16.895,16.883 H -16.89 C -7.557,45.743 0,38.182 0,28.86 Z"
           style="fill:#ffffff;fill-opacity:1;fill-rule:nonzero;stroke:none"
           id="path1269" /></g><g
         id="g1271"
         transform="translate(412.78109,1083.5665)"><path
           d="M 0,0 C 0,-9.326 -7.561,-16.893 -16.891,-16.893 H -45.74 c -9.328,0 -16.895,7.567 -16.895,16.893 v 28.86 c 0,9.316 7.567,16.883 16.895,16.883 h 28.849 C -7.561,45.743 0,38.176 0,28.86 Z"
           style="fill:#ffffff;fill-opacity:1;fill-rule:nonzero;stroke:none"
           id="path1273" /></g><g
         id="g1275"
         transform="translate(264.99699,1009.6715)"><path
           d="m 0,0 c 0,-9.326 -7.562,-16.888 -16.895,-16.888 h -28.85 c -9.329,0 -16.891,7.562 -16.891,16.888 v 28.86 c 0,9.322 7.562,16.883 16.891,16.883 h 28.85 C -7.562,45.743 0,38.182 0,28.86 Z"
           style="fill:#ffffff;fill-opacity:1;fill-rule:nonzero;stroke:none"
           id="path1277" /></g><g
         id="g1279"
         transform="translate(486.67569,1083.5665)"><path
           d="M 0,0 C 0,-9.326 -7.562,-16.893 -16.895,-16.893 H -45.74 c -9.332,0 -16.891,7.567 -16.891,16.893 v 28.86 c 0,9.316 7.559,16.883 16.891,16.883 h 28.845 C -7.562,45.743 0,38.176 0,28.86 Z"
           style="fill:#ffffff;fill-opacity:1;fill-rule:nonzero;stroke:none"
           id="path1281" /></g><g
         id="g1283"
         transform="translate(486.67569,1011.0787)"><path
           d="M 0,0 C 0,-9.326 -7.562,-16.893 -16.895,-16.893 H -45.74 c -9.332,0 -16.891,7.567 -16.891,16.893 v 28.86 c 0,9.326 7.559,16.883 16.891,16.883 h 28.845 C -7.562,45.743 0,38.186 0,28.86 Z"
           style="fill:#ffffff;fill-opacity:1;fill-rule:nonzero;stroke:none"
           id="path1285" /></g><g
         id="g1287"
         transform="translate(264.99699,935.08265)"><path
           d="m 0,0 c 0,-9.336 -7.562,-16.896 -16.895,-16.896 h -28.85 c -9.329,0 -16.891,7.56 -16.891,16.896 v 28.851 c 0,9.326 7.562,16.883 16.891,16.883 h 28.85 C -7.562,45.734 0,38.177 0,28.851 Z"
           style="fill:#ffffff;fill-opacity:1;fill-rule:nonzero;stroke:none"
           id="path1289" /></g><g
         id="g1291"
         transform="translate(337.83579,936.13345)"><path
           d="m 0,0 c 0,-9.326 -7.566,-16.893 -16.895,-16.893 h -28.85 c -9.328,0 -16.89,7.567 -16.89,16.893 v 28.851 c 0,9.335 7.562,16.887 16.89,16.887 h 28.85 C -7.566,45.738 0,38.186 0,28.851 Z"
           style="fill:#ffffff;fill-opacity:1;fill-rule:nonzero;stroke:none"
           id="path1293" /></g><g
         id="g1295"
         transform="translate(413.13859,936.83755)"><path
           d="m 0,0 c 0,-9.326 -7.566,-16.894 -16.896,-16.894 h -28.85 c -9.328,0 -16.891,7.568 -16.891,16.894 v 28.851 c 0,9.326 7.563,16.892 16.891,16.892 h 28.85 C -7.566,45.743 0,38.177 0,28.851 Z"
           style="fill:#ffffff;fill-opacity:1;fill-rule:nonzero;stroke:none"
           id="path1297" /></g><g
         id="g1299"
         transform="translate(487.38069,937.18425)"><path
           d="m 0,0 c 0,-9.326 -7.562,-16.888 -16.891,-16.888 h -28.85 c -9.333,0 -16.891,7.562 -16.891,16.888 v 28.859 c 0,9.327 7.558,16.885 16.891,16.885 h 28.85 C -7.562,45.744 0,38.186 0,28.859 Z"
           style="fill:#ffffff;fill-opacity:1;fill-rule:nonzero;stroke:none"
           id="path1301" /></g><g
         id="g1303"
         transform="translate(264.99699,860.47525)"><path
           d="m 0,0 c 0,-9.322 -7.562,-16.893 -16.895,-16.893 h -28.85 c -9.329,0 -16.891,7.571 -16.891,16.893 v 28.859 c 0,9.323 7.562,16.884 16.891,16.884 h 28.85 C -7.562,45.743 0,38.182 0,28.859 Z"
           style="fill:#ffffff;fill-opacity:1;fill-rule:nonzero;stroke:none"
           id="path1305" /></g><g
         id="g1307"
         transform="translate(337.47989,859.77205)"><path
           d="m 0,0 c 0,-9.326 -7.562,-16.889 -16.891,-16.889 h -28.85 c -9.328,0 -16.89,7.563 -16.89,16.889 v 28.859 c 0,9.327 7.562,16.883 16.89,16.883 h 28.85 C -7.562,45.742 0,38.186 0,28.859 Z"
           style="fill:#ffffff;fill-opacity:1;fill-rule:nonzero;stroke:none"
           id="path1309" /></g><g
         id="g1311"
         transform="translate(412.78109,860.47525)"><path
           d="M 0,0 C 0,-9.322 -7.561,-16.893 -16.891,-16.893 H -45.74 c -9.328,0 -16.895,7.571 -16.895,16.893 v 28.859 c 0,9.323 7.567,16.884 16.895,16.884 h 28.849 C -7.561,45.743 0,38.182 0,28.859 Z"
           style="fill:#ffffff;fill-opacity:1;fill-rule:nonzero;stroke:none"
           id="path1313" /></g><g
         id="g1315"
         transform="translate(487.38069,860.47525)"><path
           d="m 0,0 c 0,-9.322 -7.562,-16.893 -16.891,-16.893 h -28.85 c -9.333,0 -16.891,7.571 -16.891,16.893 v 28.859 c 0,9.323 7.558,16.884 16.891,16.884 h 28.85 C -7.562,45.743 0,38.182 0,28.859 Z"
           style="fill:#ffffff;fill-opacity:1;fill-rule:nonzero;stroke:none"
           id="path1317" /></g></g><g
       id="g1319"
       transform="translate(-704.6068,1479.1003)"><path
         d="M 0,0 H 850.394"
         style="fill:#ffffff;fill-opacity:1;fill-rule:nonzero;stroke:none"
         id="path1321" /></g></g></svg>
