<?xml version="1.0" encoding="UTF-8" standalone="no"?>
<svg
   xmlns:dc="http://purl.org/dc/elements/1.1/"
   xmlns:cc="http://creativecommons.org/ns#"
   xmlns:rdf="http://www.w3.org/1999/02/22-rdf-syntax-ns#"
   xmlns:svg="http://www.w3.org/2000/svg"
   xmlns="http://www.w3.org/2000/svg"
   xmlns:sodipodi="http://sodipodi.sourceforge.net/DTD/sodipodi-0.dtd"
   xmlns:inkscape="http://www.inkscape.org/namespaces/inkscape"
   version="1.1"
   id="svg2142"
   xml:space="preserve"
   width="500"
   height="500"
   viewBox="0 0 500 500"
   sodipodi:docname="bit-logo-infra.svg"
   inkscape:version="1.0.1 (3bc2e813f5, 2020-09-07)"><metadata
     id="metadata2148"><rdf:RDF><cc:Work
         rdf:about=""><dc:format>image/svg+xml</dc:format><dc:type
           rdf:resource="http://purl.org/dc/dcmitype/StillImage" /><dc:title></dc:title></cc:Work></rdf:RDF></metadata><defs
     id="defs2146"><clipPath
       clipPathUnits="userSpaceOnUse"
       id="clipPath2160"><path
         d="M 0,566.93 H 566.93 V 0 H 0 Z"
         id="path2158" /></clipPath><clipPath
       clipPathUnits="userSpaceOnUse"
       id="clipPath2168"><path
         d="M 45,311.564 H 562 V -54.0703 H 45 Z"
         id="path2166" /></clipPath><clipPath
       clipPathUnits="userSpaceOnUse"
       id="clipPath2182"><path
         d="M 0,566.93 H 566.93 V 0 H 0 Z"
         id="path2180" /></clipPath><clipPath
       clipPathUnits="userSpaceOnUse"
       id="clipPath1176"><path
         d="M 0,1700.787 H 1700.788 V 0 H 0 Z"
         id="path1174" /></clipPath><clipPath
       clipPathUnits="userSpaceOnUse"
       id="clipPath3294"><path
         d="M 0,1700.787 H 1700.788 V 0 H 0 Z"
         id="path3292" /></clipPath></defs><sodipodi:namedview
     pagecolor="#1c1c1c"
     bordercolor="#666666"
     borderopacity="1"
     objecttolerance="10"
     gridtolerance="10"
     guidetolerance="10"
     inkscape:pageopacity="0"
     inkscape:pageshadow="2"
     inkscape:window-width="1920"
     inkscape:window-height="983"
     id="namedview2144"
     showgrid="false"
     inkscape:showpageshadow="false"
     inkscape:zoom="0.77641678"
     inkscape:cx="432.53113"
     inkscape:cy="275.28548"
     inkscape:window-x="1920"
     inkscape:window-y="27"
     inkscape:window-maximized="1"
     inkscape:current-layer="g2150"
     inkscape:document-rotation="0" /><g
     id="g2150"
     inkscape:groupmode="layer"
     inkscape:label="bit-ai-logo"
     transform="matrix(1.3333333,0,0,-1.3333333,0,755.90667)"><text
       xml:space="preserve"
       style="font-style:normal;font-weight:normal;font-size:58.4032px;line-height:1.25;font-family:sans-serif;fill:#000000;fill-opacity:1;stroke:none;stroke-width:1.46009"
       x="77.698341"
       y="-238.95377"
       id="text896"
       transform="scale(1,-1)"><tspan
         sodipodi:role="line"
         id="tspan894"
         x="77.698341"
         y="-238.95377"
         style="font-style:normal;font-variant:normal;font-weight:normal;font-stretch:normal;font-size:58.4032px;font-family:Exo;-inkscape-font-specification:'Exo, Normal';font-variant-ligatures:normal;font-variant-caps:normal;font-variant-numeric:normal;font-variant-east-asian:normal;fill:#ffffff;fill-opacity:1;stroke-width:1.46009">BIT <tspan
   style="font-weight:bold"
   id="tspan1036">Infra</tspan></tspan></text><g
       id="g4110"
       transform="matrix(1.056119,0,0,1.056119,-11.393166,-1235.8256)"><g
         id="g3324"
         transform="matrix(0.66555291,0,0,0.66555291,238.91925,1526.2543)"><path
           d="M 0,0 C 0.065,19.632 -15.738,35.634 -35.26,35.7 -54.849,35.765 -70.896,19.952 -71.039,0.44 -71.184,-18.984 -55.19,-35.179 -35.704,-35.343 -16.27,-35.505 -0.066,-19.468 0,0 m -123.522,88.427 c 0.071,9.752 -7.939,17.739 -17.899,17.844 -10.127,0.109 -18.331,-7.969 -18.354,-18.067 -0.023,-10.111 8.126,-18.232 18.244,-18.178 10.129,0.055 17.933,8.026 18.009,18.401 m 70.376,45.753 c 0.042,-22.428 18.38,-40.689 40.81,-40.642 22.215,0.051 40.551,18.625 40.488,41.018 -0.06,22.461 -18.517,40.81 -40.867,40.631 -22.573,-0.18 -40.478,-18.34 -40.431,-41.007 M -183.178,55.833 c -2.422,4.277 -4.419,7.807 -6.445,11.385 -6.487,-1.287 -12.724,-2.523 -19.332,-3.834 -1.115,4.68 -2.052,8.615 -3.183,13.367 6.504,1.656 12.805,3.262 19.194,4.889 v 12.617 c -5.674,1.705 -11.384,3.418 -17.54,5.264 1.253,4.137 2.5,7.798 3.448,11.535 0.711,2.792 2.327,3.336 4.804,2.627 3.382,-0.967 6.768,-1.928 10.159,-2.865 1.3,-0.358 2.621,-0.635 4.129,-1 2.01,3.021 3.943,5.921 6.006,9.021 -3.108,5.493 -8.894,8.625 -12.627,14.135 3.878,3.463 7.616,6.798 11.829,10.561 4.284,-4.639 8.332,-9.022 12.545,-13.582 3.848,1.934 7.443,3.743 11.215,5.642 -1.356,6.445 -2.67,12.694 -4.116,19.562 5.037,0.739 9.585,1.407 14.948,2.197 1.559,-6.397 3.082,-12.649 4.643,-19.051 h 11.233 c 1.909,6.052 3.833,12.152 5.879,18.643 5.266,0.446 9.637,-2.112 14.79,-3.465 -2.067,-7.129 -3.957,-13.65 -5.931,-20.466 2.904,-1.971 5.778,-3.921 9.158,-6.216 5.222,4.712 10.508,9.487 16.091,14.527 3.44,-3.688 6.454,-6.923 9.877,-10.593 -2.665,-2.743 -5.018,-5.285 -7.5,-7.694 -2.514,-2.436 -5.154,-4.743 -8.137,-7.475 1.701,-3.383 3.335,-6.631 5.137,-10.216 6.629,1.506 13.036,2.96 20.02,4.545 1.48,-4.847 2.475,-9.48 2.678,-14.909 -6.572,-1.602 -12.942,-3.159 -19.625,-4.791 v -9.461 c 6.584,-2.048 13.415,-4.176 21.03,-6.545 -0.898,-4.674 -1.755,-9.143 -2.748,-14.319 -7.729,2.127 -14.796,4.07 -22.063,6.072 -2.304,-3.785 -4.507,-7.398 -6.832,-11.215 4.767,-5.197 9.505,-10.358 14.662,-15.983 -3.461,-3.679 -6.754,-7.18 -10.737,-11.411 4.789,-1.504 9.082,-2.851 13.614,-4.275 2.168,3.216 4.217,6.259 6.589,9.777 -4.296,4.372 -8.598,8.752 -13.264,13.506 4.331,3.788 8.215,7.185 12.24,10.709 4.433,-4.839 8.36,-9.125 12.395,-13.529 3.894,1.937 7.342,3.652 11.218,5.582 -1.347,6.414 -2.664,12.665 -4.097,19.48 5.094,0.77 9.828,1.484 15.09,2.277 1.507,-6.453 2.959,-12.654 4.475,-19.138 h 11.268 c 1.137,3.676 2.375,7.674 3.751,12.116 -5.264,1.776 -10.015,3.38 -15.21,5.134 1.736,5.987 3.4,11.734 5.13,17.698 -3.254,1.899 -6.416,3.747 -9.842,5.746 -4.558,-4.128 -9.016,-8.163 -13.851,-12.544 -3.809,3.558 -7.442,6.951 -11.034,10.304 4.625,4.677 8.869,8.969 13.33,13.476 -1.932,3.646 -3.738,7.054 -5.86,11.052 -2.464,-0.43 -5.093,-0.828 -7.693,-1.361 -2.872,-0.591 -5.709,-1.342 -8.578,-1.953 -2.263,-0.479 -3.759,0.187 -4.205,2.745 -0.564,3.253 -1.351,6.47 -2.173,10.308 6.456,1.635 12.784,3.236 19.262,4.875 v 12.548 c -5.593,1.654 -11.325,3.351 -17.73,5.246 1.52,4.923 2.936,9.507 4.469,14.47 6.454,0.113 11.778,-3.391 18.08,-4.061 1.918,2.84 3.971,5.88 6.355,9.411 -4.288,4.367 -8.587,8.747 -13.261,13.507 4.321,3.782 8.204,7.182 12.232,10.708 4.427,-4.823 8.36,-9.106 12.407,-13.515 3.871,1.924 7.323,3.635 11.217,5.572 -1.347,6.401 -2.663,12.658 -4.099,19.478 5.075,0.771 9.81,1.487 15.083,2.289 1.509,-6.452 2.959,-12.651 4.479,-19.142 h 11.181 c 1.975,6.106 4.054,12.538 6.328,19.568 4.801,-1.36 9.211,-2.609 14.377,-4.071 -2.001,-7.128 -3.875,-13.805 -5.822,-20.741 2.947,-1.972 5.824,-3.896 9.148,-6.117 5.311,4.791 10.588,9.556 16.05,14.486 3.511,-3.762 6.531,-6.997 9.827,-10.53 -5.212,-5.263 -10.13,-10.227 -15.437,-15.581 1.447,-2.873 3.004,-5.966 4.842,-9.612 3.4,0.647 6.795,1.239 10.163,1.953 3.215,0.676 6.401,1.481 10.238,2.375 0.978,-5.031 1.853,-9.522 2.866,-14.73 -3.486,-0.895 -6.613,-1.723 -9.75,-2.499 -3.224,-0.798 -6.463,-1.546 -10.06,-2.403 v -9.631 c 6.744,-2.096 13.573,-4.221 20.881,-6.494 -1.028,-4.934 -1.957,-9.392 -2.991,-14.356 -7.682,2.173 -14.756,4.174 -21.873,6.19 -2.378,-3.888 -4.502,-7.36 -6.857,-11.213 4.746,-5.215 9.557,-10.5 14.545,-15.981 -3.836,-3.586 -7.36,-6.875 -11.377,-10.628 -4.52,5.024 -9.439,10.49 -14.344,15.945 -3.516,-1.985 -6.014,-3.392 -8.705,-4.912 1.528,-6.668 3.004,-13.099 4.645,-20.25 -5.063,-1.274 -9.879,-2.484 -15.461,-3.887 -1.68,6.732 -3.269,13.1 -4.954,19.846 H -17.68 c -1.095,-3.341 -2.283,-6.961 -3.56,-10.856 4.974,-1.551 9.576,-2.984 14.845,-4.627 -1.987,-7.05 -3.874,-13.732 -5.817,-20.623 3.022,-1.993 5.917,-3.905 9.214,-6.084 5.197,4.735 10.344,9.422 15.916,14.496 3.428,-3.642 6.551,-6.964 9.857,-10.482 -5.159,-5.444 -9.972,-10.524 -15.19,-16.027 1.286,-2.551 2.852,-5.656 4.72,-9.361 6.62,1.427 13.207,2.848 20.361,4.39 0.963,-5.029 1.826,-9.527 2.82,-14.721 C 28.715,6.983 22.342,5.408 15.644,3.752 v -9.568 c 6.87,-2.128 13.698,-4.244 20.908,-6.476 -0.983,-4.881 -1.854,-9.211 -2.876,-14.288 -7.599,2.089 -14.811,4.073 -22.024,6.056 -2.379,-3.914 -4.496,-7.395 -6.796,-11.18 4.785,-5.256 9.602,-10.545 14.631,-16.068 -3.846,-3.67 -7.336,-7.004 -11.363,-10.848 -4.813,5.264 -9.78,10.699 -14.719,16.102 -3.178,-1.763 -5.543,-3.075 -8.434,-4.68 1.489,-6.518 2.994,-13.094 4.648,-20.334 -5.15,-1.276 -9.969,-2.47 -15.491,-3.836 -1.686,6.794 -3.267,13.17 -4.928,19.871 h -10.386 c -0.986,-2.93 -2.061,-6.017 -3.065,-9.128 -0.95,-2.954 -1.829,-5.928 -2.846,-9.237 -5.044,1.543 -9.665,2.957 -14.909,4.56 1.726,5.989 3.375,11.713 5.13,17.799 -3.099,1.863 -6.228,3.744 -9.745,5.857 -4.463,-4.042 -8.921,-8.078 -13.864,-12.553 -3.743,3.442 -7.399,6.802 -11.418,10.495 4.843,4.533 9.361,8.759 13.904,13.01 -2.279,4.164 -4.135,7.55 -6.264,11.44 -4.913,-1.016 -9.835,-2.042 -14.761,-3.042 -4.645,-0.945 -4.671,-0.94 -5.794,3.83 -0.665,2.826 -1.244,5.668 -1.933,8.84 6.516,1.63 12.726,3.18 19.196,4.801 V 7.867 c -5.64,1.619 -11.218,3.224 -17.431,5.007 1.424,5.678 2.088,11.281 6.548,16.178 -4.224,4.509 -8.989,9.597 -13.751,14.68 -2.781,-1.517 -5.163,-2.817 -8.005,-4.368 1.451,-6.82 2.89,-13.569 4.404,-20.679 -5.514,-1.227 -10.204,-2.272 -15.438,-3.435 -1.689,6.912 -3.251,13.286 -4.876,19.931 h -10.374 c -1.931,-6.035 -3.874,-12.103 -5.946,-18.577 -5.004,1.53 -9.62,2.94 -14.842,4.536 1.704,6 3.335,11.734 5.079,17.868 -3.196,1.886 -6.338,3.738 -9.79,5.774 -4.516,-4.105 -8.955,-8.144 -13.812,-12.558 -3.745,3.484 -7.371,6.856 -11.316,10.525 4.946,4.645 9.461,8.888 13.927,13.084"
           style="fill:#ffffff;fill-opacity:1;fill-rule:evenodd;stroke:none"
           id="path3326" /></g><g
         id="g3328"
         transform="matrix(0.66555291,0,0,0.66555291,226.41544,1527.516)"><path
           d="m 0,0 c -0.092,9.158 -7.785,16.857 -16.908,16.92 -9.337,0.064 -17.17,-7.889 -17.076,-17.336 0.091,-9.143 7.802,-16.859 16.909,-16.921 C -7.732,-17.399 0.094,-9.451 0,0 m -16.625,-33.588 c -18.064,-0.027 -32.01,13.931 -31.979,32.004 0.032,17.882 14.342,32.12 32.146,31.983 17.5,-0.135 31.715,-14.362 31.835,-31.862 0.124,-17.816 -14.105,-32.096 -32.002,-32.125"
           style="fill:#ffffff;fill-opacity:1;fill-rule:evenodd;stroke:none"
           id="path3330" /></g></g></g></svg>
