<?xml version="1.0" encoding="UTF-8" standalone="no"?>
<svg
   xmlns:dc="http://purl.org/dc/elements/1.1/"
   xmlns:cc="http://creativecommons.org/ns#"
   xmlns:rdf="http://www.w3.org/1999/02/22-rdf-syntax-ns#"
   xmlns:svg="http://www.w3.org/2000/svg"
   xmlns="http://www.w3.org/2000/svg"
   xmlns:sodipodi="http://sodipodi.sourceforge.net/DTD/sodipodi-0.dtd"
   xmlns:inkscape="http://www.inkscape.org/namespaces/inkscape"
   version="1.1"
   id="svg2142"
   xml:space="preserve"
   width="500"
   height="500"
   viewBox="0 0 500 500"
   sodipodi:docname="bit-logo-python.svg"
   inkscape:version="1.0.1 (3bc2e813f5, 2020-09-07)"><metadata
     id="metadata2148"><rdf:RDF><cc:Work
         rdf:about=""><dc:format>image/svg+xml</dc:format><dc:type
           rdf:resource="http://purl.org/dc/dcmitype/StillImage" /><dc:title /></cc:Work></rdf:RDF></metadata><defs
     id="defs2146"><clipPath
       clipPathUnits="userSpaceOnUse"
       id="clipPath2160"><path
         d="M 0,566.93 H 566.93 V 0 H 0 Z"
         id="path2158" /></clipPath><clipPath
       clipPathUnits="userSpaceOnUse"
       id="clipPath2168"><path
         d="M 45,311.564 H 562 V -54.0703 H 45 Z"
         id="path2166" /></clipPath><clipPath
       clipPathUnits="userSpaceOnUse"
       id="clipPath2182"><path
         d="M 0,566.93 H 566.93 V 0 H 0 Z"
         id="path2180" /></clipPath><clipPath
       clipPathUnits="userSpaceOnUse"
       id="clipPath1176"><path
         d="M 0,1700.787 H 1700.788 V 0 H 0 Z"
         id="path1174" /></clipPath><clipPath
       clipPathUnits="userSpaceOnUse"
       id="clipPath3294"><path
         d="M 0,1700.787 H 1700.788 V 0 H 0 Z"
         id="path3292" /></clipPath><clipPath
       clipPathUnits="userSpaceOnUse"
       id="clipPath864"><path
         d="M 0,1324.613 H 764.962 V 0 H 0 Z"
         id="path862" /></clipPath><clipPath
       clipPathUnits="userSpaceOnUse"
       id="clipPath1247"><path
         d="M 0,850.393 H 1700.788 V 0 H 0 Z"
         id="path1245" /></clipPath></defs><sodipodi:namedview
     pagecolor="#1c1c1c"
     bordercolor="#666666"
     borderopacity="1"
     objecttolerance="10"
     gridtolerance="10"
     guidetolerance="10"
     inkscape:pageopacity="0"
     inkscape:pageshadow="2"
     inkscape:window-width="1920"
     inkscape:window-height="983"
     id="namedview2144"
     showgrid="false"
     inkscape:showpageshadow="false"
     inkscape:zoom="0.77641679"
     inkscape:cx="-18.774894"
     inkscape:cy="404.61694"
     inkscape:window-x="1920"
     inkscape:window-y="27"
     inkscape:window-maximized="1"
     inkscape:current-layer="g2150"
     inkscape:document-rotation="0" /><g
     id="g2150"
     inkscape:groupmode="layer"
     inkscape:label="bit-ai-logo"
     transform="matrix(1.3333333,0,0,-1.3333333,0,755.90667)"><text
       xml:space="preserve"
       style="font-style:normal;font-weight:normal;font-size:58.4032px;line-height:1.25;font-family:sans-serif;fill:#000000;fill-opacity:1;stroke:none;stroke-width:1.46009"
       x="45.368519"
       y="-238.95377"
       id="text896"
       transform="scale(1,-1)"><tspan
         id="tspan894"
         x="45.368519"
         y="-238.95377"
         style="font-style:normal;font-variant:normal;font-weight:normal;font-stretch:normal;font-size:58.4032px;font-family:Exo;-inkscape-font-specification:'Exo, Normal';font-variant-ligatures:normal;font-variant-caps:normal;font-variant-numeric:normal;font-variant-east-asian:normal;fill:#ffffff;fill-opacity:1;stroke-width:1.46009"
         sodipodi:role="line">BIT <tspan
   style="font-weight:bold"
   id="tspan1869">Python</tspan></tspan></text><path
       d="m -1555.0008,628.70774 h 850.394 z"
       style="fill:#ffffff;fill-opacity:1;fill-rule:nonzero;stroke:none"
       id="path1237" /><g
       id="g1319"
       transform="translate(-704.6068,1479.1003)"><path
         d="M 0,0 H 850.394"
         style="fill:#ffffff;fill-opacity:1;fill-rule:nonzero;stroke:none"
         id="path1321" /></g><g
       id="g1867"
       transform="matrix(0.42006003,0,0,0.42006003,-163.40413,187.21172)"><path
         style="fill:#fffefd;fill-opacity:1;stroke:none;stroke-width:0.75px;stroke-linecap:butt;stroke-linejoin:miter;stroke-opacity:1"
         d="m 727.13335,679.24015 v 55.92368 c 6.94316,49.1216 105.80284,45.04594 105.80284,45.04594 40.79032,-0.10248 103.05054,-6.31079 111.75435,-52.3483 V 617.72413 C 941.65753,575.99716 916.3612,565.16705 885.11939,562.58807 H 772.51866 c 0,0 -56.04657,2.06927 -60.72189,-60.92845 v -56.98233 h -42.60414 c -31.67845,3.38851 -61.56077,37.72807 -59.23299,116.29443 1.50156,52.64748 20.05145,103.39832 70.06555,102.28041 h 156.4777 v 15.69822 z"
         id="path1762"
         sodipodi:nodetypes="ccccccccccccccc" /><path
         style="fill:none;fill-opacity:1;stroke:#ffffff;stroke-width:18.75;stroke-linecap:butt;stroke-linejoin:miter;stroke-miterlimit:4;stroke-dasharray:none;stroke-opacity:1"
         d="m 935.65504,423.35605 0.68902,-43.65938 c -4.43366,-40.81276 -85.91094,-40.1228 -85.91094,-40.1228 -39.64997,0.0996 -105.82688,2.01613 -114.28735,46.76658 l 0.21954,102.71188 c 2.94821,40.56043 20.99668,49.40215 58.10317,50.60913 l 110.53817,0.329 c 0,0 57.06947,9.86452 64.24414,66.64203 v 50.62886 l 30.2549,-0.23393 c 32.18271,-4.249 47.40871,-32.08702 51.35061,-79.03494 1.2269,-14.61169 0.4678,-31.25859 -0.069,-49.38562 -1.1163,-14.78794 -13.1684,-72.60493 -61.78433,-71.51827 l -163.47517,0.56386 1.36331,-34.83583 z"
         id="path1762-8"
         sodipodi:nodetypes="ccccccccccsccccc" /></g></g></svg>
