<?xml version="1.0" encoding="UTF-8" standalone="no"?>
<svg
   xmlns:dc="http://purl.org/dc/elements/1.1/"
   xmlns:cc="http://creativecommons.org/ns#"
   xmlns:rdf="http://www.w3.org/1999/02/22-rdf-syntax-ns#"
   xmlns:svg="http://www.w3.org/2000/svg"
   xmlns="http://www.w3.org/2000/svg"
   xmlns:sodipodi="http://sodipodi.sourceforge.net/DTD/sodipodi-0.dtd"
   xmlns:inkscape="http://www.inkscape.org/namespaces/inkscape"
   version="1.1"
   id="svg2142"
   xml:space="preserve"
   width="500"
   height="500"
   viewBox="0 0 500 500"
   sodipodi:docname="bit-logo-cybersec.svg"
   inkscape:version="1.0.1 (3bc2e813f5, 2020-09-07)"
   inkscape:export-filename="/home/mzlnk/ddd/BIT/logo/png/bit-logo-cybersec-filled.png"
   inkscape:export-xdpi="96"
   inkscape:export-ydpi="96"><metadata
     id="metadata2148"><rdf:RDF><cc:Work
         rdf:about=""><dc:format>image/svg+xml</dc:format><dc:type
           rdf:resource="http://purl.org/dc/dcmitype/StillImage" /><dc:title></dc:title></cc:Work></rdf:RDF></metadata><defs
     id="defs2146"><clipPath
       clipPathUnits="userSpaceOnUse"
       id="clipPath2160"><path
         d="M 0,566.93 H 566.93 V 0 H 0 Z"
         id="path2158" /></clipPath><clipPath
       clipPathUnits="userSpaceOnUse"
       id="clipPath2168"><path
         d="M 45,311.564 H 562 V -54.0703 H 45 Z"
         id="path2166" /></clipPath><clipPath
       clipPathUnits="userSpaceOnUse"
       id="clipPath2182"><path
         d="M 0,566.93 H 566.93 V 0 H 0 Z"
         id="path2180" /></clipPath><clipPath
       clipPathUnits="userSpaceOnUse"
       id="clipPath1176"><path
         d="M 0,1700.787 H 1700.788 V 0 H 0 Z"
         id="path1174" /></clipPath><clipPath
       clipPathUnits="userSpaceOnUse"
       id="clipPath3294"><path
         d="M 0,1700.787 H 1700.788 V 0 H 0 Z"
         id="path3292" /></clipPath><clipPath
       clipPathUnits="userSpaceOnUse"
       id="clipPath864"><path
         d="M 0,1324.613 H 764.962 V 0 H 0 Z"
         id="path862" /></clipPath><clipPath
       clipPathUnits="userSpaceOnUse"
       id="clipPath1247"><path
         d="M 0,850.393 H 1700.788 V 0 H 0 Z"
         id="path1245" /></clipPath><clipPath
       clipPathUnits="userSpaceOnUse"
       id="clipPath2160-3"><path
         d="M 0,566.93 H 566.93 V 0 H 0 Z"
         id="path2158-3" /></clipPath><clipPath
       clipPathUnits="userSpaceOnUse"
       id="clipPath2168-3"><path
         d="M 45,311.564 H 562 V -54.0703 H 45 Z"
         id="path2166-8" /></clipPath><clipPath
       clipPathUnits="userSpaceOnUse"
       id="clipPath2182-6"><path
         d="M 0,566.93 H 566.93 V 0 H 0 Z"
         id="path2180-0" /></clipPath></defs><sodipodi:namedview
     pagecolor="#1c1c1c"
     bordercolor="#666666"
     borderopacity="1"
     objecttolerance="10"
     gridtolerance="10"
     guidetolerance="10"
     inkscape:pageopacity="0"
     inkscape:pageshadow="2"
     inkscape:window-width="1920"
     inkscape:window-height="983"
     id="namedview2144"
     showgrid="false"
     inkscape:showpageshadow="false"
     inkscape:zoom="0.70710678"
     inkscape:cx="111.95738"
     inkscape:cy="490.90831"
     inkscape:window-x="1920"
     inkscape:window-y="27"
     inkscape:window-maximized="1"
     inkscape:current-layer="g2150"
     inkscape:document-rotation="0"><inkscape:grid
       type="xygrid"
       id="grid1891" /></sodipodi:namedview><g
     id="g2150"
     inkscape:groupmode="layer"
     inkscape:label="bit-ai-logo"
     transform="matrix(1.3333333,0,0,-1.3333333,0,755.90667)"><text
       xml:space="preserve"
       style="font-style:normal;font-weight:normal;font-size:58.4032px;line-height:1.25;font-family:sans-serif;fill:#000000;fill-opacity:1;stroke:none;stroke-width:1.46009"
       x="14.684949"
       y="-238.95377"
       id="text896"
       transform="scale(1,-1)"><tspan
         id="tspan894"
         x="14.684949"
         y="-238.95377"
         style="font-style:normal;font-variant:normal;font-weight:normal;font-stretch:normal;font-size:58.4032px;font-family:Exo;-inkscape-font-specification:'Exo, Normal';font-variant-ligatures:normal;font-variant-caps:normal;font-variant-numeric:normal;font-variant-east-asian:normal;fill:#ffffff;fill-opacity:1;stroke-width:1.46009"
         sodipodi:role="line">BIT <tspan
   style="font-weight:bold"
   id="tspan1009">CyberSec</tspan></tspan></text><g
       id="g886"
       transform="matrix(0.97783592,0,0,0.97783592,4.1557655,9.4232643)"><g
         id="g1007"
         transform="matrix(0.68777259,0,0,0.68777259,-388.63548,278.75208)"><path
           id="path871"
           style="fill:#fffefe;fill-opacity:1;stroke:#ffffff;stroke-width:1px;stroke-linecap:butt;stroke-linejoin:miter;stroke-opacity:1"
           d="m 1115.8457,272.23438 c -58.1347,0.15083 -106.2433,125.37039 -107.2109,137.5625 -1.2107,15.25446 23.789,39.26171 23.789,39.26171 0,0 -34.5443,17.66082 -44.84372,31.84375 -13.22604,18.21306 -28.83769,60.29639 -34.84961,86.86328 -1.08419,4.79111 -1.69784,10.09205 -0.0977,14.73633 7.14192,20.72822 45.08203,61.97852 45.08203,61.97852 v 21.7168 c 0,4.09684 1.6316,5.72461 9.7715,5.72461 h 223.0176 c 3.7293,0 7.2677,-4.78045 7.2637,-8.50977 l -0.02,-20.14453 c 0,0 38.9108,-46.58126 43.3985,-60.27539 2.1121,-6.44527 0.5467,-13.75712 -1.2012,-20.31055 -5.6923,-21.3422 -20.5522,-62.92467 -33.4844,-81.10547 -6.1997,-8.71602 -44.9336,-32.86523 -44.9336,-32.86523 0,0 26.2372,-22.24866 24.3184,-36.83594 -1.9269,-14.6488 -50.7458,-139.79439 -110,-139.64062 z m 0.9902,14.85937 c 44.1828,-0.17935 84.2403,102.33789 84.2403,102.33789 -63.3819,-20.78455 -117.0528,-16.74999 -166.1875,-1.11914 0,0 38.5367,-101.04254 81.9472,-101.21875 z m -52.2094,111.93359 h 104.7296 c 4.9953,-0.0609 7.782,4.14305 6.7891,6.94532 0,0 -4.8622,35.46299 -14.8965,46.43644 -9.1032,9.9552 -40.11,16.74139 -44.2878,16.86524 -3.982,0.118 -34.612,-5.84289 -43.5199,-15.4961 -10.395,-11.26463 -14.6348,-47.98137 -14.6348,-47.98136 -0.7129,-2.12353 0.9203,-6.76954 5.8203,-6.76954 z m -53.0074,99.19532 h 210.8614 V 632.24219 H 1012.209 Z m 0.5899,147.625 h 210.2715 v 11.3789 h -210.2461 z"
           transform="matrix(0.75000002,0,0,-0.75000002,0,566.93002)"
           sodipodi:nodetypes="sscssscsssccssscsssscssccssscsccccccccccc" /><path
           style="fill:#ffffff;fill-opacity:1;stroke:#fdfdfd;stroke-width:0.75px;stroke-linecap:butt;stroke-linejoin:miter;stroke-opacity:1"
           d="m 838.71032,346.17094 0.1533,-53.97525 c 16.37253,-0.68646 33.79548,-3.54873 52.38488,-8.8272 -23.03712,43.30464 -38.25222,62.19467 -52.53818,62.80245 z"
           id="path879"
           sodipodi:nodetypes="cccc" /><path
           d="m 837.78659,167.3733 c -3.10291,0 -6.23806,-1.04611 -8.6504,-3.23323 -2.41235,-2.18729 -3.99151,-5.54216 -3.99151,-9.60768 v -9.76179 h 4.89449 v 9.76179 c 0,2.86618 0.97251,4.70555 2.38289,5.98415 1.41028,1.27869 3.37052,1.96233 5.36453,1.96233 1.9939,0 3.95418,-0.68364 5.36452,-1.96233 1.41026,-1.27868 2.3829,-3.11772 2.3829,-5.98415 v -9.76179 h 4.89449 v 9.76179 c 0,4.06552 -1.57912,7.42048 -3.99152,9.60768 -2.41233,2.1872 -5.54748,3.23323 -8.65039,3.23323 z m -15.08672,-22.60434 c -1.80713,0 -3.26199,-1.45489 -3.26199,-3.26203 v -19.60671 c 0,-1.80714 1.45487,-3.26194 3.26199,-3.26194 h 30.17344 c 1.80711,0 3.26198,1.4548 3.26198,3.26194 v 19.60671 c 0,1.80714 -1.45487,3.26203 -3.26198,3.26203 z"
           fill="#ffffff"
           fill-opacity="0.50196"
           opacity="0.97"
           id="path928"
           style="opacity:1;fill:#ffffff;fill-opacity:1;stroke-width:2.31889" /></g><g
         id="g877"
         transform="translate(-1.1352353,2.8020682)"><path
           style="fill:none;stroke:#fefefe;stroke-width:11.25;stroke-linecap:round;stroke-linejoin:miter;stroke-miterlimit:4;stroke-dasharray:none;stroke-opacity:1"
           d="m 258.25533,348.61162 h 37.61586"
           id="path858"
           sodipodi:nodetypes="cc" /><path
           style="fill:none;stroke:#fefefe;stroke-width:11.25;stroke-linecap:round;stroke-linejoin:miter;stroke-miterlimit:4;stroke-dasharray:none;stroke-opacity:1"
           d="m 81.39929,348.61162 h 37.61586"
           id="path858-1"
           sodipodi:nodetypes="cc" /></g></g><text
       xml:space="preserve"
       style="font-style:normal;font-weight:normal;font-size:30px;line-height:1.25;font-family:sans-serif;fill:#000000;fill-opacity:1;stroke:none;stroke-width:0.75"
       x="492.0531"
       y="-356.28897"
       id="text890"
       transform="scale(1,-1)"><tspan
         sodipodi:role="line"
         id="tspan888"
         x="492.0531"
         y="-356.28897"
         style="stroke-width:0.75"></tspan></text></g></svg>
